<svg width="287" height="335" viewBox="0 0 287 335" fill="none" xmlns="http://www.w3.org/2000/svg">
<path fill-rule="evenodd" clip-rule="evenodd" d="M227.242 238.821C230.033 235.193 229.306 229.748 232.927 226.325C233.262 226.012 233.404 225.076 233.185 224.663C231.951 222.31 233.503 220.855 234.625 219.12C235.365 217.973 236.556 216.127 234.406 215.388C232.148 214.615 233.55 213.825 234.242 213.456C239.282 210.815 239.531 204.799 243.044 200.973C244.441 199.449 245.736 196.125 245.598 193.931C245.409 190.955 247.094 190.053 248.565 188.503C248.956 188.091 248.952 187.159 248.892 186.489C248.746 184.896 247.972 183.509 247.198 182.139L247.211 181.83C247.279 180.683 247 178.725 247.477 178.519C251.007 176.999 249.67 173.242 251.231 170.846C251.828 169.927 251.837 167.509 249.739 167.908C247.886 168.265 245.353 168.252 244.39 170.463C241.754 176.527 236.792 181.25 234.561 187.498C233.597 190.191 231.121 190.77 229.164 192.058C228.489 192.501 228.081 191.754 227.853 190.796C226.92 186.845 228.683 184.226 231.667 182.045C232.978 181.087 234.208 180.056 235.064 178.605C238.684 172.456 239.965 165.663 240.683 158.706C240.404 158.333 240.125 157.955 239.845 157.581C241.526 155.808 243.388 154.099 242.042 151.277C241.75 150.663 242.081 150.509 242.605 150.41C244.712 150.006 244.717 148.375 244.712 146.752C244.708 145.669 245.809 141.075 246.355 139.864C246.449 139.658 246.647 139.34 246.574 139.241C244.635 136.712 247.705 135.407 247.98 133.427C248.457 132.667 248.337 131.86 248.174 131.048L248.303 131.018C248.462 131.001 248.621 130.984 248.78 130.966C248.617 130.924 248.449 130.881 248.285 130.838C248.182 130.657 248.139 130.464 248.152 130.258C248.268 129.206 248.389 128.158 248.505 127.106C249.249 124.989 251.338 123.04 249.042 120.583C248.333 119.823 249.18 119.149 249.924 118.733C251.016 118.647 251.51 119.484 252.164 120.124C252.701 120.648 251.773 121.923 253.157 121.966C253.712 121.983 254.004 121.708 254.047 121.172C254.129 120.175 253.871 119.609 252.744 119.188C252.052 118.93 251.902 117.711 250.994 117.032C250.233 116.465 249.898 113.949 251.42 113.412C253.557 112.661 252.985 110.776 254.305 109.513C252.8 109.079 251.153 111.742 250.59 108.903C249.894 108.1 249.188 107.074 248.526 108.865C248.526 108.86 248.522 108.861 248.522 108.856C246.29 106.095 246.733 102.969 248.479 100.53C252.271 95.2397 255.165 89.4684 258.54 83.9763C262.763 77.1014 267.316 70.3812 271.771 63.6223C272.841 61.9948 273.486 60.1613 273.482 58.1473C270.846 60.8998 269.35 64.3523 266.77 67.0146C263.614 66.495 261.069 65.0265 259.542 62.1451C259.091 61.2949 258.751 60.4618 257.668 60.4532C257.448 60.449 257.156 60.8526 257.018 61.1317C256.412 62.3298 257.195 63.0855 257.977 63.7769C258.618 64.3394 259.882 64.4425 259.508 65.7178C259.138 66.9717 257.999 66.9502 256.958 67.006C256.924 66.8042 256.885 66.5981 256.846 66.3963C256.743 66.4478 256.644 66.5036 256.541 66.5552C256.679 66.7054 256.816 66.8557 256.954 67.006C259.719 69.4408 257.637 71.4246 256.507 73.4472C255.199 73.679 255.978 71.3087 254.675 72.0988C253.785 72.6399 254.262 73.6576 254.701 74.555C255.539 76.2684 257.895 76.4187 258.446 78.3596C256.072 81.666 254.464 85.7197 249.984 86.9606C247.851 86.6944 245.847 86.1405 244.334 84.4744C245.254 83.5683 245.422 82.615 244.816 81.3998C243.883 79.5319 242.584 81.4814 241.552 80.979C241.539 80.7428 241.526 80.5023 241.513 80.2662C241.053 78.8148 242.188 78.0633 243.078 77.6468C245.19 76.6505 245.155 75.3623 244.076 73.6919C245.736 73.211 246.772 72.2921 245.744 70.5229C244.605 68.5691 245.542 67.1778 246.712 65.7693C248.156 65.4945 250.023 65.3829 249.421 63.2788C249.145 62.3083 247.855 61.0201 246.965 60.9685C245.25 60.8655 245.572 62.9395 244.91 64.0131C244.691 64.3652 245.061 65.0823 245.164 65.6319C243.25 66.7699 241.341 67.9035 239.428 69.0414C240.352 66.8214 243.113 65.224 241.746 62.2267C243.057 62.158 244.067 61.3078 244.02 60.1999C243.947 58.4737 242.382 61.1274 241.87 59.719C241.784 59.4828 241.324 59.384 241.036 59.2208C241.023 58.259 241.698 57.7523 242.36 57.237C245.297 56.8119 243.814 54.3041 244.248 52.3074C245.228 53.6858 245.71 55.6138 247.305 53.6042C248.819 54.0637 248.419 55.4635 248.728 56.507C248.333 57.3658 246.699 57.6793 247.387 58.9289C247.778 59.6374 248.711 60.4618 249.434 60.4962C251.82 60.6078 250.65 58.2976 251.381 57.2327C253.922 55.4292 251.334 53.5054 251.519 51.6461C250.775 51.8694 249.833 53.0889 249.36 51.8178C248.492 49.499 247.082 50.8431 245.817 50.9676C245.138 50.783 244.459 50.594 243.779 50.4094C246.071 45.8061 248.01 41.0053 250.999 36.78C252.478 34.6887 252.869 32.4086 252.731 29.9566C253.781 28.9304 252.903 27.8869 252.757 26.852C255.264 27.7323 255.152 25.7785 255.754 24.297C256.528 22.3862 255.049 23.1978 254.413 22.9616C254.034 21.4758 252.714 20.8317 251.631 20.076C250.56 19.3245 250.371 18.5687 250.921 17.4909C252.267 15.1635 251.906 12.5656 252.061 10.0579C252.069 9.93332 251.626 9.77874 251.317 9.63274C251.325 9.96338 251.334 10.2897 251.338 10.6204C250.96 10.4143 250.625 10.2124 250.689 9.99773C250.625 10.2124 250.964 10.4186 251.338 10.6204C251.33 10.2897 251.321 9.96338 251.317 9.63274C251.317 9.61986 251.317 9.60697 251.317 9.59838L251.205 9.58121C253.738 2.35426 258.214 -3.97522 261.61 -11.1807C260.179 -11.1249 259.891 -10.6311 259.547 -10.1544C257.164 -6.85226 254.404 -3.76481 253.05 0.151394C252.366 2.12667 250.22 2.48309 249.305 4.63442C247.941 7.8464 246.05 11.6166 241.608 12.2006C240.967 9.77444 241.586 7.58017 243.186 5.78094C244.351 4.47554 243.362 3.66396 242.846 2.73214C242.438 1.99785 241.69 1.98497 241.036 2.3972C240.112 2.9769 239.23 3.74984 239.97 4.93071C241.32 7.09493 239.613 8.29728 238.628 9.75297C236.414 9.82168 234.892 10.5688 235.274 13.1754C233.675 12.0374 231.611 9.13033 231.938 14.2961C232.015 15.5156 230.343 16.1125 228.954 15.8935C227.831 15.7175 226.735 15.404 225.626 15.1506C225.927 14.2575 227.006 13.0337 225.093 12.8275C223.145 12.6171 222.048 14.1716 221.605 15.6745C221.21 17.0186 222.599 16.3787 223.278 16.4389L223.39 16.6836C223.411 17.6026 223.433 18.5258 223.454 19.4447C220.505 20.2134 222.693 22.1328 222.534 23.5327C221.519 23.8075 220.505 24.0823 219.49 24.3529C219.726 23.3395 219.963 22.3218 220.195 21.3084C220.316 21.0507 220.586 20.7372 220.518 20.5483C220.328 20.0373 219.907 20.0845 219.499 20.3551C217.276 22.2101 217.503 25.5252 215.298 27.3888C210.804 27.2213 212.296 30.1842 212.602 32.5245C211.789 33.495 211.041 34.5341 210.151 35.423C208.835 36.7327 207.214 38.2442 205.413 36.7885C203.602 35.32 205.468 33.6796 205.984 32.1509C206.281 31.2749 206.836 30.9743 207.777 30.9056C208.624 30.8412 209.532 29.9438 208.981 29.2481C207.249 27.0495 208.384 24.9025 208.646 22.6996C208.732 21.9997 208.981 20.4667 207.335 21.6605C206.483 21.1022 206.573 20.179 206.432 19.3417C207.562 17.3149 208.788 15.3353 209.811 13.2569C213.105 6.57535 217.968 0.774036 220.694 -6.21674C222.1 -8.34661 223.381 -10.528 223.704 -13.1431C222.195 -11.5285 220.926 -9.79801 220.397 -7.63379C219.305 -7.01114 216.807 -7.36755 217.413 -5.57692C218.342 -2.833 216.42 -1.56195 215.495 0.275925C213.346 4.54425 209.772 7.70898 206.874 11.389C205.129 13.6048 203.465 15.7132 200.218 15.1979C199.905 14.6525 199.591 14.1115 199.272 13.5661C206.801 0.0268631 215.461 -12.8983 222.306 -27.4768C220.625 -26.9786 220.371 -26.137 219.98 -25.4542C216.218 -18.8929 212.421 -12.3487 208.745 -5.74009C203.129 4.36389 196.215 13.6477 190.264 23.537C190.032 23.9235 189.546 24.1854 189.387 24.5847C187.874 28.3764 183.557 29.6432 182.22 34.2164C180.031 41.6881 173.68 47.133 169.669 53.8189C167.179 57.967 163.92 61.7887 162.2 66.2159C160.772 69.9002 159.513 68.8181 157.397 67.5127C159.1 65.0522 160.635 62.5917 162.415 60.3201C166.616 54.9525 168.796 48.4642 172.408 42.7401C175.658 37.5872 178.406 32.0006 179.201 25.7527C181.256 23.6959 181.36 20.6814 182.834 18.3411C181.334 16.2972 184.774 12.3208 180.156 11.4448C180.113 11.4363 180.104 10.5302 180.298 10.1609C180.844 9.11745 180.194 8.36598 179.769 7.57587C177.976 4.23078 176.157 0.902859 174.351 -2.42935C168.478 -13.2805 162.6 -24.1274 156.705 -35C155.393 -34.2399 155.105 -33.0462 154.572 -32.0543C132.527 8.60216 110.495 49.2715 88.4676 89.9365C64.5824 134.037 40.7015 178.146 16.8164 222.246C8.49632 237.614 0.214982 253 -8.19965 268.317C-9.68737 271.027 -9.1327 271.654 -6.22606 271.503C-2.97114 271.34 0.305277 271.499 3.5688 271.521C4.66094 272.135 5.59828 272.079 6.28625 270.911C8.33723 271.405 10.4183 271.581 12.5166 271.448C14.0043 271.353 15.5823 271.885 16.9583 271.061C18.5363 270.112 17.758 268.317 17.9601 266.87C20.1831 267.604 18.6008 269.537 19.3446 270.743C23.2015 267.012 24.629 264.641 25.2869 261.107C25.317 260.957 25.6438 260.858 25.833 260.738C25.8287 260.742 25.7642 260.815 25.7642 260.815C25.7986 260.798 25.8244 260.79 25.8545 260.777C25.8459 260.764 25.8416 260.751 25.833 260.738C26.8004 259.78 24.6548 256.148 28.4859 257.642C28.5676 257.324 28.7826 256.976 28.7138 256.697C27.8023 253.133 32.2482 250.016 28.6149 246.13C31.5001 246.696 31.9171 248.35 32.5535 249.822C32.8158 250.432 32.8975 251.377 33.7918 251.244C34.626 251.119 34.7206 250.291 34.497 249.608C33.938 247.873 35.1849 247.688 36.3158 247.371C36.3158 247.371 36.5351 247.59 36.5308 247.59C36.6039 248.255 35.4042 249.342 36.8404 249.505C38.3969 249.685 38.8741 247.843 38.728 247.083C38.2292 244.425 39.7986 243.768 42.7568 243.403C40.2458 242.342 40.2802 240.925 40.8348 239.658C41.4411 238.28 42.5676 238.611 43.7157 239.229C44.9755 239.907 45.2421 238.791 45.6506 237.971C46.1622 236.949 45.4743 235.695 46.2611 234.737C46.2224 234.716 46.1837 234.686 46.145 234.664C46.1837 234.69 46.2224 234.716 46.2611 234.737L46.2654 234.742C48.1186 235.407 48.1659 233.982 48.3207 232.878C48.5486 231.272 48.5615 229.636 48.798 228.034C48.9657 226.879 49.8557 225.668 50.7716 227.021C53.3686 230.851 53.8932 227.193 54.177 225.96C54.822 223.156 54.8865 220.223 55.1874 217.342C55.4626 217.329 55.7421 217.312 56.0173 217.299C58.4811 216.711 58.0769 213.074 58.4252 213.078C62.9356 213.142 60.9362 207.843 63.8429 206.817C63.7397 202.274 67.6911 199.835 69.8023 196.653C72.1328 193.136 74.5579 189.718 76.3466 185.875C78.7286 180.756 80.2895 175.329 82.1942 170C83.0112 170.502 82.435 171.928 83.5358 171.919C84.4989 171.911 84.6408 170.85 84.9633 170.146C85.4019 169.197 85.7243 168.196 86.1328 167.23C87.9989 162.846 90.0413 159.917 92.8362 158.079C90.2176 164.675 89.0137 171.099 85.2944 176.664C79.8165 184.853 76.1187 193.995 71.8017 202.802C71.462 203.498 71.131 204.507 71.3846 205.13C72.236 207.195 71.2599 208.522 70.1291 210.094C69.1359 211.476 67.7642 213.387 70.7483 214.413C70.7655 214.761 70.7827 215.109 70.7999 215.457C67.9534 217.003 66.4528 219.545 65.4209 222.499C65.0898 223.452 64.3803 224.286 63.7913 225.136C60.7642 229.494 58.3693 234.055 59.0314 239.62C55.8367 238.8 55.0412 240.341 55.5443 243.158C55.8453 244.322 56.1463 245.481 56.5849 247.169C58.5198 244.309 60.4718 242.321 61.3834 239.585C61.8435 238.198 62.9786 237.005 64.6039 237.949C66.5087 239.057 65.58 240.496 64.6039 241.762C64.2513 242.218 63.83 242.634 63.3871 243.003C61.2415 244.773 60.2698 247.285 59.1346 249.685C57.0578 254.074 58.1242 259.36 55.5099 263.503C54.1297 265.693 55.5228 268.171 53.962 270.241C53.317 271.1 53.7255 271.405 60.1924 271.473C61.7059 271.49 63.2237 271.465 64.7372 271.478C65.3134 271.482 66.3238 271.392 66.4055 271.615C67.5708 274.823 69.0413 272.671 70.2495 271.8C72.58 270.125 72.881 273.491 74.6267 273.457C75.3963 273.44 76.0413 274.745 75.5726 275.389C73.6635 278.03 74.2827 281.547 72.3564 284.141C72.537 284.295 72.7133 284.45 72.8896 284.605C75.2974 283.754 75.736 285.296 75.8263 287.099C76.0542 291.608 74.7342 296.044 72.4897 299.582C69.0069 305.074 65.9025 310.82 61.9811 316.072C58.4381 320.812 55.5529 326.047 52.3969 331.071C51.6444 332.269 51.4509 333.592 52.7151 334.51C53.9276 335.386 55.1917 335.086 56.0603 333.836C61.3017 326.33 65.7477 318.287 70.2022 310.352C74.8417 302.077 84.0388 291.935 93.623 288.237C91.3914 292.574 89.3834 296.349 85.3589 298.603C85.1052 297.135 84.2065 296.98 83.2305 297.8C82.2071 298.663 81.5493 299.754 83.252 300.707C83.08 302.039 81.7514 302.021 80.9688 302.627C77.6408 305.19 77.6623 306.565 81.1451 309.214C80.7925 310.867 78.131 309.867 78.0708 311.992C77.9504 316.158 75.3748 319.455 72.8552 322.139C70.7698 324.355 70.7526 326.91 69.1445 329.16C71.1697 329.448 71.333 327.988 71.935 327.138C77.9977 318.558 83.4627 309.532 90.8583 301.944C91.5419 301.712 92.2256 301.485 92.9136 301.253C92.2299 301.485 91.5419 301.712 90.854 301.948C90.6003 303.361 89.8564 304.787 90.983 306.152C91.0174 307.067 90.9572 308.145 92.4062 307.535C93.4553 307.093 94.5131 306.835 95.6439 306.899C96.1685 308.531 94.0315 309.437 94.4916 311.056C95.8417 311.503 97.0972 311.842 96.8048 309.57C96.6629 308.463 96.6672 307.333 96.607 306.212C97.3079 306.315 97.7379 305.981 97.9744 305.332C98.2066 305.371 98.4387 305.409 98.6752 305.448C100.064 307.26 101.81 307.548 103.723 306.285C104.08 306.539 104.437 306.792 104.794 307.045C105.955 307.672 107.081 307.943 108.203 306.796C107.068 305.8 106.105 306.431 105.142 306.728C104.953 305.83 104.781 304.916 103.5 305.573C103.035 305.534 102.567 305.495 102.098 305.461C103.233 304.143 104.368 302.824 105.503 301.506C106.518 300.312 109.055 301.596 109.317 299.17C110.121 298.38 111.618 298.93 112.387 297.491C111.188 297.156 109.992 297.629 109.515 295.503C109.012 293.24 111.067 293.133 111.037 292.566C110.861 289.118 112.839 290.208 114.645 290.436C115.294 290.518 116.364 290.938 116.691 289.775C116.962 288.8 116.459 288.255 115.526 288.031L115.444 287.958C115.44 287.731 115.449 287.507 115.479 287.28C116.39 286.146 118.028 285.622 118.278 283.939C119.215 284.24 119.632 283.385 120.277 283.037C121.154 283.746 122.032 284.454 122.909 285.163C123.511 285.944 123.102 286.734 122.861 287.482C121.004 293.279 117.715 298.298 114.223 303.198C113.552 304.138 112.486 304.907 113.17 306.238C113.737 307.337 114.739 308.072 115.947 308.106C117.362 308.149 117.865 306.942 118.213 305.813C118.764 304.035 119.155 302.318 121.554 301.978C122.737 301.811 123.524 300.441 123.184 299.252C122.229 295.911 124.199 294.047 126.366 292.205C126.89 291.759 127.772 291.415 127.901 290.883C129.221 285.468 133.839 283.918 138.151 282.045C140.46 281.045 142.215 279.456 143.917 277.644C147.284 274.08 151.403 271.984 156.787 271.808C154.533 278.795 151.274 285.043 149.537 291.814C150.393 292.046 150.784 291.939 151.145 291.548C151.481 291.187 151.631 290.496 152.353 290.689C153.201 291.81 150.801 293.682 153.05 294.249C154.693 294.666 155.127 292.759 156.034 291.84C158.081 289.779 158.076 285.751 162.131 285.554C162.355 285.541 162.767 284.523 162.681 284.046C162.402 282.539 162.957 281.083 162.041 279.439C161.116 277.781 161.237 274.144 162.608 273.792C166.186 272.869 166.495 270.292 167.373 267.707C167.686 266.784 168.013 265.728 169.398 265.62C170.903 265.5 170.976 266.745 171.47 267.548C172.008 268.429 172.416 269.395 172.803 270.357C173.001 270.842 172.807 271.873 173.521 271.645C175.714 270.941 178.866 271.894 179.825 268.918C181.11 264.929 183.604 261.313 183.428 256.848C183.329 254.43 183.544 251.982 183.802 249.569C183.94 248.294 184.873 247.401 186.24 247.624C187.513 247.83 187.65 248.972 187.706 250.072C187.796 251.785 186.838 253.189 186.408 254.748C186.098 255.864 185.827 257.118 186.76 258.059C187.71 259.02 188.691 258.08 189.671 257.887C192.32 257.363 193.924 255.688 194.753 253.279C196.749 247.499 202.046 243.605 203.645 237.614C203.701 237.4 203.886 237.215 204.032 237.035C205.258 235.532 206.72 234.682 208.586 235.811C210.499 236.975 210.319 238.709 209.441 240.401C208.569 242.085 207.107 243.261 205.632 244.433C202.734 246.735 200.721 249.526 199.991 253.326C199.307 256.873 197.329 260.068 197.415 263.92C197.454 265.633 197.591 267.866 196.822 269.193C195.325 271.778 197.037 271.409 198.361 271.439C201.861 271.508 205.37 271.297 208.857 271.508C211.097 271.645 212.107 270.979 212.752 268.768C214.064 264.276 215.035 259.437 217.46 255.568C220.922 250.08 223.257 244.004 227.242 238.821ZM226.266 92.5C226.266 92.5172 226.258 92.5344 226.258 92.5558C226.258 92.5387 226.266 92.5215 226.266 92.5ZM233.993 99.2804L233.967 99.2976C233.963 99.3018 233.963 99.3018 233.959 99.3062C233.954 99.3104 233.993 99.2761 233.993 99.2804C234.47 98.9712 234.857 98.5933 235.102 98.1081C234.857 98.5976 234.47 98.9755 233.993 99.2804ZM238.314 93.6337C238.319 94.5054 238.031 95.2053 237.472 95.7592C238.031 95.2096 238.323 94.5054 238.314 93.6337C239.179 93.5993 240.047 93.5692 240.911 93.5349C240.047 93.5692 239.179 93.6036 238.314 93.6337ZM247.98 116.886C247.98 116.895 247.976 116.899 247.976 116.908C247.976 116.899 247.976 116.895 247.98 116.886ZM247.89 117.376C247.886 117.41 247.877 117.444 247.873 117.479C247.873 117.444 247.886 117.41 247.89 117.376ZM242.876 84.3928L242.894 84.41C242.885 84.4057 242.881 84.3971 242.876 84.3928ZM222.702 23.7345C222.99 23.9449 223.274 24.151 223.562 24.3615C223.721 24.5504 223.88 24.7393 224.039 24.924C223.88 24.735 223.721 24.5461 223.562 24.3615C223.278 24.151 222.99 23.9406 222.702 23.7345C222.702 23.7345 222.685 23.7088 222.659 23.683L222.702 23.7345ZM29.1954 217.514C29.2943 217.432 29.3932 217.346 29.4921 217.265C29.3932 217.346 29.29 217.432 29.1954 217.514ZM101.827 293.781C101.827 293.781 101.827 293.777 101.831 293.777C101.831 293.781 101.827 293.781 101.827 293.781ZM96.5942 306.174C96.5942 306.178 96.5942 306.178 96.5942 306.182C96.5899 306.182 96.5942 306.178 96.5942 306.174ZM105.877 297.062C105.641 296.357 105.718 295.546 105.387 294.872C105.718 295.546 105.637 296.357 105.877 297.062ZM192.874 240.191C192.38 241.174 192.169 242.299 192.195 243.536C192.169 242.299 192.376 241.174 192.874 240.191ZM195.269 237.687C195.265 237.687 195.265 237.687 195.269 237.687C195.274 237.666 195.282 237.64 195.291 237.619C195.282 237.644 195.274 237.666 195.269 237.687C195.291 237.675 195.304 237.662 195.325 237.649C195.304 237.662 195.287 237.675 195.269 237.687ZM205.163 23.6615C205.146 23.5756 205.129 23.4898 205.107 23.4082C205.129 23.4898 205.15 23.5756 205.163 23.6615ZM205.021 23.1333C204.995 23.0689 204.97 23.0045 204.935 22.9487C204.965 23.0045 204.995 23.0689 205.021 23.1333ZM205.15 24.5504C205.167 24.5332 205.185 24.5203 205.202 24.5032C205.185 24.5203 205.167 24.5375 205.15 24.5504ZM204.755 22.7082C204.716 22.6696 204.682 22.6309 204.639 22.5966C204.682 22.6309 204.72 22.6696 204.755 22.7082ZM204.557 22.5494C204.518 22.5236 204.479 22.4978 204.436 22.4806C204.479 22.5021 204.518 22.5279 204.557 22.5494ZM204.295 22.4377C204.26 22.4248 204.226 22.4119 204.183 22.4076C204.226 22.4119 204.26 22.4291 204.295 22.4377Z" fill="#27AD9B"/>
<path fill-rule="evenodd" clip-rule="evenodd" d="M69.0842 278.322C67.4503 277.382 67.992 279.417 67.5664 280.122C65.1757 284.081 65.8551 288.997 63.5547 293.103C65.8981 290.603 67.1493 287.404 69.6646 285.103C70.602 284.244 70.9288 282.711 71.2685 281.328C71.7543 279.34 69.9226 278.803 69.0842 278.322Z" fill="#27AD9B"/>
<path fill-rule="evenodd" clip-rule="evenodd" d="M260.092 54.7893C260.058 56.2836 261.589 55.7469 262.552 55.807L262.56 55.8241C262.578 57.0823 263.111 58.7055 262.522 59.5342C260.32 62.6217 262.75 62.8364 264.646 63.4977C264.087 61.7843 264.564 60.3931 265.837 59.1349C267.54 57.4559 266.516 55.1929 266.091 53.6385C265.695 52.1914 263.756 53.3422 262.616 54.1366C262.526 54.201 262.397 54.201 262.29 54.2482C261.559 54.5531 260.127 53.2735 260.092 54.7893Z" fill="#27AD9B"/>
<path fill-rule="evenodd" clip-rule="evenodd" d="M286.583 14.0728C282.176 16.8639 277.738 19.6035 275.008 24.2154C279.871 21.9653 282.988 17.7227 286.583 14.0728Z" fill="#27AD9B"/>
<path fill-rule="evenodd" clip-rule="evenodd" d="M111.785 309.222C109.541 309.278 109.279 311.498 108.896 312.976C108.539 314.358 109.777 315.784 111.278 315.771C113.759 315.754 113.226 313.392 113.819 311.687C113.802 310.468 113.338 309.18 111.785 309.222Z" fill="#27AD9B"/>
<path fill-rule="evenodd" clip-rule="evenodd" d="M165.154 295.872C166.93 292.918 168.947 290.058 169.003 285.708C165.537 288.731 165.447 292.343 165.154 295.872Z" fill="#27AD9B"/>
<path fill-rule="evenodd" clip-rule="evenodd" d="M254.485 47.9747C255.005 47.1502 254.107 46.7681 253.458 46.5834C252.503 46.3129 252.417 46.8754 252.344 47.7085C252.223 49.0139 251.845 50.2935 251.574 51.586C253.836 51.4615 253.664 49.2758 254.485 47.9747Z" fill="#27AD9B"/>
<path fill-rule="evenodd" clip-rule="evenodd" d="M251.575 51.5903C251.554 51.5903 251.541 51.5946 251.52 51.5946C251.52 51.6075 251.52 51.6247 251.52 51.6376C251.537 51.6333 251.554 51.6247 251.571 51.6204C251.567 51.6118 251.571 51.5989 251.575 51.5903Z" fill="#27AD9B"/>
<path fill-rule="evenodd" clip-rule="evenodd" d="M105.4 310.365C104.334 308.849 102.313 309.927 100.847 309.244C100.499 310.056 101.376 310.416 101.505 311.056C101.466 311.134 101.427 311.211 101.389 311.288C101.427 311.211 101.466 311.138 101.505 311.056C101.896 311.28 102.395 311.417 102.653 311.748C103.121 312.344 102.838 313.981 104.343 313.006C105.228 312.43 106.045 311.284 105.4 310.365Z" fill="#27AD9B"/>
<path fill-rule="evenodd" clip-rule="evenodd" d="M97.6946 322.234C96.8131 322.513 96.1251 323.101 96.1552 324.14C96.181 325.042 96.783 325.69 97.7032 325.613C98.7265 325.523 99.3457 324.806 99.3199 323.749C99.3027 322.809 98.7093 322.324 97.6946 322.234Z" fill="#27AD9B"/>
<path fill-rule="evenodd" clip-rule="evenodd" d="M237.458 8.06958C238.047 7.71317 238.507 6.966 238.442 6.04277C238.391 5.30848 237.81 4.80178 237.036 4.88337C236.103 4.98642 235.699 5.70354 235.699 6.56665C235.699 7.45982 236.095 8.09105 237.458 8.06958Z" fill="#27AD9B"/>
<path fill-rule="evenodd" clip-rule="evenodd" d="M257.87 111.411C257.259 112.133 257.569 113.416 258.752 113.97C261.146 115.095 259.594 111.677 261.353 112.029C260.102 111.368 258.902 110.2 257.87 111.411Z" fill="#27AD9B"/>
<path fill-rule="evenodd" clip-rule="evenodd" d="M94.475 311.086C94.4922 311.082 94.5137 311.082 94.5309 311.078C94.5266 311.065 94.5266 311.052 94.5223 311.039C94.5051 311.035 94.4879 311.026 94.4707 311.022C94.4707 311.043 94.4707 311.065 94.475 311.086Z" fill="#27AD9B"/>
<path fill-rule="evenodd" clip-rule="evenodd" d="M93.8515 313.422C94.8576 313.07 94.561 311.962 94.475 311.086C93.5204 311.219 92.5659 311.357 91.6113 311.486C92.5272 312.074 92.4627 313.903 93.8515 313.422Z" fill="#27AD9B"/>
<path fill-rule="evenodd" clip-rule="evenodd" d="M107.54 321.358C106.048 322.362 105.128 323.724 104.879 325.519C106.423 324.608 107.089 323.062 107.859 321.594C108.916 321.078 109.733 320.404 109.686 318.871C107.996 319.108 107.781 320.245 107.54 321.358Z" fill="#27AD9B"/>
<path fill-rule="evenodd" clip-rule="evenodd" d="M249.275 71.5235C249.391 71.7812 249.735 72.0259 250.023 72.1032C250.423 72.2106 250.655 72.0173 250.225 71.2874C250.127 71.2101 249.787 70.9438 249.447 70.6819C249.378 70.9696 249.181 71.3131 249.275 71.5235Z" fill="#27AD9B"/>
<path fill-rule="evenodd" clip-rule="evenodd" d="M256.326 127.643C256.308 127.926 256.455 128.218 256.571 128.673C256.867 128.291 257.143 128.072 257.22 127.797C257.293 127.54 257.229 127.025 257.091 126.969C256.536 126.754 256.351 127.209 256.326 127.643Z" fill="#27AD9B"/>
<path fill-rule="evenodd" clip-rule="evenodd" d="M265.72 64.086C265.38 63.9056 265.04 63.721 264.705 63.5449C264.989 63.8154 265.273 64.086 265.552 64.3522C265.608 64.262 265.664 64.1762 265.72 64.086Z" fill="#27AD9B"/>
<path fill-rule="evenodd" clip-rule="evenodd" d="M264.706 63.5406C264.693 63.5278 264.676 63.5106 264.663 63.4977C264.659 63.4934 264.655 63.4934 264.65 63.4934C264.65 63.4977 264.65 63.5063 264.655 63.5106C264.668 63.5235 264.685 63.5321 264.706 63.5406Z" fill="#27AD9B"/>
<path fill-rule="evenodd" clip-rule="evenodd" d="M72.305 285.485C72.6748 285.67 72.9026 285.047 72.9155 284.596C72.7393 284.442 72.5587 284.287 72.3824 284.132C72.047 284.579 71.6557 285.163 72.305 285.485Z" fill="#27AD9B"/>
<path fill-rule="evenodd" clip-rule="evenodd" d="M26.3707 261.219C26.3449 260.875 26.2288 260.644 25.8633 260.777C25.9966 261.021 26.1256 261.266 26.2589 261.515C26.3019 261.416 26.3793 261.313 26.3707 261.219Z" fill="#27AD9B"/>
<path fill-rule="evenodd" clip-rule="evenodd" d="M255.088 124.01L254.898 123.907L254.877 124.066L255.088 124.01Z" fill="#27AD9B"/>
</svg>
