<svg width="212" height="221" viewBox="0 0 212 221" fill="none" xmlns="http://www.w3.org/2000/svg">
<g clip-path="url(#clip0_2969_10223)">
<path d="M63.5743 224.121C68.446 224.607 72.7944 221.006 73.2373 216.11C73.7205 211.214 70.1371 206.844 65.2653 206.399C60.3935 205.913 56.0451 209.514 55.6022 214.41C55.1191 219.306 58.7025 223.676 63.5743 224.121Z" fill="#27AD9B"/>
<path d="M31.8868 203.202C36.7586 203.688 41.1069 200.087 41.5498 195.191C42.033 190.295 38.4496 185.925 33.5778 185.48C28.706 184.994 24.3576 188.596 23.9147 193.491C23.4316 198.387 27.015 202.717 31.8868 203.202Z" fill="#27AD9B"/>
<path d="M109.594 171.561C112.855 171.885 115.714 169.457 116.036 166.22C116.358 162.942 113.942 160.069 110.721 159.746C107.46 159.422 104.601 161.85 104.279 165.087C103.957 168.364 106.333 171.278 109.594 171.561Z" fill="#27AD9B"/>
<path d="M125.981 176.457C129.242 176.78 132.101 174.353 132.423 171.116C132.745 167.838 130.329 164.965 127.108 164.642C123.847 164.318 120.988 166.746 120.666 169.983C120.344 173.22 122.719 176.133 125.981 176.457Z" fill="#27AD9B"/>
<path d="M153.32 145.989C156.582 146.312 159.44 143.884 159.763 140.647C160.085 137.37 157.669 134.497 154.448 134.174C151.187 133.85 148.328 136.278 148.006 139.515C147.684 142.752 150.059 145.665 153.32 145.989Z" fill="#27AD9B"/>
<path d="M103.998 209.838C107.259 210.162 110.118 207.734 110.44 204.497C110.762 201.22 108.347 198.347 105.126 198.023C101.864 197.699 99.0056 200.127 98.6835 203.364C98.3614 206.642 100.737 209.514 103.998 209.838Z" fill="#27AD9B"/>
<path d="M62.0842 181.959C65.3454 182.283 68.2041 179.855 68.5262 176.618C68.8483 173.341 66.4325 170.468 63.2115 170.144C59.9502 169.821 57.0916 172.248 56.7695 175.485C56.4474 178.722 58.8229 181.636 62.0842 181.959Z" fill="#27AD9B"/>
<path d="M20.2521 173.989C23.5134 174.312 26.3721 171.884 26.6942 168.647C27.0163 165.37 24.6005 162.497 21.3795 162.174C18.1182 161.85 15.2595 164.278 14.9374 167.515C14.6153 170.752 16.9908 173.665 20.2521 173.989Z" fill="#27AD9B"/>
<path d="M12.6818 212.064C15.9431 212.387 18.8017 209.96 19.1238 206.723C19.4459 203.445 17.0302 200.572 13.8092 200.249C10.5479 199.925 7.64897 202.312 7.36713 205.59C7.04503 208.867 9.42053 211.74 12.6818 212.064Z" fill="#27AD9B"/>
<path d="M84.3105 218.902C86.4847 219.104 88.4173 217.526 88.6186 215.341C88.8199 213.156 87.2497 211.214 85.0755 211.012C82.9013 210.809 80.9687 212.387 80.7674 214.572C80.5661 216.757 82.1363 218.699 84.3105 218.902Z" fill="#27AD9B"/>
<path d="M23.1503 226.994C25.3245 227.197 27.2571 225.619 27.4585 223.434C27.6598 221.249 26.0895 219.306 23.9153 219.104C21.7411 218.902 19.8085 220.48 19.6072 222.665C19.4059 224.85 20.9762 226.792 23.1503 226.994Z" fill="#27AD9B"/>
<path d="M79.3576 166.705C82.6189 167.029 85.4775 164.601 85.7996 161.364C86.1217 158.087 83.706 155.214 80.4849 154.89C77.2237 154.567 74.365 156.994 74.0429 160.231C73.7208 163.468 76.0963 166.382 79.3576 166.705Z" fill="#27AD9B"/>
<path d="M75.008 202.11C78.2693 202.434 81.1279 200.006 81.45 196.769C81.7721 193.491 79.3564 190.619 76.1353 190.295C72.8741 189.971 70.0154 192.399 69.6933 195.636C69.3712 198.873 71.7467 201.786 75.008 202.11Z" fill="#27AD9B"/>
<path d="M52.1799 202.879C55.4411 203.202 58.2998 200.775 58.6219 197.538C58.944 194.26 56.5282 191.387 53.3072 191.064C50.0459 190.74 47.1873 193.168 46.8652 196.405C46.5431 199.682 48.9186 202.595 52.1799 202.879Z" fill="#27AD9B"/>
<path d="M102.026 230.555C105.287 230.879 108.145 228.451 108.468 225.214C108.79 221.936 106.374 219.064 103.153 218.74C99.8916 218.416 97.033 220.844 96.7109 224.081C96.3888 227.358 98.7643 230.231 102.026 230.555Z" fill="#27AD9B"/>
<path d="M146.113 222.017C148.287 222.22 150.22 220.642 150.421 218.457C150.623 216.272 149.052 214.329 146.878 214.127C144.704 213.925 142.771 215.503 142.57 217.688C142.369 219.873 143.939 221.815 146.113 222.017Z" fill="#27AD9B"/>
<path d="M134.276 203.769C136.45 203.971 138.383 202.393 138.584 200.208C138.786 198.023 137.215 196.081 135.041 195.879C132.867 195.676 130.934 197.254 130.733 199.439C130.491 201.624 132.102 203.566 134.276 203.769Z" fill="#27AD9B"/>
<path d="M120.385 214.41C122.559 214.613 124.492 213.035 124.693 210.85C124.894 208.665 123.324 206.722 121.15 206.52C118.976 206.318 117.043 207.896 116.842 210.081C116.64 212.266 118.211 214.208 120.385 214.41Z" fill="#27AD9B"/>
<path d="M45.8581 175.445C48.0323 175.648 49.9649 174.07 50.1662 171.885C50.3676 169.7 48.7973 167.757 46.6231 167.555C44.4489 167.353 42.5163 168.931 42.315 171.116C42.0734 173.301 43.684 175.202 45.8581 175.445Z" fill="#27AD9B"/>
<path d="M42.7187 218.902C44.8929 219.104 46.8255 217.526 47.0268 215.341C47.2281 213.156 45.6579 211.214 43.4837 211.012C41.3095 210.809 39.3769 212.387 39.1756 214.572C38.9743 216.757 40.5445 218.699 42.7187 218.902Z" fill="#27AD9B"/>
<path d="M115.754 190.052C117.928 190.254 119.861 188.676 120.062 186.491C120.263 184.307 118.693 182.364 116.519 182.162C114.345 181.96 112.412 183.538 112.211 185.723C112.009 187.948 113.58 189.85 115.754 190.052Z" fill="#27AD9B"/>
<path d="M146.113 185.601C148.287 185.804 150.22 184.226 150.421 182.041C150.623 179.856 149.052 177.913 146.878 177.711C144.704 177.509 142.771 179.087 142.57 181.272C142.369 183.457 143.939 185.399 146.113 185.601Z" fill="#27AD9B"/>
<path d="M93.5691 183.983C95.7433 184.185 97.6759 182.607 97.8772 180.422C98.0785 178.237 96.5083 176.295 94.3341 176.092C92.1599 175.89 90.2273 177.468 90.026 179.653C89.7844 181.838 91.3949 183.78 93.5691 183.983Z" fill="#27AD9B"/>
<path d="M133.47 151.289C135.644 151.491 137.577 149.913 137.778 147.728C137.98 145.543 136.409 143.601 134.235 143.399C132.061 143.196 130.128 144.775 129.927 146.96C129.726 149.144 131.336 151.087 133.47 151.289Z" fill="#27AD9B"/>
<path d="M198.496 213.925C198.496 217.202 201.153 219.873 204.415 219.873C207.676 219.873 210.333 217.202 210.333 213.925C210.333 210.647 207.676 207.977 204.415 207.977C201.153 207.977 198.496 210.647 198.496 213.925Z" fill="#27AD9B"/>
<path d="M160.045 188.15C160.045 191.428 162.702 194.098 165.964 194.098C169.225 194.098 171.882 191.428 171.882 188.15C171.882 184.873 169.225 182.202 165.964 182.202C162.702 182.202 160.045 184.873 160.045 188.15Z" fill="#27AD9B"/>
<path d="M165.963 166.382C165.963 169.659 168.62 172.33 171.881 172.33C175.143 172.33 177.8 169.659 177.8 166.382C177.8 163.104 175.143 160.434 171.881 160.434C168.62 160.434 165.963 163.104 165.963 166.382Z" fill="#27AD9B"/>
<path d="M179.774 220.844C181.953 220.844 183.72 219.069 183.72 216.879C183.72 214.689 181.953 212.913 179.774 212.913C177.595 212.913 175.828 214.689 175.828 216.879C175.828 219.069 177.595 220.844 179.774 220.844Z" fill="#27AD9B"/>
<path d="M210.332 157.439C212.512 157.439 214.278 155.664 214.278 153.474C214.278 151.284 212.512 149.509 210.332 149.509C208.153 149.509 206.387 151.284 206.387 153.474C206.387 155.664 208.153 157.439 210.332 157.439Z" fill="#27AD9B"/>
<path d="M179.773 180.22C179.773 182.405 181.545 184.185 183.719 184.185C185.893 184.185 187.665 182.405 187.665 180.22C187.665 178.035 185.893 176.254 183.719 176.254C181.545 176.254 179.773 178.035 179.773 180.22Z" fill="#27AD9B"/>
<path d="M192.578 177.266C192.578 182.202 196.564 186.167 201.436 186.167C206.348 186.167 210.294 182.162 210.294 177.266C210.294 172.329 206.308 168.364 201.436 168.364C196.564 168.364 192.578 172.329 192.578 177.266Z" fill="#27AD9B"/>
<path d="M178.043 197.538C178.043 200.815 180.7 203.486 183.962 203.486C187.223 203.486 189.88 200.815 189.88 197.538C189.88 194.26 187.223 191.59 183.962 191.59C180.7 191.59 178.043 194.26 178.043 197.538Z" fill="#27AD9B"/>
<path d="M158.072 217.89C158.072 221.168 160.73 223.838 163.991 223.838C167.252 223.838 169.91 221.168 169.91 217.89C169.91 214.613 167.252 211.942 163.991 211.942C160.73 211.942 158.072 214.613 158.072 217.89Z" fill="#27AD9B"/>
<path d="M182.713 159.422C182.713 162.699 185.37 165.37 188.631 165.37C191.893 165.37 194.55 162.699 194.55 159.422C194.55 156.144 191.893 153.474 188.631 153.474C185.37 153.474 182.713 156.144 182.713 159.422Z" fill="#27AD9B"/>
<path d="M203.69 201.503C205.869 201.503 207.636 199.728 207.636 197.538C207.636 195.348 205.869 193.572 203.69 193.572C201.511 193.572 199.744 195.348 199.744 197.538C199.744 199.728 201.511 201.503 203.69 201.503Z" fill="#27AD9B"/>
<path d="M153.161 163.387C155.34 163.387 157.106 161.612 157.106 159.422C157.106 157.232 155.34 155.457 153.161 155.457C150.981 155.457 149.215 157.232 149.215 159.422C149.215 161.612 150.981 163.387 153.161 163.387Z" fill="#27AD9B"/>
<path d="M196.523 134.659C196.523 136.844 198.295 138.624 200.469 138.624C202.643 138.624 204.415 136.844 204.415 134.659C204.415 132.474 202.643 130.694 200.469 130.694C198.295 130.694 196.523 132.474 196.523 134.659Z" fill="#27AD9B"/>
<path d="M150.221 205.023C152.4 205.023 154.167 203.248 154.167 201.058C154.167 198.868 152.4 197.093 150.221 197.093C148.042 197.093 146.275 198.868 146.275 201.058C146.275 203.248 148.042 205.023 150.221 205.023Z" fill="#27AD9B"/>
<path d="M184.725 62.9596C184.725 67.896 188.711 71.8613 193.582 71.8613C198.494 71.8613 202.44 67.8556 202.44 62.9596C202.44 58.0636 198.454 54.0579 193.582 54.0579C188.67 54.0579 184.725 58.0232 184.725 62.9596Z" fill="#27AD9B"/>
<path d="M171.156 133.728C171.156 138.665 175.142 142.63 180.014 142.63C184.926 142.63 188.872 138.624 188.872 133.728C188.872 128.792 184.886 124.827 180.014 124.827C175.142 124.827 171.156 128.792 171.156 133.728Z" fill="#27AD9B"/>
<path d="M202.441 29.2543C202.441 34.1907 206.427 38.156 211.299 38.156C216.211 38.156 220.157 34.1502 220.157 29.2543C220.157 24.3583 216.171 20.3525 211.299 20.3525C206.427 20.3525 202.441 24.3583 202.441 29.2543Z" fill="#27AD9B"/>
<path d="M170.191 83.2312C170.191 86.5086 172.849 89.1792 176.11 89.1792C179.371 89.1792 182.029 86.5086 182.029 83.2312C182.029 79.9537 179.371 77.2832 176.11 77.2832C172.808 77.2832 170.191 79.9133 170.191 83.2312Z" fill="#27AD9B"/>
<path d="M202.684 102.046C202.684 105.324 205.341 107.994 208.602 107.994C211.863 107.994 214.521 105.324 214.521 102.046C214.521 98.7687 211.863 96.0981 208.602 96.0981C205.341 96.0981 202.684 98.7687 202.684 102.046Z" fill="#27AD9B"/>
<path d="M131.74 57.4568C131.74 60.7342 134.398 63.4047 137.659 63.4047C140.92 63.4047 143.577 60.7342 143.577 57.4568C143.577 54.1793 140.92 51.5088 137.659 51.5088C134.357 51.5088 131.74 54.1793 131.74 57.4568Z" fill="#27AD9B"/>
<path d="M137.658 35.6474C137.658 38.9249 140.316 41.5954 143.577 41.5954C146.838 41.5954 149.495 38.9249 149.495 35.6474C149.495 32.37 146.838 29.6995 143.577 29.6995C140.275 29.6995 137.658 32.37 137.658 35.6474Z" fill="#27AD9B"/>
<path d="M191.852 10.8845C191.852 14.162 194.509 16.8325 197.77 16.8325C201.031 16.8325 203.689 14.162 203.689 10.8845C203.689 7.60704 201.031 4.93652 197.77 4.93652C194.509 4.93652 191.852 7.60704 191.852 10.8845Z" fill="#27AD9B"/>
<path d="M195.797 87.1965C197.976 87.1965 199.743 85.4212 199.743 83.2312C199.743 81.0412 197.976 79.2659 195.797 79.2659C193.618 79.2659 191.852 81.0412 191.852 83.2312C191.852 85.4212 193.618 87.1965 195.797 87.1965Z" fill="#27AD9B"/>
<path d="M151.428 90.1504C153.607 90.1504 155.374 88.375 155.374 86.185C155.374 83.9951 153.607 82.2197 151.428 82.2197C149.249 82.2197 147.482 83.9951 147.482 86.185C147.482 88.375 149.249 90.1504 151.428 90.1504Z" fill="#27AD9B"/>
<path d="M155.373 125.798C157.553 125.798 159.319 124.022 159.319 121.832C159.319 119.642 157.553 117.867 155.373 117.867C153.194 117.867 151.428 119.642 151.428 121.832C151.428 124.022 153.194 125.798 155.373 125.798Z" fill="#27AD9B"/>
<path d="M181.987 26.7456C184.166 26.7456 185.933 24.9702 185.933 22.7803C185.933 20.5903 184.166 18.8149 181.987 18.8149C179.808 18.8149 178.041 20.5903 178.041 22.7803C178.041 24.9702 179.808 26.7456 181.987 26.7456Z" fill="#27AD9B"/>
<path d="M155.373 53.4914C157.553 53.4914 159.319 51.7161 159.319 49.5261C159.319 47.3361 157.553 45.5608 155.373 45.5608C153.194 45.5608 151.428 47.3361 151.428 49.5261C151.428 51.7161 153.194 53.4914 155.373 53.4914Z" fill="#27AD9B"/>
<path d="M164.271 46.5722C164.271 51.5086 168.257 55.4739 173.129 55.4739C178.041 55.4739 181.987 51.4682 181.987 46.5722C181.987 41.6358 178.001 37.6705 173.129 37.6705C168.217 37.63 164.271 41.6358 164.271 46.5722Z" fill="#27AD9B"/>
<path d="M158.354 105C158.354 109.936 162.34 113.902 167.211 113.902C172.083 113.902 176.069 109.896 176.069 105C176.069 100.063 172.083 96.0981 167.211 96.0981C162.34 96.0981 158.354 100.063 158.354 105Z" fill="#27AD9B"/>
<path d="M149.697 66.8034C149.697 70.0809 152.355 72.7514 155.616 72.7514C158.877 72.7514 161.534 70.0809 161.534 66.8034C161.534 63.526 158.877 60.8555 155.616 60.8555C152.355 60.8555 149.697 63.526 149.697 66.8034Z" fill="#27AD9B"/>
<path d="M129.768 87.156C129.768 90.4334 132.425 93.104 135.686 93.104C138.947 93.104 141.605 90.4334 141.605 87.156C141.605 83.8785 138.947 81.208 135.686 81.208C132.425 81.2485 129.768 83.8785 129.768 87.156Z" fill="#27AD9B"/>
<path d="M207.635 72.3064C207.635 75.5838 210.292 78.2544 213.553 78.2544C216.815 78.2544 219.472 75.5838 219.472 72.3064C219.472 69.0289 216.815 66.3584 213.553 66.3584C210.292 66.3584 207.635 69.0289 207.635 72.3064Z" fill="#27AD9B"/>
<path d="M204.656 49.5261C204.656 52.8036 207.314 55.4741 210.575 55.4741C213.836 55.4741 216.493 52.8036 216.493 49.5261C216.493 46.2486 213.836 43.5781 210.575 43.5781C207.314 43.5781 204.656 46.2486 204.656 49.5261Z" fill="#27AD9B"/>
<path d="M154.408 28.7282C154.408 32.0057 157.066 34.6762 160.327 34.6762C163.588 34.6762 166.245 32.0057 166.245 28.7282C166.245 25.4508 163.588 22.7803 160.327 22.7803C157.066 22.7803 154.408 25.4508 154.408 28.7282Z" fill="#27AD9B"/>
<path d="M181.988 102.046C181.988 105.324 184.646 107.994 187.907 107.994C191.168 107.994 193.826 105.324 193.826 102.046C193.826 98.7687 191.168 96.0981 187.907 96.0981C184.646 96.0981 181.988 98.7687 181.988 102.046Z" fill="#27AD9B"/>
<path d="M175.344 70.7688C177.523 70.7688 179.29 68.9934 179.29 66.8035C179.29 64.6135 177.523 62.8381 175.344 62.8381C173.165 62.8381 171.398 64.6135 171.398 66.8035C171.398 68.9934 173.165 70.7688 175.344 70.7688Z" fill="#27AD9B"/>
<path d="M215.526 135.711C217.705 135.711 219.472 133.936 219.472 131.746C219.472 129.556 217.705 127.78 215.526 127.78C213.347 127.78 211.58 129.556 211.58 131.746C211.58 133.936 213.347 135.711 215.526 135.711Z" fill="#27AD9B"/>
<path d="M203.69 122.844C205.869 122.844 207.636 121.069 207.636 118.879C207.636 116.689 205.869 114.913 203.69 114.913C201.511 114.913 199.744 116.689 199.744 118.879C199.744 121.069 201.511 122.844 203.69 122.844Z" fill="#27AD9B"/>
<path d="M124.815 32.6936C126.994 32.6936 128.761 30.9182 128.761 28.7283C128.761 26.5383 126.994 24.7629 124.815 24.7629C122.636 24.7629 120.869 26.5383 120.869 28.7283C120.869 30.9182 122.636 32.6936 124.815 32.6936Z" fill="#27AD9B"/>
<path d="M187.906 41.5954C187.906 43.7804 189.678 45.5608 191.852 45.5608C194.026 45.5608 195.798 43.7804 195.798 41.5954C195.798 39.4105 194.026 37.6301 191.852 37.6301C189.678 37.6301 187.906 39.4105 187.906 41.5954Z" fill="#27AD9B"/>
<path d="M172.123 7.93064C174.303 7.93064 176.069 6.1553 176.069 3.96532C176.069 1.77533 174.303 0 172.123 0C169.944 0 168.178 1.77533 168.178 3.96532C168.178 6.1553 169.944 7.93064 172.123 7.93064Z" fill="#27AD9B"/>
<path d="M121.875 74.289C124.055 74.289 125.821 72.5137 125.821 70.3237C125.821 68.1337 124.055 66.3584 121.875 66.3584C119.696 66.3584 117.93 68.1337 117.93 70.3237C117.93 72.5137 119.696 74.289 121.875 74.289Z" fill="#27AD9B"/>
<path d="M142.571 110.948C144.75 110.948 146.516 109.173 146.516 106.983C146.516 104.793 144.75 103.017 142.571 103.017C140.392 103.017 138.625 104.793 138.625 106.983C138.625 109.173 140.392 110.948 142.571 110.948Z" fill="#27AD9B"/>
</g>
<defs>
<clipPath id="clip0_2969_10223">
<rect width="423" height="434" fill="white"/>
</clipPath>
</defs>
</svg>
