<svg width="16" height="16" viewBox="0 0 16 16" fill="none" xmlns="http://www.w3.org/2000/svg">
<path d="M5.33268 8.66658H10.666V7.33325H5.33268V8.66658ZM5.33268 10.6666H10.666V9.33325H5.33268V10.6666ZM5.33268 12.6666H8.66602V11.3333H5.33268V12.6666ZM3.99935 14.6666C3.63268 14.6666 3.31879 14.536 3.05768 14.2749C2.79657 14.0138 2.66602 13.6999 2.66602 13.3333V2.66659C2.66602 2.29992 2.79657 1.98603 3.05768 1.72492C3.31879 1.46381 3.63268 1.33325 3.99935 1.33325H9.33268L13.3327 5.33325V13.3333C13.3327 13.6999 13.2021 14.0138 12.941 14.2749C12.6799 14.536 12.366 14.6666 11.9993 14.6666H3.99935ZM8.66602 5.99992V2.66659H3.99935V13.3333H11.9993V5.99992H8.66602Z" fill="#6C7689"/>
</svg>
