<svg width="33" height="47" viewBox="0 0 33 47" fill="none" xmlns="http://www.w3.org/2000/svg">
<path d="M16.3789 0.0791016C23.2422 0.0791899 28.8057 5.64352 28.8057 12.5068V19.6992C31.1141 22.4885 32.502 26.0682 32.502 29.9717C32.5018 38.8753 25.2835 46.0936 16.3799 46.0938C7.47613 46.0938 0.257944 38.8754 0.257812 29.9717C0.257812 26.0696 1.64419 22.491 3.95117 19.7021V12.5068C3.95117 5.64346 9.51553 0.0791016 16.3789 0.0791016ZM16.374 37.1396C15.9393 37.1397 15.5812 37.4702 15.5381 37.8936L15.5342 37.9795V39.9805C15.5342 40.4442 15.9103 40.8203 16.374 40.8203C16.8377 40.8201 17.2139 40.4442 17.2139 39.9805V37.9795L17.21 37.8936C17.1669 37.4702 16.8087 37.1398 16.374 37.1396ZM13.2295 36.4316C12.8371 36.2446 12.3696 36.388 12.1455 36.75L12.1045 36.8252L11.2275 38.6289C11.0249 39.0459 11.1996 39.5455 11.6182 39.7451C12.0367 39.9445 12.5403 39.7684 12.7432 39.3516L13.6201 37.5488L13.6543 37.4697C13.8005 37.0705 13.6219 36.6187 13.2295 36.4316ZM20.5986 36.7471C20.3745 36.385 19.907 36.2417 19.5146 36.4287C19.1224 36.6158 18.9438 37.0666 19.0898 37.4658L19.124 37.5449L20.001 39.3477C20.2038 39.7647 20.7074 39.9416 21.126 39.7422C21.5446 39.5426 21.7195 39.0421 21.5166 38.625L20.6396 36.8223L20.5986 36.7471ZM10.708 34.4473C10.4352 34.1086 9.95115 34.0345 9.5918 34.2637L9.52148 34.3135L7.94238 35.5605C7.57844 35.848 7.51869 36.3742 7.80957 36.7354C8.10039 37.0964 8.63111 37.1562 8.99512 36.8691L10.5752 35.6221L10.6406 35.5654C10.946 35.2696 10.9805 34.7859 10.708 34.4473ZM23.1465 34.2559C22.7871 34.0268 22.3031 34.1007 22.0303 34.4395C21.7578 34.7781 21.7923 35.2618 22.0977 35.5576L22.1631 35.6143L23.7432 36.8613C24.1071 37.1484 24.6379 37.0885 24.9287 36.7275C25.2197 36.3663 25.1599 35.8402 24.7959 35.5527L23.2168 34.3057L23.1465 34.2559ZM16.3789 24.5967C13.4106 24.5967 11.0039 27.0033 11.0039 29.9717C11.004 32.9399 13.4106 35.3456 16.3789 35.3457C19.3472 35.3456 21.7538 32.9399 21.7539 29.9717C21.7539 27.0033 19.3472 24.5968 16.3789 24.5967ZM24.3574 30.9238C23.9346 30.8723 23.5323 31.1485 23.4346 31.5723C23.337 31.9959 23.5781 32.4175 23.9814 32.5527L24.0645 32.5752L26.0342 33.0205C26.4865 33.1227 26.9377 32.8395 27.042 32.3877C27.1462 31.9358 26.8644 31.4861 26.4121 31.3838L24.4424 30.9385L24.3574 30.9238ZM8.38965 30.9209L8.30469 30.9365L6.33496 31.3818C5.88293 31.4843 5.60111 31.9331 5.70508 32.3848C5.80926 32.8367 6.26052 33.1207 6.71289 33.0186L8.68262 32.5732L8.76562 32.5508C9.16917 32.4156 9.41117 31.9931 9.31348 31.5693C9.21567 31.1457 8.8124 30.8693 8.38965 30.9209ZM27.042 27.5645C26.9378 27.1127 26.4864 26.8288 26.0342 26.9307L24.0635 27.376L23.9805 27.3984C23.5771 27.5337 23.3359 27.9562 23.4336 28.3799C23.5315 28.8034 23.9338 29.0798 24.3564 29.0283L24.4414 29.0127L26.4111 28.5674C26.8633 28.4651 27.1459 28.0162 27.042 27.5645ZM6.71387 26.9307C6.26157 26.8285 5.81034 27.1117 5.70605 27.5635C5.60189 28.0154 5.88457 28.4651 6.33691 28.5674L8.30664 29.0127L8.39062 29.0273C8.81346 29.079 9.21674 28.8027 9.31445 28.3789C9.412 27.9552 9.17007 27.5336 8.7666 27.3984L8.68359 27.376L6.71387 26.9307ZM9.00391 23.0879C8.63989 22.8005 8.10831 22.8605 7.81738 23.2217C7.52658 23.5829 7.58627 24.1091 7.9502 24.3965L9.5293 25.6436L9.59961 25.6934C9.95897 25.9225 10.443 25.8485 10.7158 25.5098C10.9885 25.171 10.954 24.6874 10.6484 24.3916L10.583 24.335L9.00391 23.0879ZM24.9287 23.2158C24.6378 22.8548 24.1071 22.7949 23.7432 23.082L22.1631 24.3291L22.0986 24.3857C21.793 24.6816 21.7585 25.1652 22.0312 25.5039C22.3041 25.8426 22.7881 25.9166 23.1475 25.6875L23.2168 25.6377L24.7969 24.3906C25.1608 24.1032 25.2196 23.577 24.9287 23.2158ZM21.1289 20.2119C20.7103 20.0124 20.2058 20.1885 20.0029 20.6055L19.126 22.4082L19.0918 22.4873C18.9456 22.8865 19.1244 23.3382 19.5166 23.5254C19.909 23.7125 20.3775 23.5691 20.6016 23.207L20.6426 23.1318L21.5195 21.3281C21.722 20.9113 21.5471 20.4116 21.1289 20.2119ZM12.748 20.6016C12.5452 20.1845 12.0407 20.0074 11.6221 20.207C11.2035 20.4067 11.0286 20.9072 11.2314 21.3242L12.1084 23.127L12.1494 23.2021C12.3735 23.5643 12.842 23.7076 13.2344 23.5205C13.6263 23.3333 13.8051 22.8824 13.6592 22.4834L13.625 22.4043L12.748 20.6016ZM16.373 19.1348C15.9093 19.1348 15.5332 19.5108 15.5332 19.9746V21.9756L15.5371 22.0615C15.5802 22.4849 15.9383 22.8154 16.373 22.8154C16.8076 22.8152 17.1659 22.4848 17.209 22.0615L17.2129 21.9756V19.9746C17.2129 19.5109 16.8367 19.135 16.373 19.1348ZM16.3789 3.43848C11.3705 3.43848 7.31055 7.49843 7.31055 12.5068V16.6406C9.89441 14.8794 13.017 13.8496 16.3799 13.8496C19.7421 13.8497 22.8637 14.8791 25.4473 16.6396V12.5068C25.4473 7.49848 21.3872 3.43856 16.3789 3.43848Z" fill="white"/>
</svg>
