<svg width="44" height="50" viewBox="0 0 44 50" fill="none" xmlns="http://www.w3.org/2000/svg">
<path d="M11.6309 22.9111V13.5067C11.6309 7.57078 16.4428 2.75879 22.3787 2.75879C28.3146 2.75879 33.1266 7.57079 33.1266 13.5067V22.9111C33.1266 28.847 28.3146 33.659 22.3787 33.659C16.4428 33.659 11.6309 28.847 11.6309 22.9111Z" stroke="white" stroke-width="3.35871"/>
<circle cx="22.3796" cy="30.9714" r="16.1218" fill="white"/>
<circle cx="22.3787" cy="30.9714" r="5.37475" fill="#239485"/>
<path d="M22.373 20.9746V22.9755" stroke="#239485" stroke-width="1.67961" stroke-linecap="round"/>
<path d="M26.7617 21.9668L25.8849 23.7695" stroke="#239485" stroke-width="1.67961" stroke-linecap="round"/>
<path d="M30.2695 24.7363L28.6895 25.9839" stroke="#239485" stroke-width="1.67961" stroke-linecap="round"/>
<path d="M32.2227 28.749L30.2524 29.1943" stroke="#239485" stroke-width="1.67961" stroke-linecap="round"/>
<path d="M32.2227 33.2021L30.2524 32.7569" stroke="#239485" stroke-width="1.67961" stroke-linecap="round"/>
<path d="M30.2695 37.207L28.6895 35.9595" stroke="#239485" stroke-width="1.67961" stroke-linecap="round"/>
<path d="M26.7578 39.9863L25.881 38.1836" stroke="#239485" stroke-width="1.67961" stroke-linecap="round"/>
<path d="M22.373 40.9805V38.9796" stroke="#239485" stroke-width="1.67961" stroke-linecap="round"/>
<path d="M17.9844 39.9902L18.8612 38.1875" stroke="#239485" stroke-width="1.67961" stroke-linecap="round"/>
<path d="M14.4688 37.2148L16.0487 35.9673" stroke="#239485" stroke-width="1.67961" stroke-linecap="round"/>
<path d="M12.5234 33.2002L14.4937 32.755" stroke="#239485" stroke-width="1.67961" stroke-linecap="round"/>
<path d="M12.5254 28.749L14.4956 29.1943" stroke="#239485" stroke-width="1.67961" stroke-linecap="round"/>
<path d="M14.4766 24.7422L16.0566 25.9897" stroke="#239485" stroke-width="1.67961" stroke-linecap="round"/>
<path d="M17.9902 21.9629L18.8671 23.7656" stroke="#239485" stroke-width="1.67961" stroke-linecap="round"/>
</svg>
