<svg width="37" height="37" viewBox="0 0 37 37" fill="none" xmlns="http://www.w3.org/2000/svg">
<mask id="mask0_2139_9338" style="mask-type:alpha" maskUnits="userSpaceOnUse" x="0" y="0" width="37" height="37">
<rect x="0.623047" y="0.689453" width="35.9004" height="35.9004" fill="#D9D9D9"/>
</mask>
<g mask="url(#mask0_2139_9338)">
<path d="M5.11257 31.8038V17.8534L2.43409 19.8995L0.648438 17.5186L5.11257 14.0961V9.48318H8.08865V11.8269L17.0169 5.01905L33.3854 17.5186L31.5997 19.8623L28.9213 17.8534V31.8038H5.11257ZM8.08865 28.8277H15.5289V22.8756H18.505V28.8277H25.9452V15.5842L17.0169 8.77636L8.08865 15.5842V28.8277ZM5.11257 7.99514C5.11257 6.75511 5.54658 5.70107 6.4146 4.83305C7.28263 3.96502 8.33666 3.53101 9.5767 3.53101C9.99831 3.53101 10.3517 3.38841 10.6369 3.1032C10.9221 2.81799 11.0647 2.46458 11.0647 2.04297H14.0408C14.0408 3.283 13.6068 4.33704 12.7388 5.20506C11.8708 6.07309 10.8167 6.5071 9.5767 6.5071C9.15508 6.5071 8.80167 6.6497 8.51646 6.93491C8.23126 7.22012 8.08865 7.57353 8.08865 7.99514H5.11257Z" fill="#808080"/>
</g>
</svg>
