<svg width="35" height="35" viewBox="0 0 35 35" fill="none" xmlns="http://www.w3.org/2000/svg">
<path fill-rule="evenodd" clip-rule="evenodd" d="M17.2188 6.63509C14.5887 6.63509 12.0663 7.67988 10.2066 9.53961C8.34687 11.3994 7.30208 13.9217 7.30208 16.5518V19.3851C7.30208 19.7608 7.15283 20.1211 6.88715 20.3868C6.62147 20.6525 6.26114 20.8018 5.88542 20.8018C5.50969 20.8018 5.14936 20.6525 4.88368 20.3868C4.61801 20.1211 4.46875 19.7608 4.46875 19.3851V16.5518C4.46875 13.1702 5.81205 9.92724 8.20314 7.53615C10.5942 5.14506 13.8372 3.80176 17.2188 3.80176C20.6003 3.80176 23.8433 5.14506 26.2344 7.53615C28.6254 9.92724 29.9688 13.1702 29.9688 16.5518V20.8018C29.9506 22.0505 29.8574 23.2971 29.6897 24.5347C29.4219 26.4968 28.8609 29.1261 27.5604 30.8601C27.335 31.1607 26.9994 31.3594 26.6274 31.4125C26.2555 31.4657 25.8777 31.3689 25.5771 31.1434C25.2765 30.918 25.0778 30.5824 25.0247 30.2104C24.9715 29.8385 25.0683 29.4607 25.2938 29.1601C26.1182 28.0608 26.6198 26.0859 26.8832 24.1522C27.0304 23.041 27.1145 21.9224 27.1354 20.8018V16.5518C27.1354 13.9217 26.0906 11.3994 24.2309 9.53961C22.3712 7.67988 19.8488 6.63509 17.2188 6.63509ZM17.2188 12.3018C16.0916 12.3018 15.0106 12.7495 14.2135 13.5466C13.4165 14.3436 12.9688 15.4246 12.9688 16.5518V17.9684C12.9688 19.3001 12.5381 20.9434 11.7391 22.4423C10.9358 23.9482 9.68633 25.4428 7.93533 26.3183C7.76834 26.4083 7.58496 26.4639 7.39608 26.4817C7.20719 26.4996 7.01665 26.4793 6.83576 26.4221C6.65486 26.3649 6.4873 26.2719 6.34302 26.1487C6.19874 26.0255 6.08067 25.8746 5.99582 25.7049C5.91097 25.5352 5.86108 25.3502 5.84909 25.1608C5.8371 24.9715 5.86327 24.7817 5.92604 24.6026C5.98881 24.4236 6.08691 24.259 6.2145 24.1186C6.3421 23.9782 6.4966 23.8648 6.66883 23.7853C7.75117 23.2441 8.62667 22.2595 9.24008 21.1078C9.85775 19.9518 10.1354 18.7618 10.1354 17.9684V16.5518C10.1354 14.6731 10.8817 12.8715 12.2101 11.5431C13.5385 10.2147 15.3401 9.46842 17.2188 9.46842C19.0974 9.46842 20.899 10.2147 22.2274 11.5431C23.5558 12.8715 24.3021 14.6731 24.3021 16.5518V18.1342C24.3021 22.2765 24.3035 27.8383 19.5421 31.8064C19.3999 31.9308 19.2343 32.0255 19.055 32.0849C18.8757 32.1444 18.6863 32.1673 18.498 32.1525C18.3097 32.1376 18.1262 32.0853 17.9584 31.9985C17.7906 31.9117 17.6419 31.7922 17.521 31.6471C17.4001 31.502 17.3094 31.3342 17.2543 31.1535C17.1991 30.9728 17.1807 30.7829 17.2001 30.595C17.2194 30.4071 17.2762 30.225 17.367 30.0593C17.4578 29.8937 17.5808 29.7478 17.7287 29.6304C21.4036 26.5676 21.4688 22.3091 21.4688 17.9684V16.5518C21.4688 15.4246 21.021 14.3436 20.224 13.5466C19.4269 12.7495 18.3459 12.3018 17.2188 12.3018ZM18.6354 17.2601C18.6354 16.8844 18.4862 16.524 18.2205 16.2584C17.9548 15.9927 17.5945 15.8434 17.2188 15.8434C16.843 15.8434 16.4827 15.9927 16.217 16.2584C15.9513 16.524 15.8021 16.8844 15.8021 17.2601C15.8021 18.9558 15.6307 21.0879 14.9889 23.0103C14.3514 24.9285 13.2974 26.4911 11.6272 27.3269C11.4549 27.4065 11.3004 27.5198 11.1728 27.6602C11.0452 27.8007 10.9471 27.9653 10.8844 28.1443C10.8216 28.3233 10.7954 28.5132 10.8074 28.7025C10.8194 28.8919 10.8693 29.0769 10.9542 29.2466C11.039 29.4163 11.1571 29.5672 11.3014 29.6904C11.4456 29.8136 11.6132 29.9065 11.7941 29.9637C11.975 30.0209 12.1655 30.0412 12.3544 30.0234C12.5433 30.0056 12.7267 29.95 12.8937 29.8599C15.4734 28.5708 16.9 26.2389 17.6778 23.9057C18.4527 21.5781 18.6354 19.106 18.6354 17.2601Z" fill="#808080"/>
</svg>
