<svg width="35" height="34" viewBox="0 0 35 34" fill="none" xmlns="http://www.w3.org/2000/svg">
<mask id="mask0_2139_9348" style="mask-type:alpha" maskUnits="userSpaceOnUse" x="0" y="0" width="35" height="34">
<rect x="0.742188" width="33.5215" height="33.5215" fill="#D9D9D9"/>
</mask>
<g mask="url(#mask0_2139_9348)">
<path d="M13.6173 21.401H17.7856V17.9274H21.2592V13.7591H17.7856V10.2855H13.6173V13.7591H10.1437V17.9274H13.6173V21.401ZM15.7015 30.4323C12.4826 29.6218 9.82528 27.775 7.72954 24.892C5.63381 22.0089 4.58594 18.8074 4.58594 15.2875V6.81187L15.7015 2.64355L26.817 6.81187V15.2875C26.817 18.8074 25.7691 22.0089 23.6734 24.892C21.5776 27.775 18.9203 29.6218 15.7015 30.4323ZM15.7015 27.5145C18.1098 26.7503 20.1013 25.2219 21.676 22.9294C23.2507 20.6368 24.0381 18.0895 24.0381 15.2875V8.72235L15.7015 5.59611L7.36482 8.72235V15.2875C7.36482 18.0895 8.15217 20.6368 9.72686 22.9294C11.3016 25.2219 13.2931 26.7503 15.7015 27.5145Z" fill="#808080"/>
</g>
</svg>
