<svg width="39" height="39" viewBox="0 0 39 39" fill="none" xmlns="http://www.w3.org/2000/svg">
<mask id="mask0_2131_10268" style="mask-type:alpha" maskUnits="userSpaceOnUse" x="0" y="0" width="39" height="39">
<rect x="0.78125" y="0.96875" width="38" height="38" fill="#D9D9D9"/>
</mask>
<g mask="url(#mask0_2131_10268)">
<path d="M12.0778 32.3359C11.2115 32.3359 10.4699 32.0274 9.85301 31.4105C9.23611 30.7936 8.92766 30.052 8.92766 29.1857V24.4605H13.6529V20.9166C12.7341 20.8641 11.8612 20.6607 11.0343 20.3063C10.2074 19.9519 9.45268 19.4203 8.77015 18.7115V16.979H6.95882L1.83984 11.86C2.78489 10.6524 3.95306 9.79926 5.34438 9.30049C6.73569 8.80171 8.14012 8.55233 9.55769 8.55233C10.2665 8.55233 10.9556 8.60483 11.625 8.70984C12.2944 8.81484 12.9703 9.01172 13.6529 9.30049V7.13477H32.5537V27.6107C32.5537 28.9232 32.0943 30.0389 31.1755 30.9577C30.2567 31.8765 29.1411 32.3359 27.8285 32.3359H12.0778ZM16.803 24.4605H26.2534V27.6107C26.2534 28.0569 26.4044 28.431 26.7063 28.7329C27.0082 29.0348 27.3822 29.1857 27.8285 29.1857C28.2748 29.1857 28.6489 29.0348 28.9507 28.7329C29.2526 28.431 29.4036 28.0569 29.4036 27.6107V10.2849H16.803V11.2299L26.2534 20.6804V22.8855H24.0483L19.5594 18.3965L19.2444 18.7115C18.8769 19.079 18.4896 19.4072 18.0828 19.696C17.6759 19.9847 17.2493 20.2078 16.803 20.3654V24.4605ZM8.29763 13.8288H11.9203V17.2152C12.2353 17.4252 12.5634 17.5696 12.9047 17.6484C13.246 17.7271 13.6004 17.7665 13.9679 17.7665C14.5717 17.7665 15.1164 17.6746 15.602 17.4909C16.0877 17.3071 16.5668 16.979 17.0393 16.5064L17.3543 16.1914L15.1492 13.9863C14.3879 13.225 13.5347 12.6541 12.5897 12.2734C11.6447 11.8928 10.634 11.7025 9.55769 11.7025C9.03266 11.7025 8.53389 11.7418 8.06137 11.8206C7.58885 11.8994 7.11633 12.0175 6.64381 12.175L8.29763 13.8288ZM23.1033 27.6107H12.0778V29.1857H23.3396C23.2608 28.9495 23.2017 28.7001 23.1624 28.4376C23.123 28.1751 23.1033 27.8994 23.1033 27.6107Z" fill="#808080"/>
</g>
</svg>
