<svg width="37" height="36" viewBox="0 0 37 36" fill="none" xmlns="http://www.w3.org/2000/svg">
<mask id="mask0_2139_9322" style="mask-type:alpha" maskUnits="userSpaceOnUse" x="0" y="0" width="37" height="36">
<rect x="0.861328" y="0.232422" width="35.7676" height="35.7676" fill="#D9D9D9"/>
</mask>
<g mask="url(#mask0_2139_9322)">
<path d="M12.1717 31.2335C9.9232 31.2335 8.02679 30.4614 6.48248 28.9171C4.93817 27.3728 4.16602 25.4763 4.16602 23.2278C4.16602 22.2889 4.32662 21.3747 4.64784 20.4851C4.96906 19.5956 5.42617 18.7926 6.01919 18.076L11.2822 11.7382L7.68704 4.54785H27.3307L23.7355 11.7382L28.9985 18.076C29.5915 18.7926 30.0487 19.5956 30.3699 20.4851C30.6911 21.3747 30.8517 22.2889 30.8517 23.2278C30.8517 25.4763 30.0734 27.3728 28.5167 28.9171C26.96 30.4614 25.0698 31.2335 22.846 31.2335H12.1717ZM17.5089 23.8208C16.6935 23.8208 15.9954 23.5305 15.4148 22.9499C14.8341 22.3692 14.5438 21.6712 14.5438 20.8558C14.5438 20.0404 14.8341 19.3423 15.4148 18.7617C15.9954 18.181 16.6935 17.8907 17.5089 17.8907C18.3243 17.8907 19.0223 18.181 19.6029 18.7617C20.1836 19.3423 20.4739 20.0404 20.4739 20.8558C20.4739 21.6712 20.1836 22.3692 19.6029 22.9499C19.0223 23.5305 18.3243 23.8208 17.5089 23.8208ZM13.9878 10.478H21.0299L22.5124 7.51293H12.5053L13.9878 10.478ZM12.1717 28.2685H22.846C24.2544 28.2685 25.4466 27.7805 26.4226 26.8045C27.3986 25.8285 27.8866 24.6362 27.8866 23.2278C27.8866 22.6348 27.7816 22.0603 27.5716 21.5044C27.3616 20.9484 27.0712 20.4481 26.7006 20.0033L21.2523 13.4431H13.8025L8.31712 19.9662C7.94649 20.411 7.65616 20.9175 7.44613 21.4858C7.2361 22.0542 7.13109 22.6348 7.13109 23.2278C7.13109 24.6362 7.61909 25.8285 8.5951 26.8045C9.5711 27.7805 10.7633 28.2685 12.1717 28.2685Z" fill="#808080"/>
</g>
</svg>
