<svg width="36" height="36" viewBox="0 0 36 36" fill="none" xmlns="http://www.w3.org/2000/svg">
<path d="M3.44076 27.7402V24.8236H32.6074V27.7402H3.44076ZM5.11784 18.9173L3.22201 17.8236L4.46159 15.6361H1.98242V13.4486H4.46159L3.22201 11.334L5.11784 10.2402L6.35742 12.3548L7.59701 10.2402L9.49284 11.334L8.25326 13.4486H10.7324V15.6361H8.25326L9.49284 17.8236L7.59701 18.9173L6.35742 16.7298L5.11784 18.9173ZM16.7845 18.9173L14.8887 17.8236L16.1283 15.6361H13.6491V13.4486H16.1283L14.8887 11.334L16.7845 10.2402L18.0241 12.3548L19.2637 10.2402L21.1595 11.334L19.9199 13.4486H22.3991V15.6361H19.9199L21.1595 17.8236L19.2637 18.9173L18.0241 16.7298L16.7845 18.9173ZM28.4512 18.9173L26.5553 17.8236L27.7949 15.6361H25.3158V13.4486H27.7949L26.5553 11.334L28.4512 10.2402L29.6908 12.3548L30.9303 10.2402L32.8262 11.334L31.5866 13.4486H34.0658V15.6361H31.5866L32.8262 17.8236L30.9303 18.9173L29.6908 16.7298L28.4512 18.9173Z" fill="#808080"/>
</svg>
