<svg width="37" height="37" viewBox="0 0 37 37" fill="none" xmlns="http://www.w3.org/2000/svg">
<mask id="mask0_2139_9358" style="mask-type:alpha" maskUnits="userSpaceOnUse" x="0" y="0" width="37" height="37">
<rect x="0.742188" y="0.03125" width="36" height="36" fill="#D9D9D9"/>
</mask>
<g mask="url(#mask0_2139_9358)">
<path d="M23.2635 16.3143C23.6862 16.3143 24.0406 16.1713 24.3266 15.8853C24.6126 15.5993 24.7556 15.2449 24.7556 14.8221C24.7556 14.3994 24.6126 14.045 24.3266 13.759C24.0406 13.473 23.6862 13.33 23.2635 13.33C22.8407 13.33 22.4863 13.473 22.2003 13.759C21.9143 14.045 21.7713 14.3994 21.7713 14.8221C21.7713 15.2449 21.9143 15.5993 22.2003 15.8853C22.4863 16.1713 22.8407 16.3143 23.2635 16.3143ZM11.3261 13.33H18.7869V10.3456H11.3261V13.33ZM6.10348 31.236C5.25791 28.4009 4.42478 25.572 3.60409 22.7493C2.78339 19.9266 2.37305 17.0355 2.37305 14.0761C2.37305 11.7881 3.16887 9.84823 4.76052 8.25658C6.35217 6.66493 8.292 5.86911 10.58 5.86911H18.0409C18.7621 4.92407 19.6387 4.19042 20.6708 3.66816C21.7029 3.1459 22.8158 2.88477 24.0095 2.88477C24.6313 2.88477 25.1598 3.10237 25.595 3.53759C26.0302 3.97281 26.2478 4.50129 26.2478 5.12302C26.2478 5.27224 26.2291 5.42146 26.1918 5.57068C26.1545 5.71989 26.111 5.85667 26.0613 5.98102C25.9618 6.25459 25.8685 6.53437 25.7815 6.82037C25.6945 7.10637 25.6261 7.39859 25.5763 7.69702L28.971 11.0917H32.2165V21.4996L28.0011 22.8799L25.5017 31.236H17.2948V28.2517H14.3104V31.236H6.10348ZM8.34173 28.2517H11.3261V25.2673H20.2791V28.2517H23.2635L25.5763 20.567L29.2321 19.336V14.0761H27.74L22.5174 8.85345C22.5174 8.35606 22.5485 7.87732 22.6106 7.41724C22.6728 6.95715 22.7661 6.49085 22.8904 6.01833C22.1692 6.21728 21.535 6.55924 20.9879 7.0442C20.4408 7.52915 20.0428 8.13224 19.7942 8.85345H10.58C9.13756 8.85345 7.90652 9.36328 6.88687 10.3829C5.86722 11.4026 5.35739 12.6336 5.35739 14.0761C5.35739 16.5133 5.69313 18.8945 6.36461 21.2198C7.03608 23.5451 7.69513 25.8891 8.34173 28.2517Z" fill="#808080"/>
</g>
</svg>
