<svg width="64" height="64" viewBox="0 0 64 64" fill="none" xmlns="http://www.w3.org/2000/svg">
<circle cx="32" cy="32" r="32" fill="#E4F4ED"/>
<mask id="mask0_2338_9878" style="mask-type:alpha" maskUnits="userSpaceOnUse" x="14" y="13" width="37" height="38">
<rect x="14.2383" y="13.7617" width="36.5714" height="36.5714" fill="#D9D9D9"/>
</mask>
<g mask="url(#mask0_2338_9878)">
<path d="M30.6193 46.3887C28.8258 46.1368 27.1633 45.5952 25.6319 44.764C24.1002 43.9327 22.7722 42.8791 21.6479 41.6032C20.5235 40.3275 19.6425 38.8746 19.0048 37.2443C18.3668 35.6141 18.0479 33.8818 18.0479 32.0474C18.0479 29.7949 18.5163 27.708 19.4532 25.7864C20.3898 23.8652 21.7314 22.2013 23.4779 20.7948H19.3812V18.5091H27.5717V26.6996H25.2859V22.2832C23.6938 23.4593 22.4703 24.8934 21.6155 26.5853C20.7609 28.277 20.3336 30.0977 20.3336 32.0474C20.3336 35.0638 21.2997 37.6987 23.2319 39.9522C25.1638 42.2056 27.6263 43.5765 30.6193 44.0649V46.3887ZM30.3526 38.5293L24.4421 32.5952L26.0479 30.9895L30.3526 35.2942L39.0002 26.6466L40.606 28.276L30.3526 38.5293ZM37.4764 45.6005V37.4101H39.7621V41.8261C41.3446 40.6248 42.5656 39.1821 43.425 37.4981C44.2847 35.814 44.7145 33.9971 44.7145 32.0474C44.7145 29.031 43.7484 26.3961 41.8162 24.1426C39.8843 21.8892 37.4218 20.5182 34.4288 20.0299V17.7061C38.0255 18.1944 41.0199 19.7833 43.412 22.4725C45.8042 25.1615 47.0002 28.3532 47.0002 32.0474C47.0002 34.2998 46.5318 36.3892 45.5949 38.3156C44.6583 40.2417 43.3167 41.9081 41.5701 43.3148H45.6669V45.6005H37.4764Z" fill="#239485"/>
</g>
</svg>
