<svg width="64" height="64" viewBox="0 0 64 64" fill="none" xmlns="http://www.w3.org/2000/svg">
<circle cx="32" cy="32" r="32" fill="#E4F4ED"/>
<mask id="mask0_2326_9746" style="mask-type:alpha" maskUnits="userSpaceOnUse" x="15" y="16" width="37" height="38">
<rect x="15.2383" y="16.7617" width="36.5714" height="36.5714" fill="#D9D9D9"/>
</mask>
<g mask="url(#mask0_2326_9746)">
<path d="M47.7073 48.2342L42.3153 42.8421H27.4288C26.6875 42.8421 26.0528 42.5781 25.5248 42.0501C24.9968 41.5224 24.7328 40.8877 24.7328 40.1461V39.2086H41.3191C42.0764 39.2086 42.7248 38.9389 43.2642 38.3995C43.8037 37.8601 44.0734 37.2115 44.0734 36.454V25.9046H45.0113C45.7526 25.9046 46.3873 26.1686 46.9153 26.6966C47.4433 27.2246 47.7073 27.8593 47.7073 28.6006V48.2342ZM21.6265 36.0322L23.7835 33.8753H38.2715C38.4081 33.8753 38.5204 33.8314 38.6082 33.7435C38.6961 33.6556 38.7401 33.5432 38.7401 33.4063V23.326C38.7401 23.1891 38.6961 23.0767 38.6082 22.9888C38.5204 22.9009 38.4081 22.857 38.2715 22.857H22.0955C21.9589 22.857 21.8465 22.9009 21.7583 22.9888C21.6705 23.0767 21.6265 23.1891 21.6265 23.326V36.0322ZM19.3408 41.553V23.326C19.3408 22.5684 19.6105 21.9199 20.15 21.3804C20.6894 20.841 21.3379 20.5713 22.0955 20.5713H38.2715C39.0288 20.5713 39.6772 20.841 40.2166 21.3804C40.7561 21.9199 41.0258 22.5684 41.0258 23.326V33.4063C41.0258 34.1639 40.7561 34.8124 40.2166 35.3519C39.6772 35.8913 39.0288 36.161 38.2715 36.161H24.7328L19.3408 41.553Z" fill="#239485"/>
</g>
</svg>
