<svg width="64" height="64" viewBox="0 0 64 64" fill="none" xmlns="http://www.w3.org/2000/svg">
<circle cx="32" cy="32" r="32" fill="#E4F4ED"/>
<mask id="mask0_2335_9863" style="mask-type:alpha" maskUnits="userSpaceOnUse" x="13" y="14" width="37" height="38">
<rect x="13.2383" y="14.7617" width="36.5714" height="36.5714" fill="#D9D9D9"/>
</mask>
<g mask="url(#mask0_2335_9863)">
<path d="M22.3813 47.5237C21.3167 47.5237 20.4156 47.1549 19.6781 46.4174C18.9405 45.6799 18.5718 44.7788 18.5718 43.7141V39.3187H23.1432V18.5713H44.4765V43.7141C44.4765 44.7788 44.1078 45.6799 43.3703 46.4174C42.6327 47.1549 41.7317 47.5237 40.667 47.5237H22.3813ZM40.667 45.238C41.0988 45.238 41.4607 45.0919 41.7527 44.7999C42.0448 44.5078 42.1908 44.1459 42.1908 43.7141V20.857H25.4289V39.3187H39.1432V43.7141C39.1432 44.1459 39.2892 44.5078 39.5813 44.7999C39.8734 45.0919 40.2353 45.238 40.667 45.238ZM27.2457 28.0071V25.7214H40.3741V28.0071H27.2457ZM27.2457 32.4029V30.1172H40.3741V32.4029H27.2457ZM22.3813 45.238H36.8575V41.6041H20.8575V43.7141C20.8575 44.1459 21.0035 44.5078 21.2956 44.7999C21.5877 45.0919 21.9496 45.238 22.3813 45.238ZM22.3813 45.238H20.8575H36.8575H22.3813Z" fill="#239485"/>
</g>
</svg>
