<svg width="64" height="64" viewBox="0 0 64 64" fill="none" xmlns="http://www.w3.org/2000/svg">
<circle cx="32" cy="32" r="32" fill="#E4F4ED"/>
<mask id="mask0_2334_9848" style="mask-type:alpha" maskUnits="userSpaceOnUse" x="14" y="14" width="37" height="38">
<rect x="14.2383" y="14.7617" width="36.5714" height="36.5714" fill="#D9D9D9"/>
</mask>
<g mask="url(#mask0_2334_9848)">
<path d="M32.5238 47.4943C29.228 46.5955 26.4994 44.6555 24.3379 41.6745C22.1761 38.6934 21.0952 35.3606 21.0952 31.676V22.9084L32.5238 18.6299L43.9524 22.9084V31.676C43.9524 35.3606 42.8715 38.6934 40.7097 41.6745C38.5482 44.6555 35.8195 46.5955 32.5238 47.4943ZM32.5238 45.0855C35.1651 44.2474 37.3492 42.5712 39.0762 40.0569C40.8032 37.5426 41.6666 34.749 41.6666 31.676V24.476L32.5238 21.0619L23.3809 24.476V31.676C23.3809 34.749 24.2444 37.5426 25.9714 40.0569C27.6984 42.5712 29.8825 44.2474 32.5238 45.0855ZM29.5055 38.879H35.5421C35.9324 38.879 36.2595 38.747 36.5234 38.4828C36.7873 38.219 36.9192 37.8919 36.9192 37.5015V32.9887C36.9192 32.5986 36.7873 32.2715 36.5234 32.0074C36.2595 31.7435 35.9324 31.6116 35.5421 31.6116H35.4103V30.0878C35.4103 29.2888 35.1314 28.6105 34.5737 28.0527C34.016 27.4948 33.3375 27.2158 32.5383 27.2158C31.7393 27.2158 31.0609 27.4948 30.5032 28.0527C29.9455 28.6105 29.6666 29.2888 29.6666 30.0878V31.6116H29.5055C29.1152 31.6116 28.788 31.7435 28.5242 32.0074C28.2603 32.2715 28.1284 32.5986 28.1284 32.9887V37.5015C28.1284 37.8919 28.2603 38.219 28.5242 38.4828C28.788 38.747 29.1152 38.879 29.5055 38.879ZM31.0145 31.6116V30.0878C31.0145 29.656 31.1605 29.2941 31.4525 29.0021C31.7446 28.71 32.1065 28.564 32.5383 28.564C32.97 28.564 33.3319 28.71 33.624 29.0021C33.916 29.2941 34.0621 29.656 34.0621 30.0878V31.6116H31.0145Z" fill="#239485"/>
</g>
</svg>
