<svg width="36" height="47" viewBox="0 0 36 47" fill="none" xmlns="http://www.w3.org/2000/svg">
<g id="Group 6763">
<path id="Vector" d="M22.0505 45.6061L25.5783 39.1347L32.3101 42.136L27.1836 26.9795C27.0137 26.4771 26.6963 26.0474 26.3013 25.7851C25.9062 25.5227 25.4659 25.4492 25.0772 25.5807L17.749 28.0593C17.3603 28.1908 17.055 28.5165 16.9003 28.9648C16.7456 29.413 16.7542 29.9471 16.9241 30.4496L22.0505 45.6061Z" stroke="white" stroke-linecap="round" stroke-linejoin="round"/>
<path id="Vector_2" d="M13.5428 45.6061L10.0151 39.1347L3.28332 42.136L8.40974 26.9795C8.57969 26.4771 8.89709 26.0474 9.29213 25.7851C9.68716 25.5227 10.1275 25.4492 10.5162 25.5807L17.8444 28.0593C18.2331 28.1908 18.5384 28.5165 18.6931 28.9648C18.8478 29.413 18.8392 29.9471 18.6693 30.4496L13.5428 45.6061Z" stroke="white" stroke-linecap="round" stroke-linejoin="round"/>
<path id="Star 6" d="M15.7186 3.00195C16.8366 2.03226 18.4639 1.97156 19.6454 2.82031L19.8749 3.00195C20.7823 3.78922 21.9819 4.14458 23.1649 3.98535L23.4012 3.94727C24.8543 3.66643 26.2936 4.4272 26.8925 5.75293L27.0009 6.02539C27.3931 7.16085 28.2542 8.06786 29.3583 8.52148L29.5819 8.60645C30.9807 9.08967 31.8471 10.4685 31.703 11.916L31.66 12.2061C31.432 13.3854 31.7238 14.602 32.453 15.5469L32.6053 15.7324C33.575 16.8504 33.6357 18.4777 32.787 19.6592L32.6053 19.8887C31.8181 20.7961 31.4627 21.9957 31.6219 23.1787L31.66 23.415C31.9408 24.868 31.18 26.3073 29.8544 26.9062L29.5819 27.0146C28.4465 27.4068 27.5394 28.268 27.0858 29.3721L27.0009 29.5957C26.5176 30.9945 25.1388 31.8608 23.6913 31.7168L23.4012 31.6738C22.222 31.4458 21.0053 31.7377 20.0604 32.4668L19.8749 32.6191C18.7569 33.5888 17.1296 33.6494 15.9481 32.8008L15.7186 32.6191C14.8112 31.8319 13.6116 31.4765 12.4286 31.6357L12.1923 31.6738C10.7392 31.9547 9.29999 31.1938 8.70105 29.8682L8.59265 29.5957C8.20047 28.4603 7.33927 27.5533 6.23523 27.0996L6.0116 27.0146C4.61273 26.5315 3.74645 25.1526 3.8905 23.7051L3.93347 23.415C4.16152 22.2358 3.86961 21.0191 3.1405 20.0742L2.98816 19.8887C2.01843 18.7707 1.95781 17.1434 2.80652 15.9619L2.98816 15.7324C3.7754 14.825 4.13075 13.6254 3.97156 12.4424L3.93347 12.2061C3.65258 10.753 4.4134 9.31376 5.73914 8.71484L6.0116 8.60645C7.14703 8.21426 8.05405 7.35308 8.50769 6.24902L8.59265 6.02539C9.07585 4.62649 10.4546 3.76018 11.9022 3.9043L12.1923 3.94727C13.3715 4.17532 14.5882 3.88345 15.5331 3.1543L15.7186 3.00195Z" fill="#083203" stroke="white"/>
<path id="Star 7" d="M16.2076 5.87256C17.0492 5.09591 18.3176 5.04728 19.2125 5.72705L19.3863 5.87256C20.1436 6.5714 21.1773 6.87963 22.1871 6.71631L22.3893 6.67725C23.5062 6.42545 24.6288 7.01746 25.0641 8.05322L25.1422 8.26611C25.4485 9.25013 26.1898 10.0345 27.1461 10.3979L27.3404 10.4653C28.4338 10.8058 29.1105 11.8798 28.9693 12.9946L28.9293 13.2183C28.7028 14.2236 28.9536 15.2731 29.6002 16.0659L29.734 16.2212C30.5107 17.0627 30.56 18.3312 29.8805 19.2261L29.734 19.3999C29.0353 20.1571 28.7269 21.191 28.8902 22.2007L28.9293 22.4028C29.1812 23.5199 28.5893 24.6424 27.5533 25.0776L27.3404 25.1558C26.3564 25.4621 25.572 26.2033 25.2086 27.1597L25.1422 27.354C24.8017 28.4476 23.7269 29.1243 22.6119 28.9829L22.3893 28.9429C21.3836 28.7161 20.3336 28.9669 19.5406 29.6138L19.3863 29.7476C18.5449 30.5242 17.2763 30.5733 16.3814 29.894L16.2076 29.7476C15.4503 29.0486 14.4158 28.7404 13.4059 28.9038L13.2047 28.9429C12.0875 29.1948 10.9641 28.603 10.5289 27.5669L10.4518 27.354C10.1454 26.3698 9.40341 25.5855 8.44687 25.2222L8.25253 25.1558C7.15915 24.8152 6.48322 23.7404 6.6246 22.6255L6.66367 22.4028C6.8904 21.3973 6.64042 20.3471 5.99374 19.5542L5.85898 19.3999C5.0823 18.5584 5.03397 17.2899 5.71347 16.395L5.85898 16.2212C6.55801 15.4639 6.86619 14.4294 6.70273 13.4194L6.66367 13.2183C6.41177 12.1012 7.00376 10.9777 8.03964 10.5425L8.25253 10.4653C9.23666 10.159 10.021 9.41693 10.3844 8.46045L10.4518 8.26611C10.7924 7.17295 11.8664 6.497 12.981 6.63818L13.2047 6.67725C14.2099 6.90379 15.2595 6.65377 16.0523 6.00732L16.2076 5.87256Z" stroke="white"/>
</g>
</svg>
