<svg width="64" height="64" viewBox="0 0 64 64" fill="none" xmlns="http://www.w3.org/2000/svg">
<circle cx="32" cy="32" r="32" fill="#E4F4ED"/>
<mask id="mask0_2365_9976" style="mask-type:alpha" maskUnits="userSpaceOnUse" x="14" y="14" width="37" height="37">
<rect x="14" y="14" width="36.5714" height="36.5714" fill="#D9D9D9"/>
</mask>
<g mask="url(#mask0_2365_9976)">
<path d="M34.9525 33.37C33.8879 33.37 32.9868 33.0012 32.2493 32.2637C31.5118 31.5262 31.143 30.6251 31.143 29.5604C31.143 28.4958 31.5118 27.5947 32.2493 26.8572C32.9868 26.1197 33.8879 25.7509 34.9525 25.7509C36.0172 25.7509 36.9182 26.1197 37.6558 26.8572C38.3933 27.5947 38.7621 28.4958 38.7621 29.5604C38.7621 30.6251 38.3933 31.5262 37.6558 32.2637C36.9182 33.0012 36.0172 33.37 34.9525 33.37ZM24.9011 38.0881C24.1438 38.0881 23.4954 37.8183 22.956 37.2789C22.4165 36.7395 22.1468 36.091 22.1468 35.3334V23.7875C22.1468 23.0302 22.4165 22.3818 22.956 21.8423C23.4954 21.3029 24.1438 21.0332 24.9011 21.0332H45.0036C45.7612 21.0332 46.4097 21.3029 46.9491 21.8423C47.4885 22.3818 47.7582 23.0302 47.7582 23.7875V35.3334C47.7582 36.091 47.4885 36.7395 46.9491 37.2789C46.4097 37.8183 45.7612 38.0881 45.0036 38.0881H24.9011ZM27.1868 35.8023H42.7182C42.7182 35.0425 42.988 34.3933 43.5274 33.8549C44.0668 33.3168 44.7152 33.0477 45.4725 33.0477V26.0732C44.7127 26.0732 44.0636 25.8035 43.5255 25.2641C42.9873 24.7246 42.7182 24.0763 42.7182 23.3189H27.1868C27.1868 24.0788 26.9171 24.7278 26.3777 25.266C25.8382 25.8041 25.1899 26.0732 24.4325 26.0732V33.0477C25.1924 33.0477 25.8414 33.3174 26.3796 33.8568C26.9177 34.3963 27.1868 35.0448 27.1868 35.8023ZM43.2161 43.4214H19.5681C18.8106 43.4214 18.162 43.1517 17.6226 42.6123C17.0832 42.0728 16.8135 41.4243 16.8135 40.6667V25.5753H19.0992V40.6667C19.0992 40.7838 19.148 40.8912 19.2455 40.989C19.3433 41.0868 19.4508 41.1357 19.5681 41.1357H43.2161V43.4214ZM24.9011 35.8023H24.4325V23.3189H24.9011C24.7741 23.3189 24.6643 23.3653 24.5716 23.458C24.4789 23.5507 24.4325 23.6605 24.4325 23.7875V35.3334C24.4325 35.4604 24.4789 35.5702 24.5716 35.6629C24.6643 35.7559 24.7741 35.8023 24.9011 35.8023Z" fill="#239485"/>
</g>
</svg>
