<svg width="64" height="64" viewBox="0 0 64 64" fill="none" xmlns="http://www.w3.org/2000/svg">
<circle cx="32" cy="32" r="32" fill="#E4F4ED"/>
<mask id="mask0_2365_9958" style="mask-type:alpha" maskUnits="userSpaceOnUse" x="14" y="14" width="37" height="37">
<rect x="14" y="14" width="36.5714" height="36.5714" fill="#D9D9D9"/>
</mask>
<g mask="url(#mask0_2365_9958)">
<path d="M28.1658 38.2343L32.2858 35.7349L36.4058 38.2343L35.3128 33.5486L38.9669 30.3985L34.1582 29.9943L32.2858 25.5753L30.4134 29.9943L25.6046 30.3985L29.2587 33.5486L28.1658 38.2343ZM32.2858 48.45L27.5033 43.7143H20.8572V37.0682L16.1216 32.2858L20.8572 27.5033V20.8572H27.5033L32.2858 16.1216L37.0682 20.8572H43.7143V27.5033L48.45 32.2858L43.7143 37.0682V43.7143H37.0682L32.2858 48.45ZM32.2858 45.2382L36.0953 41.4286H41.4286V36.0953L45.2382 32.2858L41.4286 28.4762V23.1429H36.0953L32.2858 19.3334L28.4762 23.1429H23.1429V28.4762L19.3334 32.2858L23.1429 36.0953V41.4286H28.4762L32.2858 45.2382Z" fill="#239485"/>
</g>
</svg>
