<svg width="64" height="64" viewBox="0 0 64 64" fill="none" xmlns="http://www.w3.org/2000/svg">
<circle cx="32" cy="32" r="32" fill="#E4F4ED"/>
<mask id="mask0_2365_9964" style="mask-type:alpha" maskUnits="userSpaceOnUse" x="14" y="14" width="37" height="37">
<rect x="14" y="14" width="36.5714" height="36.5714" fill="#D9D9D9"/>
</mask>
<g mask="url(#mask0_2365_9964)">
<path d="M34.8797 43.7143H23.9052C21.7993 43.7143 20.003 42.9838 18.5162 41.5227C17.0295 40.0616 16.2861 38.276 16.2861 36.1657C16.2861 34.2727 16.8951 32.6077 18.1132 31.1707C19.3312 29.7338 20.8418 28.8824 22.645 28.6168C23.1334 26.339 24.2788 24.4762 26.0812 23.0286C27.8833 21.581 29.9517 20.8572 32.2861 20.8572C34.7242 20.8572 36.8497 21.627 38.6625 23.1665C40.4756 24.7058 41.5892 26.6369 42.0035 28.9597C41.6068 28.9696 41.2243 29.0169 40.856 29.1017C40.4878 29.1868 40.1288 29.3016 39.7791 29.4461C39.488 27.6587 38.6359 26.1613 37.2225 24.9539C35.8089 23.7466 34.1635 23.1429 32.2861 23.1429C30.1782 23.1429 28.3814 23.8857 26.8957 25.3715C25.4099 26.8572 24.6671 28.654 24.6671 30.7619H23.8758C22.432 30.7619 21.1871 31.2826 20.141 32.3238C19.0949 33.3651 18.5718 34.6223 18.5718 36.0953C18.5718 37.5683 19.0925 38.8254 20.1338 39.8667C21.175 40.908 22.4322 41.4286 23.9052 41.4286H34.8797V43.7143ZM39.5974 43.7143C39.2073 43.7143 38.8802 43.5823 38.616 43.3181C38.3522 43.0543 38.2202 42.7271 38.2202 42.3368V37.9852C38.2202 37.5925 38.3613 37.2673 38.6435 37.0096C38.9259 36.7518 39.2684 36.6229 39.6709 36.6229V35.0991C39.6709 34.3214 39.948 33.6557 40.5021 33.1018C41.0563 32.5481 41.7225 32.2713 42.5006 32.2713C43.2788 32.2713 43.9418 32.5481 44.4896 33.1018C45.0376 33.6557 45.3117 34.3214 45.3117 35.0991V36.6229C45.7142 36.6229 46.0565 36.7518 46.3387 37.0096C46.6211 37.2673 46.7623 37.5925 46.7623 37.9852V42.3368C46.7623 42.7271 46.6303 43.0543 46.3661 43.3181C46.1023 43.5823 45.7752 43.7143 45.3848 43.7143H39.5974ZM41.0187 36.6229H43.9639V35.0991C43.9639 34.6673 43.8276 34.3127 43.5551 34.0351C43.2826 33.7578 42.9305 33.6191 42.4987 33.6191C42.067 33.6191 41.7123 33.7578 41.4347 34.0351C41.1574 34.3127 41.0187 34.6673 41.0187 35.0991V36.6229Z" fill="#239485"/>
</g>
</svg>
