<svg width="64" height="64" viewBox="0 0 64 64" fill="none" xmlns="http://www.w3.org/2000/svg">
<circle cx="32" cy="32" r="32" fill="#E4F4ED"/>
<mask id="mask0_2365_9970" style="mask-type:alpha" maskUnits="userSpaceOnUse" x="14" y="14" width="37" height="37">
<rect x="14" y="14" width="36.5714" height="36.5714" fill="#D9D9D9"/>
</mask>
<g mask="url(#mask0_2365_9970)">
<path d="M21.6192 20.0953V29.5105V29.4724V44.4762V20.0953ZM25.0478 34.9524H30.4543C30.644 34.5148 30.8648 34.108 31.1167 33.7319C31.3687 33.3557 31.652 33.0007 31.9666 32.6667H25.0478V34.9524ZM25.0478 41.0477H29.6661C29.5782 40.6667 29.52 40.2858 29.4916 39.9048C29.4634 39.5239 29.4649 39.1429 29.4962 38.762H25.0478V41.0477ZM22.0882 46.762C21.3184 46.762 20.6668 46.4953 20.1335 45.962C19.6002 45.4286 19.3335 44.7771 19.3335 44.0073V20.5642C19.3335 19.7945 19.6002 19.1429 20.1335 18.6096C20.6668 18.0762 21.3184 17.8096 22.0882 17.8096H34.1906L42.1906 25.8096V30.0145C41.8252 29.87 41.452 29.7602 41.071 29.685C40.6901 29.6098 40.3014 29.5517 39.9049 29.5105V26.9524H33.0478V20.0953H22.0882C21.9708 20.0953 21.8634 20.1442 21.7659 20.242C21.6681 20.3395 21.6192 20.4469 21.6192 20.5642V44.0073C21.6192 44.1246 21.6681 44.232 21.7659 44.3296C21.8634 44.4274 21.9708 44.4762 22.0882 44.4762H31.0786C31.3776 44.9296 31.7125 45.3481 32.0836 45.7319C32.4549 46.1159 32.8573 46.4592 33.2908 46.762H22.0882ZM39.143 43.1867C40.278 43.1867 41.2357 42.7965 42.0162 42.016C42.7966 41.2356 43.1868 40.2779 43.1868 39.1429C43.1868 38.0079 42.7966 37.0502 42.0162 36.2698C41.2357 35.4893 40.278 35.0991 39.143 35.0991C38.008 35.0991 37.0503 35.4893 36.2699 36.2698C35.4894 37.0502 35.0992 38.0079 35.0992 39.1429C35.0992 40.2779 35.4894 41.2356 36.2699 42.016C37.0503 42.7965 38.008 43.1867 39.143 43.1867ZM46.9145 48.5056L42.7415 44.3326C42.2277 44.7077 41.6647 44.9915 41.0524 45.184C40.4398 45.3763 39.8033 45.4724 39.143 45.4724C37.3848 45.4724 35.8903 44.8571 34.6596 43.6263C33.4289 42.3956 32.8135 40.9011 32.8135 39.1429C32.8135 37.3847 33.4289 35.8902 34.6596 34.6595C35.8903 33.4287 37.3848 32.8134 39.143 32.8134C40.9012 32.8134 42.3957 33.4287 43.6265 34.6595C44.8572 35.8902 45.4725 37.3847 45.4725 39.1429C45.4725 39.8032 45.3764 40.4397 45.1842 41.0522C44.9917 41.6646 44.7078 42.2276 44.3327 42.7414L48.5057 46.9143L46.9145 48.5056Z" fill="#239485"/>
</g>
</svg>
