<svg width="52" height="53" viewBox="0 0 52 53" fill="none" xmlns="http://www.w3.org/2000/svg">
<path d="M10.8335 21.4282C10.8335 21.4282 5.26191 23.5949 4.3335 31.1782M41.1668 21.4282C41.1668 21.4282 46.7384 23.5949 47.6668 31.1782M19.5002 21.4282C19.5002 21.4282 24.7002 22.6925 26.0002 29.0116C27.3002 22.6925 32.5002 21.4282 32.5002 21.4282M21.6668 37.6782C21.6668 37.6782 17.1168 38.4907 15.1668 44.1782M30.3335 37.6782C30.3335 37.6782 34.8835 38.4907 36.8335 44.1782" stroke="white" stroke-width="2" stroke-linecap="round"/>
<path d="M26.0002 39.8448C28.9917 39.8448 31.4168 37.4197 31.4168 34.4281C31.4168 31.4366 28.9917 29.0115 26.0002 29.0115C23.0086 29.0115 20.5835 31.4366 20.5835 34.4281C20.5835 37.4197 23.0086 39.8448 26.0002 39.8448Z" stroke="white" stroke-width="2" stroke-linecap="round" stroke-linejoin="round"/>
<path d="M36.8335 22.5115C40.4233 22.5115 43.3335 19.6013 43.3335 16.0115C43.3335 12.4216 40.4233 9.51147 36.8335 9.51147C33.2436 9.51147 30.3335 12.4216 30.3335 16.0115C30.3335 19.6013 33.2436 22.5115 36.8335 22.5115Z" stroke="white" stroke-width="2" stroke-linecap="round" stroke-linejoin="round"/>
<path d="M15.167 22.5115C18.7568 22.5115 21.667 19.6013 21.667 16.0115C21.667 12.4216 18.7568 9.51147 15.167 9.51147C11.5771 9.51147 8.66699 12.4216 8.66699 16.0115C8.66699 19.6013 11.5771 22.5115 15.167 22.5115Z" stroke="white" stroke-width="2" stroke-linecap="round" stroke-linejoin="round"/>
</svg>
