<svg width="16" height="20" viewBox="0 0 16 20" fill="none" xmlns="http://www.w3.org/2000/svg">
<g id="Frame 18" clip-path="url(#clip0_444_586)">
<g id="Group 21">
<g id="Group 4">
<path id="Vector" d="M0.739726 1.56808L7.96969 -0.0385818L15.1997 1.56808C15.395 1.61151 15.5698 1.72027 15.695 1.87639C15.8203 2.03252 15.8886 2.22668 15.8886 2.42684V11.2142C15.8885 12.0833 15.6739 12.9389 15.2638 13.7051C14.8537 14.4714 14.2607 15.1245 13.5376 15.6065L7.96969 19.3188L2.40182 15.6065C1.6788 15.1246 1.08592 14.4716 0.675801 13.7055C0.265679 12.9395 0.0509892 12.084 0.0507812 11.2151V2.42684C0.0508156 2.22668 0.119093 2.03252 0.244345 1.87639C0.369598 1.72027 0.544338 1.61151 0.739726 1.56808Z" fill="#2C5F2D"/>
<path id="Vector_2" d="M15.1997 1.56807L7.96973 -0.0385895V19.3187L13.5376 15.6065C14.2607 15.1245 14.8537 14.4714 15.2638 13.7051C15.674 12.9389 15.8886 12.0833 15.8886 11.2142V2.42683C15.8886 2.22667 15.8203 2.03251 15.6951 1.87638C15.5698 1.72026 15.3951 1.6115 15.1997 1.56807Z" fill="#0D4E04"/>
</g>
</g>
</g>
<defs>
<clipPath id="clip0_444_586">
<rect width="16" height="19.2727" fill="white"/>
</clipPath>
</defs>
</svg>
