<svg width="60" height="61" viewBox="0 0 60 61" fill="none" xmlns="http://www.w3.org/2000/svg">
<rect y="0.5" width="60" height="60" rx="30" fill="#EFF8F5"/>
<mask id="mask0_2656_10095" style="mask-type:alpha" maskUnits="userSpaceOnUse" x="11" y="11" width="38" height="39">
<rect x="11.0527" y="11.5527" width="37.8947" height="37.8947" fill="#D9D9D9"/>
</mask>
<g mask="url(#mask0_2656_10095)">
<path d="M30.0395 45.1841C26.8574 41.9857 24.2836 39.3551 22.318 37.2925C20.3522 35.2296 18.8284 33.4821 17.7466 32.05C16.6645 30.6179 15.9362 29.3759 15.5617 28.3241C15.1872 27.2725 15 26.1557 15 24.9736C15 22.6625 15.8038 20.7032 17.4114 19.0955C19.0191 17.4879 20.9784 16.6841 23.2895 16.6841C24.3855 16.6841 25.445 16.8784 26.4679 17.2671C27.4905 17.6558 28.4108 18.2175 29.2287 18.9522L26.7055 27.7367H31.4878L30.2218 40.7176L34.8888 25.3683H30.1216L32.6964 17.6678C33.3054 17.3399 33.945 17.0939 34.6153 16.93C35.2853 16.7661 35.9736 16.6841 36.6801 16.6841C38.9912 16.6841 40.9505 17.4879 42.5582 19.0955C44.1658 20.7032 44.9696 22.6625 44.9696 24.9736C44.9696 26.1659 44.7707 27.3036 44.3728 28.3865C43.9751 29.4696 43.2262 30.7388 42.1259 32.1941C41.0257 33.6496 39.5045 35.3996 37.5624 37.4441C35.62 39.4886 33.1124 42.0686 30.0395 45.1841ZM27.9809 39.7245L28.9011 30.1051H23.5689L26.4837 19.9055C25.9918 19.6547 25.4755 19.4499 24.9347 19.2909C24.3942 19.132 23.8458 19.0525 23.2895 19.0525C21.6542 19.0525 20.2586 19.6305 19.1025 20.7866C17.9464 21.9426 17.3684 23.3383 17.3684 24.9736C17.3684 25.8096 17.5349 26.6608 17.8678 27.5271C18.2009 28.3937 18.7754 29.3871 19.5912 30.5074C20.407 31.6279 21.4986 32.927 22.8659 34.4046C24.2333 35.8825 25.9383 37.6558 27.9809 39.7245ZM33.3521 38.4222C36.7589 34.9322 39.1522 32.207 40.532 30.2465C41.9114 28.2859 42.6012 26.5283 42.6012 24.9736C42.6012 23.3383 42.0232 21.9426 40.8671 20.7866C39.7111 19.6305 38.3154 19.0525 36.6801 19.0525C36.3299 19.0525 35.9847 19.0849 35.6447 19.1496C35.3047 19.2143 34.9646 19.3045 34.6243 19.42L33.4492 22.9999H38.0436L33.3521 38.4222Z" fill="#239485"/>
</g>
</svg>
