<svg xmlns="http://www.w3.org/2000/svg" width="20" height="21" viewBox="0 0 20 21" fill="none">
<mask id="mask0_616_538" style="mask-type:alpha" maskUnits="userSpaceOnUse" x="0" y="0" width="20" height="21">
<rect y="0.5" width="20" height="20" fill="#D9D9D9"/>
</mask>
<g mask="url(#mask0_616_538)">
<path d="M6.66667 17.1667C6.20833 17.1667 5.81597 17.0035 5.48958 16.6771C5.16319 16.3507 5 15.9583 5 15.5V13H7.5V11.125C7.01389 11.0972 6.55208 10.9896 6.11458 10.8021C5.67708 10.6146 5.27778 10.3333 4.91667 9.95834V9.04167H3.95833L1.25 6.33334C1.75 5.69445 2.36806 5.24306 3.10417 4.97917C3.84028 4.71528 4.58333 4.58334 5.33333 4.58334C5.70833 4.58334 6.07292 4.61111 6.42708 4.66667C6.78125 4.72222 7.13889 4.82639 7.5 4.97917V3.83334H17.5V14.6667C17.5 15.3611 17.2569 15.9514 16.7708 16.4375C16.2847 16.9236 15.6944 17.1667 15 17.1667H6.66667ZM9.16667 13H14.1667V14.6667C14.1667 14.9028 14.2465 15.1007 14.4062 15.2604C14.566 15.4201 14.7639 15.5 15 15.5C15.2361 15.5 15.434 15.4201 15.5937 15.2604C15.7535 15.1007 15.8333 14.9028 15.8333 14.6667V5.5H9.16667V6L14.1667 11V12.1667H13L10.625 9.79167L10.4583 9.95834C10.2639 10.1528 10.059 10.3264 9.84375 10.4792C9.62847 10.6319 9.40278 10.75 9.16667 10.8333V13ZM4.66667 7.375H6.58333V9.16667C6.75 9.27778 6.92361 9.35417 7.10417 9.39584C7.28472 9.4375 7.47222 9.45834 7.66667 9.45834C7.98611 9.45834 8.27431 9.40973 8.53125 9.3125C8.78819 9.21528 9.04167 9.04167 9.29167 8.79167L9.45833 8.625L8.29167 7.45834C7.88889 7.05556 7.4375 6.75347 6.9375 6.55209C6.4375 6.3507 5.90278 6.25 5.33333 6.25C5.05556 6.25 4.79167 6.27084 4.54167 6.3125C4.29167 6.35417 4.04167 6.41667 3.79167 6.5L4.66667 7.375ZM12.5 14.6667H6.66667V15.5H12.625C12.5833 15.375 12.5521 15.2431 12.5312 15.1042C12.5104 14.9653 12.5 14.8194 12.5 14.6667Z" fill="#212121"/>
</g>
</svg>