<svg xmlns="http://www.w3.org/2000/svg" width="20" height="21" viewBox="0 0 20 21" fill="none">
  <mask id="mask0_616_542" style="mask-type:alpha" maskUnits="userSpaceOnUse" x="0" y="0" width="20" height="21">
    <rect y="0.5" width="20" height="20" fill="#D9D9D9"/>
  </mask>
  <g mask="url(#mask0_616_542)">
    <path d="M1.66666 18V16.3333H9.16666V7.02083C8.80555 6.89583 8.49305 6.70139 8.22916 6.4375C7.96527 6.17361 7.77082 5.86111 7.64582 5.5H4.99999L7.49999 11.3333C7.49999 12.0278 7.21527 12.6181 6.64582 13.1042C6.07638 13.5903 5.38888 13.8333 4.58332 13.8333C3.77777 13.8333 3.09027 13.5903 2.52082 13.1042C1.95138 12.6181 1.66666 12.0278 1.66666 11.3333L4.16666 5.5H2.49999V3.83333H7.64582C7.81249 3.34722 8.1111 2.94791 8.54166 2.63541C8.97221 2.32291 9.45832 2.16666 9.99999 2.16666C10.5417 2.16666 11.0278 2.32291 11.4583 2.63541C11.8889 2.94791 12.1875 3.34722 12.3542 3.83333H17.5V5.5H15.8333L18.3333 11.3333C18.3333 12.0278 18.0486 12.6181 17.4792 13.1042C16.9097 13.5903 16.2222 13.8333 15.4167 13.8333C14.6111 13.8333 13.9236 13.5903 13.3542 13.1042C12.7847 12.6181 12.5 12.0278 12.5 11.3333L15 5.5H12.3542C12.2292 5.86111 12.0347 6.17361 11.7708 6.4375C11.5069 6.70139 11.1944 6.89583 10.8333 7.02083V16.3333H18.3333V18H1.66666ZM13.8542 11.3333H16.9792L15.4167 7.70833L13.8542 11.3333ZM3.02082 11.3333H6.14582L4.58332 7.70833L3.02082 11.3333ZM9.99999 5.5C10.2361 5.5 10.434 5.42014 10.5937 5.26041C10.7535 5.10069 10.8333 4.90278 10.8333 4.66666C10.8333 4.43055 10.7535 4.23264 10.5937 4.07291C10.434 3.91319 10.2361 3.83333 9.99999 3.83333C9.76388 3.83333 9.56596 3.91319 9.40624 4.07291C9.24652 4.23264 9.16666 4.43055 9.16666 4.66666C9.16666 4.90278 9.24652 5.10069 9.40624 5.26041C9.56596 5.42014 9.76388 5.5 9.99999 5.5Z" fill="#212121"/>
  </g>
</svg>