<svg width="31" height="31" viewBox="0 0 31 31" fill="none" xmlns="http://www.w3.org/2000/svg">
<g id="Group 6761">
<path id="Vector" d="M13.5233 26.9014C20.703 26.9014 26.5233 21.0811 26.5233 13.9014C26.5233 6.72166 20.703 0.901367 13.5233 0.901367C6.34361 0.901367 0.523315 6.72166 0.523315 13.9014C0.523315 21.0811 6.34361 26.9014 13.5233 26.9014Z" stroke="white" stroke-linecap="round" stroke-linejoin="round"/>
<path id="Vector_2" d="M13.5233 24.4014C19.3223 24.4014 24.0233 19.7004 24.0233 13.9014C24.0233 8.10238 19.3223 3.40137 13.5233 3.40137C7.72433 3.40137 3.02332 8.10238 3.02332 13.9014C3.02332 19.7004 7.72433 24.4014 13.5233 24.4014Z" stroke="white" stroke-linecap="round" stroke-linejoin="round"/>
<path id="Vector_3" d="M30.0233 30.4014L26.5233 26.9014L23.0233 23.4014" stroke="white" stroke-linecap="round" stroke-linejoin="round"/>
</g>
</svg>
