<svg width="31" height="37" viewBox="0 0 31 37" fill="none" xmlns="http://www.w3.org/2000/svg">
<g id="Group 4">
<path id="Vector" d="M28.8192 4.10718C29.0426 4.1569 29.2454 4.27159 29.4022 4.43628L29.4667 4.50952C29.6303 4.71352 29.7196 4.96774 29.7196 5.22925V21.7048L29.7147 21.9949C29.673 23.3457 29.3409 24.672 28.7401 25.8826L28.6073 26.1394C27.9228 27.4182 26.9517 28.5202 25.7723 29.3601L25.5341 29.5251L15.371 36.2996L5.20886 29.5251C4.00196 28.7206 2.99855 27.6481 2.27625 26.3933L2.13562 26.1404C1.40557 24.7766 1.0237 23.2536 1.02332 21.7068V5.22925L1.02722 5.13159C1.04376 4.93729 1.10997 4.75054 1.21863 4.58862L1.27625 4.50952C1.41944 4.33107 1.61205 4.1996 1.82898 4.13159L1.92371 4.10718L15.371 1.11792L28.8192 4.10718Z" stroke="white"/>
<path id="Vector_2" d="M26.412 6.79468C26.5546 6.82647 26.6857 6.8941 26.7939 6.98999L26.8935 7.09448C27.0154 7.24649 27.0819 7.43573 27.082 7.63062V21.1814C27.0818 22.2817 26.8446 23.3671 26.3876 24.364L26.1777 24.7859C25.6583 25.7563 24.937 26.6019 24.0634 27.2654L23.6796 27.5378L15.371 33.0769L7.06244 27.5378C6.14709 26.9276 5.37584 26.128 4.79974 25.1951L4.56439 24.7869C3.97085 23.6782 3.66043 22.4399 3.6601 21.1824V7.63062L3.67279 7.48608C3.68906 7.39123 3.72087 7.29975 3.76752 7.21558L3.84857 7.09448C3.94002 6.98054 4.05855 6.89238 4.19232 6.83765L4.33099 6.79468L15.371 4.34058L26.412 6.79468Z" stroke="white"/>
</g>
</svg>
