<svg width="35" height="35" viewBox="0 0 35 35" fill="none" xmlns="http://www.w3.org/2000/svg">
<g id="tag">
<path id="Vector" d="M29.6925 19.3988L19.535 29.5563C19.2719 29.8197 18.9594 30.0287 18.6154 30.1713C18.2714 30.3139 17.9028 30.3873 17.5304 30.3873C17.1581 30.3873 16.7894 30.3139 16.4454 30.1713C16.1015 30.0287 15.789 29.8197 15.5258 29.5563L3.35666 17.4013V3.23462H17.5233L29.6925 15.4038C30.2202 15.9346 30.5164 16.6528 30.5164 17.4013C30.5164 18.1498 30.2202 18.8679 29.6925 19.3988Z" stroke="white" stroke-linecap="round" stroke-linejoin="round"/>
<path id="Vector_2" d="M18.2214 27.8154L27.9462 18.0341C28.3322 17.6458 28.3342 17.0193 27.9508 16.6286L16.8872 5.35571L5.51358 5.54467V16.7294L16.8116 27.8238C17.2039 28.2091 17.8337 28.2053 18.2214 27.8154Z" stroke="white" stroke-linecap="round" stroke-linejoin="round"/>
<path id="Vector_3" d="M10.44 10.3181H10.4536" stroke="white" stroke-width="2" stroke-linecap="round" stroke-linejoin="round"/>
</g>
</svg>
