<svg width="20" height="20" viewBox="0 0 20 20" fill="none" xmlns="http://www.w3.org/2000/svg">
<mask id="mask0_1159_4863" style="mask-type:alpha" maskUnits="userSpaceOnUse" x="0" y="0" width="20" height="20">
<rect width="20" height="20" fill="#D9D9D9"/>
</mask>
<g mask="url(#mask0_1159_4863)">
<path d="M9.9974 8.49025L7.28594 11.2017L8.0599 11.9757L9.45573 10.5798V13.9132H10.5391V10.5798L11.9349 11.9757L12.7089 11.2017L9.9974 8.49025ZM4.4974 6.91963V15.2434C4.4974 15.3182 4.52142 15.3797 4.56948 15.4278C4.61753 15.4758 4.67899 15.4998 4.75385 15.4998H15.2409C15.3158 15.4998 15.3773 15.4758 15.4253 15.4278C15.4734 15.3797 15.4974 15.3182 15.4974 15.2434V6.91963H4.4974ZM4.81802 16.5832C4.44816 16.5832 4.1217 16.4416 3.83865 16.1586C3.55559 15.8755 3.41406 15.5491 3.41406 15.1792V6.02546C3.41406 5.84713 3.44788 5.67699 3.51552 5.51505C3.58302 5.35324 3.68434 5.20393 3.81948 5.06713L5.07281 3.79796C5.20948 3.66116 5.35566 3.56338 5.51135 3.50463C5.66705 3.44588 5.83226 3.4165 6.00698 3.4165H13.9718C14.1465 3.4165 14.313 3.44588 14.4714 3.50463C14.6297 3.56338 14.7773 3.66116 14.9141 3.79796L16.1753 5.08317C16.3105 5.21998 16.4118 5.3706 16.4793 5.53505C16.5469 5.69963 16.5807 5.87116 16.5807 6.04963V15.1792C16.5807 15.5491 16.4392 15.8755 16.1561 16.1586C15.8731 16.4416 15.5466 16.5832 15.1768 16.5832H4.81802ZM4.61448 5.8365H15.3724L14.172 4.58796C14.1453 4.5613 14.1146 4.53991 14.0799 4.5238C14.0452 4.50782 14.0091 4.49984 13.9718 4.49984H6.0151C5.97774 4.49984 5.94163 4.50782 5.90677 4.5238C5.87205 4.53991 5.84135 4.5613 5.81469 4.58796L4.61448 5.8365Z" fill="#545454"/>
</g>
</svg>
