<svg width="60" height="60" viewBox="0 0 60 60" fill="none" xmlns="http://www.w3.org/2000/svg">
<rect width="60" height="60" rx="30" fill="#EFF8F5"/>
<mask id="mask0_2545_9729" style="mask-type:alpha" maskUnits="userSpaceOnUse" x="11" y="11" width="38" height="38">
<rect x="11.0527" y="11.0527" width="37.8947" height="37.8947" fill="#D9D9D9"/>
</mask>
<g mask="url(#mask0_2545_9729)">
<path d="M30.0395 44.6843C26.8574 41.4859 24.2836 38.8554 22.318 36.7927C20.3522 34.7299 18.8284 32.9824 17.7466 31.5502C16.6645 30.1181 15.9362 28.8762 15.5617 27.8243C15.1872 26.7727 15 25.6559 15 24.4738C15 22.1627 15.8038 20.2034 17.4114 18.5958C19.0191 16.9881 20.9784 16.1843 23.2895 16.1843C24.3855 16.1843 25.445 16.3787 26.4679 16.7674C27.4905 17.156 28.4108 17.7177 29.2287 18.4525L26.7055 27.237H31.4878L30.2218 40.2179L34.8888 24.8685H30.1216L32.6964 17.168C33.3054 16.8401 33.945 16.5942 34.6153 16.4302C35.2853 16.2663 35.9736 16.1843 36.6801 16.1843C38.9912 16.1843 40.9505 16.9881 42.5582 18.5958C44.1658 20.2034 44.9696 22.1627 44.9696 24.4738C44.9696 25.6662 44.7707 26.8038 44.3728 27.8867C43.9751 28.9699 43.2262 30.2391 42.1259 31.6943C41.0257 33.1499 39.5045 34.8999 37.5624 36.9443C35.62 38.9888 33.1124 41.5688 30.0395 44.6843ZM27.9809 39.2247L28.9011 29.6054H23.5689L26.4837 19.4058C25.9918 19.155 25.4755 18.9501 24.9347 18.7912C24.3942 18.6322 23.8458 18.5527 23.2895 18.5527C21.6542 18.5527 20.2586 19.1308 19.1025 20.2868C17.9464 21.4429 17.3684 22.8385 17.3684 24.4738C17.3684 25.3099 17.5349 26.161 17.8678 27.0274C18.2009 27.8939 18.7754 28.8874 19.5912 30.0076C20.407 31.1281 21.4986 32.4272 22.8659 33.9049C24.2333 35.3827 25.9383 37.156 27.9809 39.2247ZM33.3521 37.9225C36.7589 34.4325 39.1522 31.7072 40.532 29.7467C41.9114 27.7862 42.6012 26.0285 42.6012 24.4738C42.6012 22.8385 42.0232 21.4429 40.8671 20.2868C39.7111 19.1308 38.3154 18.5527 36.6801 18.5527C36.3299 18.5527 35.9847 18.5851 35.6447 18.6499C35.3047 18.7146 34.9646 18.8047 34.6243 18.9202L33.4492 22.5001H38.0436L33.3521 37.9225Z" fill="#239485"/>
</g>
</svg>
