<svg width="60" height="60" viewBox="0 0 60 60" fill="none" xmlns="http://www.w3.org/2000/svg">
<rect width="60" height="60" rx="30" fill="#EFF8F5"/>
<mask id="mask0_2545_9711" style="mask-type:alpha" maskUnits="userSpaceOnUse" x="11" y="11" width="38" height="38">
<rect x="11.0527" y="11.0527" width="37.8947" height="37.8947" fill="#D9D9D9"/>
</mask>
<g mask="url(#mask0_2545_9711)">
<path d="M32.7632 31.1235C31.66 31.1235 30.7263 30.7414 29.9621 29.9772C29.1979 29.213 28.8158 28.2793 28.8158 27.1761C28.8158 26.073 29.1979 25.1393 29.9621 24.3751C30.7263 23.6109 31.66 23.2288 32.7632 23.2288C33.8663 23.2288 34.8 23.6109 35.5642 24.3751C36.3284 25.1393 36.7105 26.073 36.7105 27.1761C36.7105 28.2793 36.3284 29.213 35.5642 29.9772C34.8 30.7414 33.8663 31.1235 32.7632 31.1235ZM22.348 36.0123C21.5633 36.0123 20.8915 35.7328 20.3325 35.1739C19.7736 34.6149 19.4941 33.943 19.4941 33.158V21.1943C19.4941 20.4095 19.7736 19.7377 20.3325 19.1788C20.8915 18.6198 21.5633 18.3403 22.348 18.3403H43.1779C43.9629 18.3403 44.6349 18.6198 45.1938 19.1788C45.7528 19.7377 46.0322 20.4095 46.0322 21.1943V33.158C46.0322 33.943 45.7528 34.6149 45.1938 35.1739C44.6349 35.7328 43.9629 36.0123 43.1779 36.0123H22.348ZM24.7165 33.6439H40.8099C40.8099 32.8565 41.0894 32.1839 41.6483 31.626C42.2073 31.0684 42.8791 30.7895 43.6638 30.7895V23.5627C42.8765 23.5627 42.204 23.2832 41.6463 22.7243C41.0887 22.1653 40.8099 21.4935 40.8099 20.7088H24.7165C24.7165 21.4961 24.437 22.1686 23.878 22.7263C23.3191 23.2839 22.6472 23.5627 21.8625 23.5627V30.7895C22.6499 30.7895 23.3224 31.069 23.88 31.628C24.4376 32.1869 24.7165 32.8589 24.7165 33.6439ZM41.3258 41.5386H16.8221C16.0371 41.5386 15.3651 41.2591 14.8062 40.7002C14.2472 40.1413 13.9678 39.4693 13.9678 38.6843V23.0468H16.3362V38.6843C16.3362 38.8056 16.3867 38.9169 16.4878 39.0182C16.5891 39.1195 16.7005 39.1702 16.8221 39.1702H41.3258V41.5386ZM22.348 33.6439H21.8625V20.7088H22.348C22.2165 20.7088 22.1026 20.7568 22.0066 20.8528C21.9105 20.9489 21.8625 21.0627 21.8625 21.1943V33.158C21.8625 33.2895 21.9105 33.4034 22.0066 33.4994C22.1026 33.5957 22.2165 33.6439 22.348 33.6439Z" fill="#239485"/>
</g>
</svg>
