<svg width="60" height="60" viewBox="0 0 60 60" fill="none" xmlns="http://www.w3.org/2000/svg">
<rect width="60" height="60" rx="30" fill="#EFF8F5"/>
<mask id="mask0_2545_9679" style="mask-type:alpha" maskUnits="userSpaceOnUse" x="11" y="11" width="38" height="38">
<rect x="11.0527" y="11.0527" width="37.8947" height="37.8947" fill="#D9D9D9"/>
</mask>
<g mask="url(#mask0_2545_9679)">
<path d="M15 43.4211V41.0526H28.8158V23.4991C28.1013 23.3128 27.4763 22.9595 26.9408 22.4392C26.4053 21.9189 26.0393 21.2813 25.843 20.5263H20.6175L25.2632 31.7459C25.2329 32.9301 24.7187 33.9372 23.7205 34.7672C22.7226 35.5972 21.5263 36.0122 20.1316 36.0122C18.7368 36.0122 17.5405 35.5972 16.5426 34.7672C15.5447 33.9372 15.0305 32.9301 15 31.7459L19.6457 20.5263H16.5789V18.1579H25.843C26.088 17.2571 26.5905 16.5057 27.3505 15.9036C28.1108 15.3012 28.9939 15 30 15C31.0061 15 31.8892 15.3012 32.6495 15.9036C33.4095 16.5057 33.912 17.2571 34.157 18.1579H43.4211V20.5263H40.3543L45 31.7459C44.9695 32.9301 44.4553 33.9372 43.4574 34.7672C42.4595 35.5972 41.2632 36.0122 39.8684 36.0122C38.4737 36.0122 37.2774 35.5972 36.2795 34.7672C35.2813 33.9372 34.7671 32.9301 34.7368 31.7459L39.3825 20.5263H34.157C33.9607 21.2813 33.5947 21.9189 33.0592 22.4392C32.5237 22.9595 31.8987 23.3128 31.1842 23.4991V41.0526H45V43.4211H15ZM36.8017 31.6701H42.9351L39.8684 24.2704L36.8017 31.6701ZM17.0649 31.6701H23.1983L20.1316 24.2704L17.0649 31.6701ZM30 21.3158C30.5487 21.3158 31.0147 21.1239 31.3982 20.7403C31.7818 20.3568 31.9737 19.8908 31.9737 19.3421C31.9737 18.7934 31.7818 18.3274 31.3982 17.9439C31.0147 17.5603 30.5487 17.3684 30 17.3684C29.4513 17.3684 28.9853 17.5603 28.6018 17.9439C28.2182 18.3274 28.0263 18.7934 28.0263 19.3421C28.0263 19.8908 28.2182 20.3568 28.6018 20.7403C28.9853 21.1239 29.4513 21.3158 30 21.3158Z" fill="#239485"/>
</g>
</svg>
