<svg width="60" height="60" viewBox="0 0 60 60" fill="none" xmlns="http://www.w3.org/2000/svg">
<rect width="60" height="60" rx="30" fill="#EFF8F5"/>
<mask id="mask0_2545_9720" style="mask-type:alpha" maskUnits="userSpaceOnUse" x="11" y="11" width="38" height="38">
<rect x="11.0527" y="11.0527" width="37.8947" height="37.8947" fill="#D9D9D9"/>
</mask>
<g mask="url(#mask0_2545_9720)">
<path d="M29.9953 15C32.0713 15 34.0178 15.3942 35.8346 16.1826C37.6514 16.9711 39.2389 18.0445 40.5971 19.4029C41.9555 20.7611 43.0289 22.348 43.8174 24.1638C44.6058 25.9793 45 27.9263 45 30.0047C45 32.0582 44.6058 33.9974 43.8174 35.8224C43.0289 37.6474 41.9555 39.2389 40.5971 40.5971C39.2389 41.9555 37.652 43.0289 35.8362 43.8174C34.0207 44.6058 32.0737 45 29.9953 45C27.9418 45 26.0033 44.6066 24.1796 43.8197C22.3562 43.0329 20.7638 41.9588 19.4025 40.5975C18.0412 39.2362 16.9671 37.6438 16.1803 35.8204C15.3934 33.9967 15 32.0582 15 30.0047C15 27.9263 15.3942 25.9793 16.1826 24.1638C16.9711 22.348 18.0445 20.7611 19.4029 19.4029C20.7611 18.0445 22.3532 16.9711 24.1792 16.1826C26.0053 15.3942 27.9439 15 29.9953 15ZM30 42.6316C33.5 42.6316 36.4803 41.4013 38.9408 38.9408C41.4013 36.4803 42.6316 33.5 42.6316 30C42.6316 26.5 41.4013 23.5197 38.9408 21.0592C36.4803 18.5987 33.5 17.3684 30 17.3684C26.5 17.3684 23.5197 18.5987 21.0592 21.0592C18.5987 23.5197 17.3684 26.5 17.3684 30C17.3684 33.5 18.5987 36.4803 21.0592 38.9408C23.5197 41.4013 26.5 42.6316 30 42.6316ZM27.0849 22.7128C27.0849 23.5204 27.3688 24.208 27.9367 24.7757C28.5046 25.3436 29.1924 25.6275 30 25.6275C30.8076 25.6275 31.4954 25.3436 32.0633 24.7757C32.6312 24.208 32.9151 23.5204 32.9151 22.7128C32.9151 21.9049 32.6312 21.2171 32.0633 20.6495C31.4954 20.0816 30.8076 19.7976 30 19.7976C29.1924 19.7976 28.5046 20.0816 27.9367 20.6495C27.3688 21.2171 27.0849 21.9049 27.0849 22.7128ZM30 27.0849C28.7126 27.0849 27.2976 27.4007 25.755 28.0322C24.2126 28.6638 23.4414 29.5626 23.4414 30.7287V36.5586C23.4414 37.6351 24.2071 38.5404 25.7384 39.2743C27.2697 40.0083 28.9332 40.3014 30.7287 40.1538V37.2336C29.8845 37.2822 29.0884 37.2214 28.3405 37.0512C27.5926 36.8807 26.9312 36.6213 26.3562 36.2732C26.4675 35.7187 26.8926 35.2633 27.6316 34.907C28.3705 34.5507 29.16 34.3725 30 34.3725C30.84 34.3725 31.6572 34.5628 32.4517 34.9433C33.2464 35.3238 33.6438 35.8157 33.6438 36.4188V39.5041C34.7004 39.1336 35.4504 38.675 35.8938 38.1284C36.337 37.5818 36.5586 37.0586 36.5586 36.5586V30.7287C36.5586 29.5626 35.7874 28.6638 34.245 28.0322C32.7024 27.4007 31.2874 27.0849 30 27.0849ZM29.998 33.6438C29.4872 33.6438 29.0562 33.4675 28.7049 33.1149C28.3538 32.7622 28.1783 32.3305 28.1783 31.8197C28.1783 31.3089 28.3546 30.878 28.7072 30.527C29.0599 30.1757 29.4914 30 30.002 30C30.5128 30 30.9438 30.1763 31.2951 30.5289C31.6462 30.8816 31.8217 31.3133 31.8217 31.8241C31.8217 32.3346 31.6454 32.7655 31.2928 33.1168C30.9401 33.4682 30.5086 33.6438 29.998 33.6438Z" fill="#239485"/>
</g>
</svg>
