<svg width="60" height="60" viewBox="0 0 60 60" fill="none" xmlns="http://www.w3.org/2000/svg">
<rect width="60" height="60" rx="30" fill="#EFF8F5"/>
<mask id="mask0_2545_9702" style="mask-type:alpha" maskUnits="userSpaceOnUse" x="11" y="11" width="38" height="38">
<rect x="11.0527" y="11.0527" width="37.8947" height="37.8947" fill="#D9D9D9"/>
</mask>
<g mask="url(#mask0_2545_9702)">
<path d="M20.9609 34.4619C21.2655 34.462 21.5537 34.5343 21.8389 34.6895C22.1169 34.8409 22.342 35.0491 22.5225 35.3281L22.5381 35.3516L22.5537 35.374C23.4264 36.5739 24.5164 37.5153 25.8164 38.1875C27.1195 38.8612 28.5187 39.1982 30 39.1982C31.4953 39.1982 32.9049 38.8623 34.2139 38.1885C35.5213 37.5155 36.6091 36.5707 37.4678 35.3652L37.4668 35.3643C37.6875 35.061 37.94 34.8412 38.2207 34.6855C38.5025 34.5293 38.7711 34.462 39.0391 34.4619H43.8936C44.385 34.478 44.7655 34.6474 45.0908 34.9824V34.9834C45.4166 35.3189 45.5791 35.712 45.5791 36.2246V41.1455H37.3154V36.4092L35.709 37.6377C34.8936 38.2608 34.0029 38.7369 33.0342 39.0693C32.0708 39.3998 31.061 39.5664 30 39.5664C29.0976 39.5664 28.2211 39.4385 27.3672 39.1826L27.0029 39.0654C26.029 38.7297 25.1293 38.2503 24.3018 37.625L22.6992 36.4141V41.1455H14.4365V36.2246C14.4365 35.7135 14.5995 35.3213 14.9277 34.9854V34.9844C15.2607 34.6435 15.6372 34.4779 16.1064 34.4619H20.9609ZM17.8242 23.5908C18.7885 23.5909 19.56 23.9107 20.2031 24.5537C20.8461 25.1965 21.166 25.9688 21.166 26.9336C21.1659 27.8654 20.8509 28.6359 20.1982 29.2988C19.5539 29.9533 18.7836 30.2753 17.8242 30.2754C16.8974 30.2754 16.129 29.957 15.4648 29.293C14.8007 28.6289 14.4815 27.8604 14.4814 26.9336C14.4814 25.9738 14.8046 25.2036 15.459 24.5596C16.122 23.9068 16.8923 23.5908 17.8242 23.5908ZM42.1758 23.5908C43.1403 23.5908 43.9125 23.9106 44.5557 24.5537C45.1987 25.1965 45.5186 25.9688 45.5186 26.9336C45.5185 27.8654 45.2025 28.6359 44.5498 29.2988C43.9055 29.9531 43.1351 30.2754 42.1758 30.2754C41.249 30.2753 40.4805 29.9571 39.8164 29.293C39.1523 28.6289 38.8341 27.8604 38.834 26.9336C38.834 25.9739 39.1563 25.2035 39.8105 24.5596C40.4735 23.9069 41.244 23.5909 42.1758 23.5908ZM33.5625 19.9639L30.001 23.5156L26.4492 19.9639L30.001 16.4121L33.5625 19.9639Z" stroke="#239485" stroke-width="2"/>
</g>
</svg>
