<svg xmlns="http://www.w3.org/2000/svg" width="622" height="193" fill="none"><g clip-path="url(#a)"><path stroke="#fff" stroke-width="2.018" d="M0-1.009h65.55" transform="matrix(1 .0002 0 -1 8 183)"/><path stroke="#fff" stroke-width="2.018" d="M0-1.009h65.55" transform="matrix(1 .0002 0 -1 549.284 183)"/><path fill="#fff" d="M99.228 190v-13.292h3.943c2.44 0 4.656.864 4.656 3.642 0 2.91-2.478 3.68-4.356 3.68h-2.666V190zm1.577-11.828v4.394h2.666c1.577 0 2.666-.714 2.666-2.197s-1.089-2.197-2.666-2.197zM118.242 190v-13.292h1.577v11.828h6.083V190zm15.732 0 5.858-13.292h1.483L146.966 190h-1.84l-1.352-3.267h-6.646l-1.37 3.267zm9.2-4.731-2.629-6.533h-.037l-2.76 6.533zM156.618 190v-13.292h1.99l7.697 11.039h.038v-11.039h1.577V190h-1.991l-7.697-11.039h-.037V190zm23.454-2.14c.62 0 1.127.507 1.127 1.126 0 .62-.545 1.127-1.127 1.127s-1.126-.507-1.126-1.127a1.13 1.13 0 0 1 1.126-1.126m25.263 2.14v-13.292h3.943c2.44 0 4.656.864 4.656 3.642 0 2.91-2.479 3.68-4.356 3.68h-2.666V190zm1.577-11.828v4.394h2.666c1.577 0 2.666-.714 2.666-2.197s-1.089-2.197-2.666-2.197zM224.349 190v-13.292h3.398c2.572 0 5.294.376 5.294 3.661 0 1.934-1.258 3.192-3.323 3.511l3.774 6.12h-1.934l-3.605-5.97h-2.027V190zm1.577-11.828v4.394h1.408c1.746 0 4.017 0 4.017-2.197 0-1.915-1.67-2.197-3.21-2.197zm23.961 12.166c-4.036 0-6.946-2.966-6.946-6.984s2.91-6.984 6.946-6.984c4.037 0 6.947 2.966 6.947 6.984s-2.91 6.984-6.947 6.984m0-1.464c3.117 0 5.257-2.46 5.257-5.52s-2.14-5.519-5.257-5.519-5.256 2.459-5.256 5.519 2.14 5.52 5.256 5.52m26.284-12.166v1.464h-4.394V190H270.2v-11.828h-4.393v-1.464zM285.918 190v-13.292h8.355v1.464h-6.778v4.168h6.327v1.465h-6.327v4.731h7.116V190zm29.696-11.546-1.37.995c-.789-1.07-2.047-1.614-3.323-1.614-2.966 0-5.069 2.609-5.069 5.519 0 3.079 2.084 5.52 5.069 5.52 1.614 0 2.91-.658 3.849-1.859l1.182.995c-1.182 1.596-2.91 2.328-5.031 2.328-3.811 0-6.759-2.948-6.759-6.984 0-3.905 2.816-6.984 6.759-6.984 1.802 0 3.567.62 4.693 2.084m19.339-1.746v1.464h-4.393V190h-1.577v-11.828h-4.393v-1.464zm8.615 11.152c.62 0 1.127.507 1.127 1.126 0 .62-.545 1.127-1.127 1.127-.581 0-1.126-.507-1.126-1.127a1.13 1.13 0 0 1 1.126-1.126m25.263 2.14v-13.292h3.943c2.44 0 4.656.864 4.656 3.642 0 2.91-2.478 3.68-4.356 3.68h-2.666V190zm1.577-11.828v4.394h2.666c1.577 0 2.666-.714 2.666-2.197s-1.089-2.197-2.666-2.197zM387.845 190v-13.292h3.398c2.572 0 5.294.376 5.294 3.661 0 1.934-1.257 3.192-3.323 3.511l3.774 6.12h-1.934l-3.604-5.97h-2.028V190zm1.577-11.828v4.394h1.408c1.746 0 4.018 0 4.018-2.197 0-1.915-1.671-2.197-3.211-2.197zM407.207 190v-13.292h8.354v1.464h-6.777v4.168h6.327v1.465h-6.327v4.731h7.115V190zm26.617-12.072-1.295 1.127c-.526-.845-1.465-1.22-2.422-1.22-1.389 0-2.835.657-2.835 2.234 0 1.22.676 1.764 2.797 2.44 2.066.657 3.98 1.333 3.98 3.943 0 2.647-2.271 3.886-4.674 3.886-1.54 0-3.192-.507-4.093-1.84l1.352-1.108c.563.977 1.689 1.484 2.835 1.484 1.351 0 2.891-.789 2.891-2.31 0-1.633-1.108-1.915-3.473-2.703-1.878-.62-3.305-1.446-3.305-3.661 0-2.553 2.197-3.83 4.525-3.83 1.483 0 2.741.413 3.717 1.558M444.538 190v-13.292h8.354v1.464h-6.777v4.168h6.327v1.465h-6.327v4.731h7.115V190zm19.013 0v-13.292h3.399c2.572 0 5.294.376 5.294 3.661 0 1.934-1.258 3.192-3.323 3.511l3.773 6.12h-1.933l-3.605-5.97h-2.028V190zm1.577-11.828v4.394h1.409c1.745 0 4.017 0 4.017-2.197 0-1.915-1.671-2.197-3.21-2.197zM485.85 190l-5.088-13.292h1.784l4.093 10.926h.037l4.224-10.926h1.671l-5.2 13.292zm16.095 0v-13.292h8.355v1.464h-6.777v4.168h6.326v1.465h-6.326v4.731h7.115V190zm19.972-2.14a1.13 1.13 0 0 1 1.126 1.126c0 .62-.544 1.127-1.126 1.127s-1.127-.507-1.127-1.127a1.13 1.13 0 0 1 1.127-1.126"/><mask id="b" width="615" height="58" x="7.962" y="102" fill="#000" maskUnits="userSpaceOnUse"><path fill="#fff" d="M7.962 102h615v58h-615z"/><path d="M19.95 104.083v54.168h-5.03v-54.168zm20.894 51.769v2.399H19.717v-2.399zm4.72-10.137-4.488 12.536H28.23l2.786-2.399q4.102 0 6.655-1.238 2.63-1.316 4.256-3.637 1.625-2.322 2.863-5.262zm-30.411 6.887v5.649h-6.19v-.774h1.0050000000000001q2.012 0 3.405-1.393 1.47-1.47 1.548-3.482zm0-42.87h-.232q-.078-2.011-1.548-3.405-1.394-1.47-3.405-1.47H8.962v-.774h6.19zm4.565 0v-5.649h6.19v.774h-1.0050000000000001q-2.012 0-3.482 1.47-1.393 1.394-1.47 3.405zM59.456 111.822v46.429h-4.953v-46.429zm20.816 44.03-.155 2.399H59.3v-2.399zm-3.638-21.977v2.322H59.302v-2.322zm3.56-22.053v2.398H59.301v-2.398zm4.41 35.363-4.255 11.066H68.587l2.63-2.399q3.87 0 6.191-1.083 2.4-1.161 3.87-3.096a23.6 23.6 0 0 0 2.553-4.488zm-7.97-11.143v4.411h-.85v-1.006q0-1.315-.775-2.244-.773-1.006-2.398-1.006v-.155zm0-6.423v4.411h-4.023v-.155q1.625 0 2.398-.928.774-1.006.774-2.322v-1.006zm3.56-15.631v5.34h-.851v-1.161q0-1.625-1.084-2.786-1.006-1.161-2.785-1.161v-.232zm0-3.405v2.012l-8.821-.773q2.398 0 5.107-.387 2.707-.465 3.714-.852m-25.536 42.715 1.006 4.953h-6.732v-.774h1.0830000000000002q1.935 0 3.173-1.238 1.238-1.239 1.315-2.941zm0-36.601h-.155q-.077-1.78-1.315-2.941-1.239-1.161-3.173-1.161h-1.0830000000000002v-.773h6.732zM113.074 110.738q3.56 0 6.654.542 3.174.463 5.959 1.548a26.2 26.2 0 0 1 5.417 2.631l1.702 10.91h-.696q-1.084-4.565-3.56-7.506-2.399-2.94-6.268-4.333-3.869-1.47-9.286-1.47-5.88 0-10.369 2.708-4.41 2.631-6.887 7.583-2.476 4.876-2.476 11.685 0 6.732 2.476 11.685 2.475 4.952 6.964 7.661 4.488 2.631 10.37 2.631 3.25 0 6.19-.697a22.8 22.8 0 0 0 5.649-2.166 24.7 24.7 0 0 0 5.185-3.87l.077-10.291q.078-1.472-.929-2.244-.929-.774-2.631-.774h-1.083v-.774h14.161v.774h-1.083q-3.483 0-3.483 3.095v9.286q-1.779 2.244-4.875 4.565-3.094 2.322-7.428 3.869-4.257 1.548-9.75 1.548-7.662-.077-13.388-3.018-5.648-2.94-8.821-8.357t-3.173-12.923q0-7.583 3.173-13t8.899-8.357q5.726-2.941 13.31-2.941M164.16 110.738l21.28 47.048h-6.113l-16.482-40.161zm-14.935 41.864q-.851 2.322.233 3.637 1.083 1.238 2.476 1.238h.619v.774h-14.78v-.774h.619q1.625 0 3.327-1.083 1.703-1.161 2.941-3.792zm14.935-41.864.542 5.34-17.721 41.941h-4.875l18.34-39.31.387-.929a35 35 0 0 0 1.006-2.244q.619-1.393 1.083-2.708.465-1.316.542-2.09zm9.131 29.483v2.321h-20.506v-2.321zm3.947 12.381h5.881q1.16 2.631 2.863 3.792 1.702 1.083 3.25 1.083h.619v.774h-15.863v-.774h.619q1.315 0 2.399-1.238 1.083-1.315.232-3.637M236.778 138.75l-.851 10.602q-2.012 3.095-5.262 5.339t-7.351 3.482q-4.101 1.161-8.667 1.161-7.815-.077-13.619-3.018-5.727-2.94-8.822-8.357t-3.095-12.923q0-7.583 3.095-13t8.822-8.357q5.804-2.941 13.619-2.941 4.798 0 9.673 1.238t8.435 3.483l1.702 10.91h-.697q-1.701-7.12-6.887-10.214-5.107-3.095-12.303-3.095-6.114 0-10.602 2.708-4.41 2.631-6.887 7.583-2.398 4.876-2.398 11.685 0 6.656 2.398 11.607 2.477 4.875 6.965 7.584 4.488 2.631 10.601 2.708 5.803 0 10.447-1.857 4.72-1.935 7.661-5.958 2.94-4.024 3.327-10.37zM248.237 111.899l14.316 25.459-3.173 2.708-17.875-28.167zm15.476 26.387v19.965h-5.029v-19.965zm13.001-26.387h4.875l-18.417 28.012-2.863-.851zm-2.941 4.875q.85-1.548.077-2.863-.773-1.316-2.476-1.316h-.928v-.773h16.172v.773h-.928q-2.167 0-4.101 1.238-1.858 1.161-2.941 2.709zm-22.828-.077-6.577-.233a8.9 8.9 0 0 0-3.095-2.785q-1.78-1.084-4.024-1.084h-.929v-.773h17.953v.773h-.929q-1.702 0-2.476 1.393-.696 1.315.077 2.709m7.971 36.601v4.953h-5.649v-.774h.928q1.857 0 3.096-1.238 1.315-1.239 1.393-2.941zm4.565 0h.232q.078 1.702 1.316 2.941 1.315 1.238 3.172 1.238h.929v.774h-5.649zM308.74 104.083v54.168h-5.03v-54.168zm-4.798 48.519v5.649h-6.19v-.774h1.006q2.012 0 3.405-1.393 1.47-1.47 1.547-3.482zm0-42.87h-.232q-.077-2.011-1.547-3.405-1.394-1.47-3.405-1.47h-1.006v-.774h6.19zm4.566 42.87h.232q.078 2.012 1.47 3.482 1.47 1.393 3.483 1.393h1.006v.774h-6.191zm0-42.87v-5.649h6.191v.774h-1.006q-2.012 0-3.483 1.47-1.392 1.394-1.47 3.405zM324.518 110.661l42.869 40.393.774 8.28-42.87-40.625zm.154 42.792v4.798h-5.803v-.774h1.315q1.78 0 3.018-1.161 1.238-1.16 1.238-2.863zm3.25 0q0 1.702 1.239 2.863 1.315 1.161 3.017 1.161h1.3159999999999998v.774h-5.804v-4.798zm-3.404-42.792 3.327 4.333.077 43.257h-3.482v-37.917q0-3.946-.387-6.81l-.309-2.863zm43.643 1.161v37.607q0 2.476.155 4.798.155 2.244.309 3.714l.233 1.393h-.697l-3.405-4.101v-43.411zm-.232 4.797v-4.797h5.804v.773h-1.3159999999999998q-1.702 0-3.018 1.161-1.238 1.16-1.238 2.863zm-3.173 0q-.077-1.702-1.315-2.863-1.239-1.161-3.018-1.161h-1.3159999999999998v-.773h5.804v4.797zM406.566 103q8.28 0 14.547 3.56 6.268 3.482 9.75 9.827 3.56 6.345 3.56 14.78t-3.56 14.78q-3.482 6.345-9.75 9.905-6.268 3.482-14.547 3.482-8.203 0-14.471-3.482-6.268-3.56-9.827-9.905-3.483-6.345-3.483-14.78t3.483-14.78q3.559-6.345 9.827-9.827 6.268-3.56 14.471-3.56m0 54.013q6.577 0 11.452-3.25 4.953-3.25 7.661-9.054 2.786-5.804 2.786-13.542 0-7.739-2.786-13.542-2.708-5.804-7.661-9.053-4.875-3.25-11.452-3.251-6.5 0-11.453 3.251-4.875 3.25-7.661 9.053-2.708 5.803-2.708 13.542t2.708 13.542q2.786 5.803 7.661 9.054 4.952 3.25 11.453 3.25M447.296 111.822h9.983q3.636 0 6.5.851 2.94.851 4.952 2.476 2.09 1.625 3.173 3.946t1.083 5.262q0 3.25-1.548 6.036-1.547 2.785-4.333 4.566-2.709 1.78-6.191 2.166 1.316.543 3.018 2.399 1.78 1.857 3.018 3.637l1.006 1.393q1.006 1.315 2.554 3.328a289 289 0 0 0 3.173 3.714 95 95 0 0 0 2.94 3.095q1.393 1.316 2.941 2.089 1.625.697 3.714.697v.774h-2.399q-4.256 0-7.042-1.084-2.708-1.083-4.411-2.631a40 40 0 0 1-2.94-3.095q-.309-.387-1.47-1.934a153 153 0 0 0-2.399-3.483 222 222 0 0 0-2.399-3.327 111 111 0 0 0-1.315-1.857 19.4 19.4 0 0 0-3.56-3.56q-2.012-1.625-4.256-1.625v-.774l1.238.078a82 82 0 0 0 3.173-.078 61 61 0 0 0 4.333-.309q2.167-.31 4.024-1.703 1.935-1.393 3.018-4.642.31-.852.464-2.012a12.4 12.4 0 0 0 .078-2.399q-.078-2.167-.852-3.869a7.9 7.9 0 0 0-2.089-2.941q-1.316-1.238-3.173-1.934-1.857-.697-4.178-.774-3.637-.154-6.346-.078-2.708.078-2.708 0 0-.077-.232-.619a7.6 7.6 0 0 0-.387-1.16zm.929 0v46.429h-4.953v-46.429zm-4.72 41.476.928 4.953h-6.577v-.774h1.0830000000000002q1.857 0 3.095-1.238 1.239-1.239 1.316-2.941zm0-36.601h-.155q-.078-1.78-1.316-2.941t-3.095-1.161h-1.0830000000000002v-.773h6.577zm4.488 36.601h.232q.077 1.702 1.315 2.941 1.239 1.238 3.096 1.238h1.006l.077.774h-6.655z"/><path d="M509.121 111.822q7.66 0 13.232 2.785t8.59 8.048q3.017 5.184 3.017 12.381t-3.017 12.381q-3.018 5.185-8.59 8.048-5.571 2.786-13.232 2.786h-16.483l-.154-2.322h16.637q8.976 0 14.083-5.571 5.185-5.649 5.185-15.322t-5.185-15.244q-5.107-5.649-14.083-5.649H491.71v-2.321zm-15.399 0v46.429h-5.03v-46.429zm-4.875 41.399v5.03h-5.572v-.774h1.006q1.857 0 3.095-1.238 1.239-1.316 1.316-3.018zm0-36.37h-.155q-.078-1.857-1.393-3.018-1.238-1.238-3.095-1.238h-.929v-.773h5.572zM548.363 111.822v46.429h-4.953v-46.429zm20.815 44.03-.154 2.399h-20.816v-2.399zm-3.637-21.977v2.322h-17.333v-2.322zm3.56-22.053v2.398h-20.893v-2.398zm4.411 35.363-4.256 11.066h-11.762l2.631-2.399q3.869 0 6.19-1.083 2.399-1.161 3.869-3.096a23.6 23.6 0 0 0 2.554-4.488zm-7.971-11.143v4.411h-.851v-1.006q0-1.315-.774-2.244-.773-1.006-2.398-1.006v-.155zm0-6.423v4.411h-4.023v-.155q1.625 0 2.398-.928.774-1.006.774-2.322v-1.006zm3.56-15.631v5.34h-.851v-1.161q0-1.625-1.084-2.786-1.006-1.161-2.785-1.161v-.232zm0-3.405v2.012l-8.822-.773q2.4 0 5.108-.387 2.707-.465 3.714-.852m-25.536 42.715 1.006 4.953h-6.732v-.774h1.0830000000000002q1.934 0 3.173-1.238 1.238-1.239 1.315-2.941zm0-36.601h-.155q-.077-1.78-1.315-2.941-1.239-1.161-3.173-1.161h-1.0830000000000002v-.773h6.732zM585.671 111.822h9.982q3.638 0 6.5.851 2.94.851 4.953 2.476 2.09 1.625 3.172 3.946 1.084 2.322 1.084 5.262 0 3.25-1.548 6.036t-4.333 4.566q-2.709 1.78-6.191 2.166 1.315.543 3.018 2.399 1.78 1.857 3.018 3.637l1.006 1.393q1.006 1.315 2.554 3.328a290 290 0 0 0 3.172 3.714 96 96 0 0 0 2.941 3.095q1.393 1.316 2.94 2.089 1.626.697 3.715.697v.774h-2.399q-4.257 0-7.042-1.084-2.709-1.083-4.411-2.631a39 39 0 0 1-2.94-3.095q-.31-.387-1.471-1.934a150 150 0 0 0-2.398-3.483 222 222 0 0 0-2.399-3.327 103 103 0 0 0-1.316-1.857 19.4 19.4 0 0 0-3.559-3.56q-2.012-1.625-4.256-1.625v-.774l1.238.078q1.238 0 3.172-.078a61 61 0 0 0 4.334-.309q2.166-.31 4.024-1.703 1.933-1.393 3.018-4.642.31-.852.464-2.012t.077-2.399q-.077-2.167-.851-3.869a7.9 7.9 0 0 0-2.089-2.941q-1.316-1.238-3.173-1.934-1.857-.697-4.179-.774-3.636-.154-6.345-.078-2.708.078-2.708 0 0-.077-.232-.619a8 8 0 0 0-.387-1.16zm.929 0v46.429h-4.953v-46.429zm-4.721 41.476.929 4.953h-6.578v-.774h1.084q1.857 0 3.095-1.238 1.238-1.239 1.315-2.941zm0-36.601h-.155q-.077-1.78-1.315-2.941t-3.095-1.161h-1.084v-.773h6.578zm4.488 36.601h.233q.077 1.702 1.315 2.941t3.095 1.238h1.006l.078.774h-6.655z"/></mask><path fill="#fff" d="M19.95 104.083v54.168h-5.03v-54.168zm20.894 51.769v2.399H19.717v-2.399zm4.72-10.137-4.488 12.536H28.23l2.786-2.399q4.102 0 6.655-1.238 2.63-1.316 4.256-3.637 1.625-2.322 2.863-5.262zm-30.411 6.887v5.649h-6.19v-.774h1.0050000000000001q2.012 0 3.405-1.393 1.47-1.47 1.548-3.482zm0-42.87h-.232q-.078-2.011-1.548-3.405-1.394-1.47-3.405-1.47H8.962v-.774h6.19zm4.565 0v-5.649h6.19v.774h-1.0050000000000001q-2.012 0-3.482 1.47-1.393 1.394-1.47 3.405zM59.456 111.822v46.429h-4.953v-46.429zm20.816 44.03-.155 2.399H59.3v-2.399zm-3.638-21.977v2.322H59.302v-2.322zm3.56-22.053v2.398H59.301v-2.398zm4.41 35.363-4.255 11.066H68.587l2.63-2.399q3.87 0 6.191-1.083 2.4-1.161 3.87-3.096a23.6 23.6 0 0 0 2.553-4.488zm-7.97-11.143v4.411h-.85v-1.006q0-1.315-.775-2.244-.773-1.006-2.398-1.006v-.155zm0-6.423v4.411h-4.023v-.155q1.625 0 2.398-.928.774-1.006.774-2.322v-1.006zm3.56-15.631v5.34h-.851v-1.161q0-1.625-1.084-2.786-1.006-1.161-2.785-1.161v-.232zm0-3.405v2.012l-8.821-.773q2.398 0 5.107-.387 2.707-.465 3.714-.852m-25.536 42.715 1.006 4.953h-6.732v-.774h1.0830000000000002q1.935 0 3.173-1.238 1.238-1.239 1.315-2.941zm0-36.601h-.155q-.077-1.78-1.315-2.941-1.239-1.161-3.173-1.161h-1.0830000000000002v-.773h6.732zM113.074 110.738q3.56 0 6.654.542 3.174.463 5.959 1.548a26.2 26.2 0 0 1 5.417 2.631l1.702 10.91h-.696q-1.084-4.565-3.56-7.506-2.399-2.94-6.268-4.333-3.869-1.47-9.286-1.47-5.88 0-10.369 2.708-4.41 2.631-6.887 7.583-2.476 4.876-2.476 11.685 0 6.732 2.476 11.685 2.475 4.952 6.964 7.661 4.488 2.631 10.37 2.631 3.25 0 6.19-.697a22.8 22.8 0 0 0 5.649-2.166 24.7 24.7 0 0 0 5.185-3.87l.077-10.291q.078-1.472-.929-2.244-.929-.774-2.631-.774h-1.083v-.774h14.161v.774h-1.083q-3.483 0-3.483 3.095v9.286q-1.779 2.244-4.875 4.565-3.094 2.322-7.428 3.869-4.257 1.548-9.75 1.548-7.662-.077-13.388-3.018-5.648-2.94-8.821-8.357t-3.173-12.923q0-7.583 3.173-13t8.899-8.357q5.726-2.941 13.31-2.941M164.16 110.738l21.28 47.048h-6.113l-16.482-40.161zm-14.935 41.864q-.851 2.322.233 3.637 1.083 1.238 2.476 1.238h.619v.774h-14.78v-.774h.619q1.625 0 3.327-1.083 1.703-1.161 2.941-3.792zm14.935-41.864.542 5.34-17.721 41.941h-4.875l18.34-39.31.387-.929a35 35 0 0 0 1.006-2.244q.619-1.393 1.083-2.708.465-1.316.542-2.09zm9.131 29.483v2.321h-20.506v-2.321zm3.947 12.381h5.881q1.16 2.631 2.863 3.792 1.702 1.083 3.25 1.083h.619v.774h-15.863v-.774h.619q1.315 0 2.399-1.238 1.083-1.315.232-3.637M236.778 138.75l-.851 10.602q-2.012 3.095-5.262 5.339t-7.351 3.482q-4.101 1.161-8.667 1.161-7.815-.077-13.619-3.018-5.727-2.94-8.822-8.357t-3.095-12.923q0-7.583 3.095-13t8.822-8.357q5.804-2.941 13.619-2.941 4.798 0 9.673 1.238t8.435 3.483l1.702 10.91h-.697q-1.701-7.12-6.887-10.214-5.107-3.095-12.303-3.095-6.114 0-10.602 2.708-4.41 2.631-6.887 7.583-2.398 4.876-2.398 11.685 0 6.656 2.398 11.607 2.477 4.875 6.965 7.584 4.488 2.631 10.601 2.708 5.803 0 10.447-1.857 4.72-1.935 7.661-5.958 2.94-4.024 3.327-10.37zM248.237 111.899l14.316 25.459-3.173 2.708-17.875-28.167zm15.476 26.387v19.965h-5.029v-19.965zm13.001-26.387h4.875l-18.417 28.012-2.863-.851zm-2.941 4.875q.85-1.548.077-2.863-.773-1.316-2.476-1.316h-.928v-.773h16.172v.773h-.928q-2.167 0-4.101 1.238-1.858 1.161-2.941 2.709zm-22.828-.077-6.577-.233a8.9 8.9 0 0 0-3.095-2.785q-1.78-1.084-4.024-1.084h-.929v-.773h17.953v.773h-.929q-1.702 0-2.476 1.393-.696 1.315.077 2.709m7.971 36.601v4.953h-5.649v-.774h.928q1.857 0 3.096-1.238 1.315-1.239 1.393-2.941zm4.565 0h.232q.078 1.702 1.316 2.941 1.315 1.238 3.172 1.238h.929v.774h-5.649zM308.74 104.083v54.168h-5.03v-54.168zm-4.798 48.519v5.649h-6.19v-.774h1.006q2.012 0 3.405-1.393 1.47-1.47 1.547-3.482zm0-42.87h-.232q-.077-2.011-1.547-3.405-1.394-1.47-3.405-1.47h-1.006v-.774h6.19zm4.566 42.87h.232q.078 2.012 1.47 3.482 1.47 1.393 3.483 1.393h1.006v.774h-6.191zm0-42.87v-5.649h6.191v.774h-1.006q-2.012 0-3.483 1.47-1.392 1.394-1.47 3.405zM324.518 110.661l42.869 40.393.774 8.28-42.87-40.625zm.154 42.792v4.798h-5.803v-.774h1.315q1.78 0 3.018-1.161 1.238-1.16 1.238-2.863zm3.25 0q0 1.702 1.239 2.863 1.315 1.161 3.017 1.161h1.3159999999999998v.774h-5.804v-4.798zm-3.404-42.792 3.327 4.333.077 43.257h-3.482v-37.917q0-3.946-.387-6.81l-.309-2.863zm43.643 1.161v37.607q0 2.476.155 4.798.155 2.244.309 3.714l.233 1.393h-.697l-3.405-4.101v-43.411zm-.232 4.797v-4.797h5.804v.773h-1.3159999999999998q-1.702 0-3.018 1.161-1.238 1.16-1.238 2.863zm-3.173 0q-.077-1.702-1.315-2.863-1.239-1.161-3.018-1.161h-1.3159999999999998v-.773h5.804v4.797zM406.566 103q8.28 0 14.547 3.56 6.268 3.482 9.75 9.827 3.56 6.345 3.56 14.78t-3.56 14.78q-3.482 6.345-9.75 9.905-6.268 3.482-14.547 3.482-8.203 0-14.471-3.482-6.268-3.56-9.827-9.905-3.483-6.345-3.483-14.78t3.483-14.78q3.559-6.345 9.827-9.827 6.268-3.56 14.471-3.56m0 54.013q6.577 0 11.452-3.25 4.953-3.25 7.661-9.054 2.786-5.804 2.786-13.542 0-7.739-2.786-13.542-2.708-5.804-7.661-9.053-4.875-3.25-11.452-3.251-6.5 0-11.453 3.251-4.875 3.25-7.661 9.053-2.708 5.803-2.708 13.542t2.708 13.542q2.786 5.803 7.661 9.054 4.952 3.25 11.453 3.25M447.296 111.822h9.983q3.636 0 6.5.851 2.94.851 4.952 2.476 2.09 1.625 3.173 3.946t1.083 5.262q0 3.25-1.548 6.036-1.547 2.785-4.333 4.566-2.709 1.78-6.191 2.166 1.316.543 3.018 2.399 1.78 1.857 3.018 3.637l1.006 1.393q1.006 1.315 2.554 3.328a289 289 0 0 0 3.173 3.714 95 95 0 0 0 2.94 3.095q1.393 1.316 2.941 2.089 1.625.697 3.714.697v.774h-2.399q-4.256 0-7.042-1.084-2.708-1.083-4.411-2.631a40 40 0 0 1-2.94-3.095q-.309-.387-1.47-1.934a153 153 0 0 0-2.399-3.483 222 222 0 0 0-2.399-3.327 111 111 0 0 0-1.315-1.857 19.4 19.4 0 0 0-3.56-3.56q-2.012-1.625-4.256-1.625v-.774l1.238.078a82 82 0 0 0 3.173-.078 61 61 0 0 0 4.333-.309q2.167-.31 4.024-1.703 1.935-1.393 3.018-4.642.31-.852.464-2.012a12.4 12.4 0 0 0 .078-2.399q-.078-2.167-.852-3.869a7.9 7.9 0 0 0-2.089-2.941q-1.316-1.238-3.173-1.934-1.857-.697-4.178-.774-3.637-.154-6.346-.078-2.708.078-2.708 0 0-.077-.232-.619a7.6 7.6 0 0 0-.387-1.16zm.929 0v46.429h-4.953v-46.429zm-4.72 41.476.928 4.953h-6.577v-.774h1.0830000000000002q1.857 0 3.095-1.238 1.239-1.239 1.316-2.941zm0-36.601h-.155q-.078-1.78-1.316-2.941t-3.095-1.161h-1.0830000000000002v-.773h6.577zm4.488 36.601h.232q.077 1.702 1.315 2.941 1.239 1.238 3.096 1.238h1.006l.077.774h-6.655z"/><path fill="#fff" d="M509.121 111.822q7.66 0 13.232 2.785t8.59 8.048q3.017 5.184 3.017 12.381t-3.017 12.381q-3.018 5.185-8.59 8.048-5.571 2.786-13.232 2.786h-16.483l-.154-2.322h16.637q8.976 0 14.083-5.571 5.185-5.649 5.185-15.322t-5.185-15.244q-5.107-5.649-14.083-5.649H491.71v-2.321zm-15.399 0v46.429h-5.03v-46.429zm-4.875 41.399v5.03h-5.572v-.774h1.006q1.857 0 3.095-1.238 1.239-1.316 1.316-3.018zm0-36.37h-.155q-.078-1.857-1.393-3.018-1.238-1.238-3.095-1.238h-.929v-.773h5.572zM548.363 111.822v46.429h-4.953v-46.429zm20.815 44.03-.154 2.399h-20.816v-2.399zm-3.637-21.977v2.322h-17.333v-2.322zm3.56-22.053v2.398h-20.893v-2.398zm4.411 35.363-4.256 11.066h-11.762l2.631-2.399q3.869 0 6.19-1.083 2.399-1.161 3.869-3.096a23.6 23.6 0 0 0 2.554-4.488zm-7.971-11.143v4.411h-.851v-1.006q0-1.315-.774-2.244-.773-1.006-2.398-1.006v-.155zm0-6.423v4.411h-4.023v-.155q1.625 0 2.398-.928.774-1.006.774-2.322v-1.006zm3.56-15.631v5.34h-.851v-1.161q0-1.625-1.084-2.786-1.006-1.161-2.785-1.161v-.232zm0-3.405v2.012l-8.822-.773q2.4 0 5.108-.387 2.707-.465 3.714-.852m-25.536 42.715 1.006 4.953h-6.732v-.774h1.0830000000000002q1.934 0 3.173-1.238 1.238-1.239 1.315-2.941zm0-36.601h-.155q-.077-1.78-1.315-2.941-1.239-1.161-3.173-1.161h-1.0830000000000002v-.773h6.732zM585.671 111.822h9.982q3.638 0 6.5.851 2.94.851 4.953 2.476 2.09 1.625 3.172 3.946 1.084 2.322 1.084 5.262 0 3.25-1.548 6.036t-4.333 4.566q-2.709 1.78-6.191 2.166 1.315.543 3.018 2.399 1.78 1.857 3.018 3.637l1.006 1.393q1.006 1.315 2.554 3.328a290 290 0 0 0 3.172 3.714 96 96 0 0 0 2.941 3.095q1.393 1.316 2.94 2.089 1.626.697 3.715.697v.774h-2.399q-4.257 0-7.042-1.084-2.709-1.083-4.411-2.631a39 39 0 0 1-2.94-3.095q-.31-.387-1.471-1.934a150 150 0 0 0-2.398-3.483 222 222 0 0 0-2.399-3.327 103 103 0 0 0-1.316-1.857 19.4 19.4 0 0 0-3.559-3.56q-2.012-1.625-4.256-1.625v-.774l1.238.078q1.238 0 3.172-.078a61 61 0 0 0 4.334-.309q2.166-.31 4.024-1.703 1.933-1.393 3.018-4.642.31-.852.464-2.012t.077-2.399q-.077-2.167-.851-3.869a7.9 7.9 0 0 0-2.089-2.941q-1.316-1.238-3.173-1.934-1.857-.697-4.179-.774-3.636-.154-6.345-.078-2.708.078-2.708 0 0-.077-.232-.619a8 8 0 0 0-.387-1.16zm.929 0v46.429h-4.953v-46.429zm-4.721 41.476.929 4.953h-6.578v-.774h1.084q1.857 0 3.095-1.238 1.238-1.239 1.315-2.941zm0-36.601h-.155q-.077-1.78-1.315-2.941t-3.095-1.161h-1.084v-.773h6.578zm4.488 36.601h.233q.077 1.702 1.315 2.941t3.095 1.238h1.006l.078.774h-6.655z"/><path fill="#fff" d="M19.95 104.083h.425v-.424h-.425zm0 54.168v.424h.425v-.424zm-5.03 0h-.424v.424h.425zm0-54.168v-.424h-.424v.424zm25.923 51.769h.425v-.425h-.425zm0 2.399v.424h.425v-.424zm-21.125 0h-.424v.424h.424zm0-2.399v-.425h-.424v.425zm25.846-10.137.4.143.203-.568h-.603zm-4.488 12.536v.424h.298l.101-.281zm-12.846 0-.277-.322-.866.746h1.143zm2.786-2.399v-.425h-.157l-.12.103zm6.655-1.238.185.382.005-.003zm7.119-8.899v-.425h-.282l-.11.26zm-29.637 6.887h.424v-.425h-.424zm0 5.649v.424h.424v-.424zm-6.19 0h-.425v.424h.424zm0-.774v-.425h-.425v.425zm4.41-1.393.3.3zm1.548-3.482v-.425h-.409l-.016.409zm.232-42.87v.425h.424v-.425zm-.232 0-.425.017.016.408h.409zm-1.548-3.405-.308.292.008.009.008.008zm-4.41-1.47h-.425v.425h.424zm0-.774v-.424h-.425v.424zm6.19 0h.424v-.424h-.424zm4.565 5.649h-.424v.425h.424zm0-5.649v-.424h-.424v.424zm6.19 0h.425v-.424h-.424zm0 .774v.425h.425v-.425zm-4.487 1.47.3.301zm-1.47 3.405v.425h.408l.015-.408zm39.505 2.09h.424v-.425h-.424zm0 46.429v.424h.424v-.424zm-4.953 0h-.424v.424h.424zm0-46.429v-.425h-.424v.425zm25.769 44.03.423.027.03-.452h-.453zm-.155 2.399v.424h.398l.025-.397zm-20.816 0h-.425v.424h.425zm0-2.399v-.425h-.425v.425zm17.334-21.977h.424v-.424h-.424zm0 2.322v.424h.424v-.424zm-17.334 0h-.425v.424h.425zm0-2.322v-.424h-.425v.424zm20.893-22.053h.424v-.425h-.424zm0 2.398v.425h.424v-.425zm-20.893 0h-.425v.425h.425zm0-2.398v-.425h-.425v.425zm25.304 35.363.396.152.222-.576h-.618zm-4.256 11.066v.424h.291l.105-.272zm-11.762 0-.286-.314-.81.738h1.096zm2.63-2.399v-.425h-.164l-.121.111zm6.191-1.083.18.384.005-.002zm3.87-3.096.337.257.005-.006zm2.553-4.488v-.424h-.278l-.11.254zm-7.196-11.143h.424v-.424h-.424zm0 4.411v.424h.424v-.424zm-.852 0h-.424v.424h.424zm-.773-3.25-.337.259.005.006.005.007zm-2.4-1.006h-.424v.424h.425zm0-.155v-.424h-.424v.424zm4.025-6.423h.424v-.424h-.424zm0 4.411v.425h.424v-.425zm-4.024 0h-.425v.425h.425zm0-.155v-.424h-.425v.424zm2.398-.928.327.272.005-.007.005-.006zm.774-3.328v-.424h-.424v.424zm4.411-15.631h.424v-.424h-.424zm0 5.34v.424h.424v-.424zm-.851 0h-.425v.424h.425zm-1.084-3.947-.32.278.005.006.005.006zm-2.785-1.161h-.425v.425h.425zm0-.232v-.424h-.425v.424zm4.72-3.405h.424v-.618l-.576.222zm0 2.012-.037.423.462.041v-.464zm-8.821-.773v-.425l-.038.847zm5.107-.387.06.42.011-.002zm-21.822 41.863.416-.084-.07-.34h-.346zm1.006 4.953v.424h.52l-.104-.509zm-6.732 0h-.425v.424h.425zm0-.774v-.425h-.425v.425zm4.256-1.238.3.3zm1.315-2.941v-.424h-.405l-.019.405zm.155-36.601v.424h.346l.07-.339zm-.155 0-.424.018.018.406h.406zm-1.315-2.941.29-.31zm-4.256-1.161h-.425v.425h.425zm0-.773v-.425h-.425v.425zm6.732 0 .416.085.105-.51h-.521zm64.064-.542-.073.418.012.002zm5.959 1.548-.154.395.013.005zm5.417 2.631.419-.066-.03-.19-.162-.103zm1.702 10.91v.425h.496l-.077-.49zm-.696 0-.413.098.077.327h.336zm-3.56-7.506-.329.269.004.005zm-6.268-4.333-.151.397.007.002zm-19.655 1.238.217.365.002-.002zm-6.887 7.583.378.193.002-.003zm0 23.37.38-.19zm6.964 7.661-.219.363.005.003zm16.56 1.934.098.413zm5.649-2.166.203.373.003-.002zm5.185-3.87.295.305.128-.123.001-.178zm.077-10.291-.424-.023v.019zm-.929-2.244-.271.326.006.005.007.005zm-3.714-.774h-.424v.424h.424zm0-.774v-.425h-.424v.425zm14.161 0h.424v-.425h-.424zm0 .774v.424h.424v-.424zm-4.566 12.381.333.264.092-.116v-.148zm-12.303 8.434-.143-.399-.002.001zm-9.75 1.548-.005.425h.005zm-13.388-3.018-.196.377.003.001zm-8.821-8.357.366-.215zm0-25.923.366.214zm8.899-8.357.194.377zm64.396-2.941.387-.175-.113-.249h-.274zm21.28 47.048v.425h.658l-.271-.599zm-6.113 0-.393.162.108.263h.285zm-16.482-40.161-.417-.079-.024.124.048.116zm-13.62 34.977.399.146.209-.571h-.608zm.233 3.637-.328.27.008.009zm3.095 1.238h.424v-.425h-.424zm0 .774v.424h.424v-.424zm-14.78 0h-.424v.424h.424zm0-.774v-.425h-.424v.425zm3.946-1.083.228.358.012-.008zm2.941-3.792v-.425h-.269l-.115.244zm20.042-36.524.391.165.042-.1-.011-.108zm-17.721 41.941v.424h.282l.109-.259zm-4.875 0-.384-.18-.282.604h.666zm18.34-39.31.385.179.003-.008.004-.008zm.387-.929-.38-.19-.006.013-.006.014zm1.006-2.244-.388-.173-.005.011zm1.083-2.708.4.141zm.542-2.09v-.424h-.384l-.039.382zm9.827 29.483h.425v-.425h-.425zm0 2.321v.425h.425v-.425zm-20.506 0h-.424v.425h.424zm0-2.321v-.425h-.424v.425zm24.453 12.381v-.425h-.608l.209.571zm5.881 0 .388-.171-.112-.254h-.276zm2.863 3.792-.239.35.011.008zm3.869 1.083h.424v-.425h-.424zm0 .774v.424h.424v-.424zm-15.863 0h-.425v.424h.425zm0-.774v-.425h-.425v.425zm3.018-1.238.319.279.008-.009zm59.772-17.489.423.034.037-.458h-.46zm-.851 10.602.356.231.059-.09.008-.107zm-5.262 5.339-.241-.349zm-7.351 3.482.115.409.008-.002zm-8.667 1.161-.004.425h.004zm-13.619-3.018-.194.378.002.001zm-8.822-8.357-.368.211zm0-25.923.369.211zm8.822-8.357-.192-.379-.002.001zm23.292-1.703.104-.411zm8.435 3.483.419-.066-.03-.191-.163-.103zm1.702 10.91v.425h.496l-.077-.49zm-.697 0-.412.099.078.326h.334zm-6.887-10.214-.22.363.003.001zm-22.905-.387.218.365.002-.002zm-6.887 7.583-.379-.189-.001.002zm0 23.292-.382.186.004.007zm6.965 7.584-.22.363.005.003zm10.601 2.708-.005.425h.005zm10.447-1.857.157.394.004-.001zm7.661-5.958-.343-.251zm3.327-10.37v-.424h-.399l-.025.399zm12.155-26.851.37-.208-.122-.217h-.248zm14.316 25.459.275.322.266-.226-.171-.304zm-3.173 2.708-.358.227.262.413.372-.317zm-17.875-28.167v-.425h-.772l.413.652zm22.208 26.387h.425v-.424h-.425zm0 19.965v.424h.425v-.424zm-5.029 0h-.425v.424h.425zm0-19.965v-.424h-.425v.424zm18.03-26.387v-.425h-.24l-.124.205zm4.875 0 .354.233.433-.658h-.787zm-18.417 28.012-.121.407.302.09.173-.264zm-2.863-.851-.364-.219-.284.469.527.157zm13.464-22.286-.372-.205-.365.665.757-.036zm.077-2.863-.365.215zm-3.404-1.316h-.425v.425h.425zm0-.773v-.425h-.425v.425zm16.172 0h.425v-.425h-.425zm0 .773v.425h.425v-.425zm-5.029 1.238.225.36.003-.002zm-2.941 2.709.02.424.208-.01.12-.171zm-27.703.155-.015.424.751.026-.365-.657zm-6.577-.233-.349.243.122.174.212.008zm-3.095-2.785-.221.362.009.006.009.005zm-4.953-1.084h-.424v.425h.424zm0-.773v-.425h-.424v.425zm17.953 0h.424v-.425h-.424zm0 .773v.425h.424v-.425zm-3.405 1.393-.371-.206-.004.008zm8.048 39.31h.424v-.424h-.424zm0 4.953v.424h.424v-.424zm-5.649 0h-.425v.424h.425zm0-.774v-.425h-.425v.425zm4.024-1.238-.291-.309-.01.009zm1.393-2.941v-.424h-.406l-.018.405zm4.797 0v-.424h-.424v.424zm.232 0 .424-.019-.018-.405h-.406zm1.316 2.941-.3.3.009.009zm4.101 1.238h.425v-.425h-.425zm0 .774v.424h.425v-.424zm-5.649 0h-.424v.424h.424zm45.259-54.168h.425v-.424h-.425zm0 54.168v.424h.425v-.424zm-5.03 0h-.424v.424h.424zm0-54.168v-.424h-.424v.424zm.232 48.519h.425v-.425h-.425zm0 5.649v.424h.425v-.424zm-6.19 0h-.425v.424h.425zm0-.774v-.425h-.425v.425zm4.411-1.393.3.3zm1.547-3.482v-.425h-.408l-.016.409zm.232-42.87v.425h.425v-.425zm-.232 0-.424.017.016.408h.408zm-1.547-3.405-.308.292.007.009.009.008zm-4.411-1.47h-.425v.425h.425zm0-.774v-.424h-.425v.424zm6.19 0h.425v-.424h-.425zm4.566 48.519v-.425h-.424v.425zm.232 0 .424-.016-.015-.409h-.409zm1.47 3.482-.308.292.008.008.009.008zm4.489 1.393h.424v-.425h-.424zm0 .774v.424h.424v-.424zm-6.191 0h-.424v.424h.424zm0-48.519h-.424v.425h.424zm0-5.649v-.424h-.424v.424zm6.191 0h.424v-.424h-.424zm0 .774v.425h.424v-.425zm-4.489 1.47.301.301zm-1.47 3.405v.425h.409l.015-.408zm15.778.929.291-.309-.123-.116h-.168zm42.869 40.393.423-.039-.015-.16-.117-.11zm.774 8.28-.292.308.123.117h.169zm-42.87-40.625-.422.04.015.158.116.11zm-.619 34.744h.425v-.424h-.425zm0 4.798v.424h.425v-.424zm-5.803 0h-.425v.424h.425zm0-.774v-.425h-.425v.425zm4.333-1.161.29.31zm1.238-2.863v-.424h-.424v.424zm3.482 0h.425v-.424h-.425zm1.239 2.863-.291.31.01.008zm4.333 1.161h.424v-.425h-.424zm0 .774v.424h.424v-.424zm-5.804 0h-.424v.424h.424zm0-4.798v-.424h-.424v.424zm.155-38.459.425-.001-.001-.143-.087-.114zm.077 43.257v.424h.426l-.001-.425zm-3.482 0h-.424v.424h.424zm-.387-44.727-.422.046.002.011zm-.309-2.863v-.425h-.473l.051.47zm44.417 1.161h.425v-.425h-.425zm.155 42.405-.424.028v.001zm.309 3.714-.422.045.002.012.002.013zm.233 1.393v.425h.501l-.083-.495zm-4.102-4.101h-.424v.153l.098.118zm0-43.411v-.425h-.424v.425zm3.173 4.797h-.424v.425h.424zm0-4.797v-.425h-.424v.425zm5.804 0h.424v-.425h-.424zm0 .773v.425h.424v-.425zm-4.334 1.161-.281-.318-.009.008zm-1.238 2.863v.425h.425v-.425zm-3.405 0-.424.02.019.405h.405zm-1.315-2.863.29-.31zm-4.334-1.161h-.424v.425h.424zm0-.773v-.425h-.424v.425zm5.804 0h.424v-.425h-.424zm0 4.797v.425h.424v-.425zm56.202-10.059-.209.369.003.002zm9.75 9.827-.372.204.002.004zm0 29.56-.37-.208-.002.004zm-9.75 9.905.206.371.004-.002zm-29.018 0-.21.369.004.002zm-9.827-9.905-.373.204.002.004zm0-29.56-.371-.208-.002.004zm9.827-9.827.206.371.004-.002zm25.923 47.203-.233-.355-.002.001zm7.661-9.054-.383-.184-.002.004zm0-27.084-.385.18.002.004zm-7.661-9.053-.235.353.002.001zm-22.905 0-.233-.355-.002.001zm-7.661 9.053-.383-.183-.001.004zm0 27.084-.384.179.002.005zm7.661 9.054-.235.353.002.001zm52.183-41.941v-.425h-.543l.132.528zm16.483.851-.121.407h.003zm4.952 2.476-.267.33.006.005zm3.173 3.946.384-.179zm-.465 11.298.371.206zm-4.333 4.566-.229-.358-.004.003zm-6.191 2.166-.046-.421-.115.814zm3.018 2.399-.313.287.007.007zm3.018 3.637-.348.243.004.006zm1.006 1.393-.344.249.007.009zm2.554 3.328-.337.258.006.008.006.007zm3.173 3.714-.321.278.007.008zm2.94 3.095-.3.3.009.009zm2.941 2.089-.19.38.011.006.011.005zm3.714.697h.424v-.425h-.424zm0 .774v.424h.424v-.424zm-9.441-1.084-.157.395.003.001zm-4.411-2.631-.293.308.008.006zm-2.94-3.095-.332.265.007.009zm-1.47-1.934-.353.235.006.01.007.009zm-2.399-3.483.346-.245zm-2.399-3.327-.348.243.006.009zm-1.315-1.857.339-.255-.003-.004zm-3.56-3.56-.267.331.008.006zm-4.256-1.625h-.424v.425h.424zm0-.774.026-.423-.45-.028v.451zm1.238.078-.026.423.013.001h.013zm3.173-.078-.015-.424h-.002zm4.333-.309.045.422.008-.001.007-.001zm4.024-1.703-.248-.344-.007.005zm3.018-4.642-.399-.146-.004.011zm.464-2.012-.421-.056zm.078-2.399-.425.015.001.011zm-.852-3.869-.392.16.003.008.003.007zm-2.089-2.941-.291.309.009.008zm-3.173-1.934-.149.397zm-4.178-.774-.018.424h.004zm-6.346-.078.013.425zm-2.94-.619-.412.103.008.033.014.032zm-.387-1.16-.412.103.009.033.013.031zm.774-.619h.424v-.425h-.424zm0 46.429v.424h.424v-.424zm-4.953 0h-.424v.424h.424zm0-46.429v-.425h-.424v.425zm.233 41.476.417-.078-.065-.346h-.352zm.928 4.953v.424h.512l-.095-.502zm-6.577 0h-.425v.424h.425zm0-.774v-.425h-.425v.425zm4.178-1.238.3.3zm1.316-2.941v-.424h-.406l-.018.405zm.155-36.601v.424h.351l.065-.345zm-.155 0-.424.018.017.406h.407zm-1.316-2.941.291-.31zm-4.178-1.161h-.425v.425h.425zm0-.773v-.425h-.425v.425zm6.577 0 .417.079.096-.504h-.513zm3.56 41.476v-.424h-.353l-.064.346zm.232 0 .424-.019-.019-.405h-.405zm1.315 2.941-.3.3zm4.102 1.238.422-.042-.038-.383h-.384zm.077.774v.424h.469l-.047-.466zm-6.655 0-.417-.078-.094.502h.511zm75.289-43.644-.19.38zm8.59 8.048-.369.211.002.003zm0 24.762-.367-.213zm-8.59 8.048.19.38.004-.002zm-29.715 2.786-.423.028.026.396h.397zm-.154-2.322v-.424h-.454l.03.453zm30.72-5.571-.312-.287h-.001zm0-30.566-.315.285.005.004zm-31.494-5.649h-.425v.424h.425zm0-2.321v-.425h-.425v.425zm2.012 0h.424v-.425h-.424zm0 46.429v.424h.424v-.424zm-5.03 0h-.424v.424h.424zm0-46.429v-.425h-.424v.425zm.155 41.399h.424v-.425h-.424zm0 5.03v.424h.424v-.424zm-5.572 0h-.424v.424h.424zm0-.774v-.425h-.424v.425zm4.101-1.238.301.3.009-.009zm1.316-3.018v-.425h-.406l-.018.406zm.155-36.37v.425h.424v-.425zm-.155 0-.424.018.017.407h.407zm-1.393-3.018-.3.301.009.009.01.009zm-4.024-1.238h-.424v.425h.424zm0-.773v-.425h-.424v.425zm5.572 0h.424v-.425h-.424zm59.516 0h.424v-.425h-.424zm0 46.429v.424h.424v-.424zm-4.953 0h-.424v.424h.424zm0-46.429v-.425h-.424v.425zm25.768 44.03.424.027.029-.452h-.453zm-.154 2.399v.424h.398l.025-.397zm-20.816 0h-.425v.424h.425zm0-2.399v-.425h-.425v.425zm17.333-21.977h.425v-.424h-.425zm0 2.322v.424h.425v-.424zm-17.333 0h-.425v.424h.425zm0-2.322v-.424h-.425v.424zm20.893-22.053h.424v-.425h-.424zm0 2.398v.425h.424v-.425zm-20.893 0h-.425v.425h.425zm0-2.398v-.425h-.425v.425zm25.304 35.363.396.152.222-.576h-.618zm-4.256 11.066v.424h.291l.105-.272zm-11.762 0-.286-.314-.81.738h1.096zm2.631-2.399v-.425h-.165l-.121.111zm6.19-1.083.18.384.005-.002zm3.869-3.096.338.257.005-.006zm2.554-4.488v-.424h-.278l-.111.254zm-7.197-11.143h.425v-.424h-.425zm0 4.411v.424h.425v-.424zm-.851 0h-.424v.424h.424zm-.774-3.25-.336.259.005.006.005.007zm-2.398-1.006h-.425v.424h.425zm0-.155v-.424h-.425v.424zm4.023-6.423h.425v-.424h-.425zm0 4.411v.425h.425v-.425zm-4.023 0h-.425v.425h.425zm0-.155v-.424h-.425v.424zm2.398-.928.326.272.006-.007.005-.006zm.774-3.328v-.424h-.424v.424zm4.411-15.631h.424v-.424h-.424zm0 5.34v.424h.424v-.424zm-.851 0h-.425v.424h.425zm-1.084-3.947-.32.278.005.006.005.006zm-2.785-1.161h-.425v.425h.425zm0-.232v-.424h-.425v.424zm4.72-3.405h.424v-.618l-.576.222zm0 2.012-.037.423.461.041v-.464zm-8.822-.773v-.425l-.037.847zm5.108-.387.06.42.011-.002zm-21.822 41.863.416-.084-.069-.34h-.347zm1.006 4.953v.424h.519l-.103-.509zm-6.732 0h-.425v.424h.425zm0-.774v-.425h-.425v.425zm4.256-1.238.3.3zm1.315-2.941v-.424h-.405l-.019.405zm.155-36.601v.424h.346l.07-.339zm-.155 0-.424.018.018.406h.406zm-1.315-2.941.29-.31zm-4.256-1.161h-.425v.425h.425zm0-.773v-.425h-.425v.425zm6.732 0 .416.085.105-.51h-.521zm41.1 0v-.425h-.544l.132.528zm16.482.851-.121.407h.003zm4.953 2.476-.267.33.006.005zm3.172 3.946.385-.179zm-.464 11.298.371.206zm-4.333 4.566-.229-.358-.004.003zm-6.191 2.166-.047-.421-.114.814zm3.018 2.399-.313.287.007.007zm3.018 3.637-.348.243.004.006zm1.006 1.393-.344.249.007.009zm2.554 3.328-.337.258.006.008.006.007zm3.172 3.714-.32.278.007.008zm2.941 3.095-.3.3.008.009zm2.94 2.089-.19.38.012.006.011.005zm3.715.697h.424v-.425h-.424zm0 .774v.424h.424v-.424zm-9.441-1.084-.158.395.004.001zm-4.411-2.631-.293.308.008.006zm-2.94-3.095-.332.265.007.009zm-1.471-1.934-.353.235.007.01.007.009zm-2.398-3.483.346-.245zm-2.399-3.327-.348.243.006.009zm-1.316-1.857.34-.255-.003-.004zm-3.559-3.56-.267.331.008.006zm-4.256-1.625h-.425v.425h.425zm0-.774.026-.423-.451-.028v.451zm1.238.078-.027.423.014.001h.013zm3.172-.078-.015-.424h-.001zm4.334-.309.045.422.007-.001.008-.001zm4.024-1.703-.248-.344-.007.005zm3.018-4.642-.399-.146-.004.011zm.464-2.012-.421-.056zm.077-2.399-.424.015.001.011zm-.851-3.869-.393.16.003.008.004.007zm-2.089-2.941-.291.309.009.008zm-3.173-1.934-.149.397zm-4.179-.774-.018.424h.004zm-6.345-.078.012.425zm-2.94-.619-.412.103.008.033.014.032zm-.387-1.16-.412.103.008.033.014.031zm.774-.619h.424v-.425h-.424zm0 46.429v.424h.424v-.424zm-4.953 0h-.424v.424h.424zm0-46.429v-.425h-.424v.425zm.232 41.476.417-.078-.064-.346h-.353zm.929 4.953v.424h.511l-.094-.502zm-6.578 0h-.424v.424h.424zm0-.774v-.425h-.424v.425zm4.179-1.238.3.3zm1.315-2.941v-.424h-.405l-.019.405zm.155-36.601v.424h.351l.066-.345zm-.155 0-.424.018.018.406h.406zm-1.315-2.941.29-.31zm-4.179-1.161h-.424v.425h.424zm0-.773v-.425h-.424v.425zm6.578 0 .417.079.096-.504h-.513zm3.559 41.476v-.424h-.352l-.065.346zm.233 0 .424-.019-.019-.405h-.405zm1.315 2.941-.3.3zm4.101 1.238.423-.042-.039-.383h-.384zm.078.774v.424h.469l-.047-.466zm-6.655 0-.417-.078-.095.502h.512zM19.526 104.083v54.168h.849v-54.168zm.424 53.743h-5.03v.849h5.03zm-4.605.425v-54.168h-.849v54.168zm-.424-53.743h5.03v-.849h-5.03zm25.498 51.344v2.399h.849v-2.399zm.425 1.974H19.717v.849h21.126zm-20.701.425v-2.399h-.85v2.399zm-.425-1.975h21.126v-.849H19.717zm25.446-10.704-4.488 12.536.8.286 4.487-12.536zm-4.088 12.254H28.23v.849h12.846zm-12.569.746 2.786-2.398-.554-.644-2.786 2.399zm2.509-2.296c2.772 0 5.06-.417 6.84-1.28l-.37-.764c-1.625.788-3.773 1.195-6.47 1.195zm6.845-1.283c1.814-.907 3.288-2.165 4.414-3.773l-.696-.487q-1.56 2.231-4.098 3.501zm4.414-3.773q1.652-2.363 2.906-5.34l-.782-.33q-1.223 2.904-2.82 5.183zm2.515-5.081h.774v-.849h-.774zm-30.062 6.463v5.649h.85v-5.649zm.425 5.224h-6.19v.849h6.19zm-5.766.425v-.774h-.85v.774zm-.425-.774v.424h.464v-.849h-.463zm.464.424h.542v-.849h-.542zm.542 0c1.451 0 2.695-.507 3.705-1.517l-.6-.6c-.847.847-1.873 1.268-3.105 1.268zm3.705-1.517c1.053-1.053 1.616-2.314 1.672-3.766l-.849-.032c-.047 1.23-.516 2.291-1.423 3.198zm1.248-3.358h.232v-.849h-.232zm.232-43.718h-.232v.849h.232zm.192.408c-.056-1.453-.62-2.692-1.68-3.697l-.584.617c.9.852 1.368 1.883 1.415 3.113zm-1.664-3.68c-1.008-1.065-2.254-1.603-3.713-1.603v.849c1.224 0 2.248.441 3.097 1.337zm-3.713-1.179v-.424h-.542v.849h.542zm-.542-.424h-.463v.849h.463zm-.04.424v-.774h-.848v.774zm-.424-.349h6.19v-.849h-6.19zm5.766-.425v5.649h.85v-5.649zm5.415 5.649v-5.649h-.85v5.649zm-.425-5.224h6.19v-.849h-6.19zm5.766-.425v.774h.85v-.774zm.425.35h-.542v.849h.541zm-.542 0h-.464v.849h.464zm-.464 0c-1.458 0-2.726.538-3.782 1.594l.6.601c.903-.904 1.957-1.346 3.182-1.346zm-3.782 1.594c-1.006 1.006-1.54 2.243-1.595 3.689l.849.033c.047-1.238.495-2.27 1.346-3.121zm-1.17 3.281h-.233v.849h.232zm39.08 2.514v46.429h.85v-46.429zm.425 46.004h-4.953v.849h4.953zm-4.528.425v-46.429h-.85v46.429zm-.425-46.005h4.953v-.849h-4.953zm25.345 43.579-.155 2.398.847.055.155-2.399zm.269 2.001H59.3v.849h20.816zm-20.392.425v-2.399h-.849v2.399zm-.424-1.975h20.97v-.849h-20.97zm16.91-22.401v2.322h.848v-2.322zm.424 1.897H59.3v.849h17.334zm-16.91.425v-2.322h-.849v2.322zm-.424-1.897h17.334v-.849H59.3zm20.469-22.478v2.398h.849v-2.398zm.424 1.974H59.301v.849h20.893zm-20.469.424v-2.398h-.849v2.398zm-.424-1.974h20.893v-.849H59.301zm24.908 34.787-4.256 11.065.792.305 4.256-11.066zm-3.86 10.793H68.587v.849h11.762zm-11.476.738 2.63-2.398-.571-.628-2.631 2.399zm2.345-2.288c2.612 0 4.745-.364 6.37-1.123l-.36-.769c-1.47.686-3.464 1.043-6.01 1.043zm6.375-1.125c1.654-.8 2.998-1.873 4.022-3.221l-.675-.514c-.936 1.232-2.171 2.223-3.716 2.97zm4.027-3.227q1.5-2.054 2.6-4.569l-.778-.34a23.2 23.2 0 0 1-2.507 4.408zm2.211-4.314h.774v-.849h-.774zm-7.62-11.568v4.411h.848v-4.411zm.424 3.986h-.852v.849h.852zm-.427.425v-1.006h-.85v1.006zm0-1.006c0-.967-.287-1.814-.872-2.516l-.653.544c.447.535.676 1.185.676 1.972zm-.862-2.503c-.618-.803-1.56-1.172-2.735-1.172v.849c.992 0 1.648.303 2.062.841zm-2.31-.747v-.155h-.85v.155zm-.425.27h4.023v-.849h-4.023zm3.6-6.848v4.411h.848v-4.411zm.424 3.987H72.61v.849h4.023zm-3.6.424v-.155h-.849v.155zm-.424.27c1.163 0 2.103-.335 2.725-1.081l-.653-.544c-.41.492-1.069.776-2.072.776zm2.735-1.094c.575-.748.862-1.614.862-2.581h-.85c0 .787-.228 1.469-.685 2.063zm.862-2.581v-1.006h-.85v1.006zm-.425-.581h.852v-.849h-.852zm3.987-16.056v5.34h.849v-5.34zm.424 4.915h-.851v.849h.851zm-.427.425v-1.161h-.849v1.161zm0-1.161c0-1.188-.4-2.221-1.197-3.075l-.62.579c.646.693.968 1.517.968 2.496zm-1.187-3.064c-.764-.882-1.818-1.307-3.106-1.307v.849c1.085 0 1.888.348 2.465 1.014zm-2.682-.883v-.232h-.849v.232zm-.424.193h4.72v-.849h-4.72zm4.296-3.83v2.012h.849v-2.012zm.461 1.59-8.821-.774-.075.845 8.822.774zm-8.858.073a37 37 0 0 0 5.167-.391l-.12-.841a36 36 0 0 1-5.047.383zm5.179-.393c1.803-.309 3.08-.599 3.794-.873l-.304-.793c-.627.241-1.826.519-3.634.829zm-22.31 41.53 1.006 4.952.832-.169-1.006-4.952zm1.422 4.443h-6.732v.849h6.732zm-6.308.425v-.774h-.849v.774zm-.424-.774v.424h.541v-.849h-.541zm.541.424h.542v-.849h-.542zm.542 0c1.39 0 2.56-.448 3.473-1.362l-.6-.6c-.737.737-1.683 1.113-2.873 1.113zm3.473-1.362c.898-.898 1.383-1.978 1.44-3.221l-.849-.039c-.046 1.026-.439 1.907-1.191 2.66zm1.015-2.816h.155v-.849h-.155zm.155-37.451h-.155v.849h.155zm.27.406c-.057-1.291-.54-2.378-1.45-3.232l-.58.62c.74.694 1.134 1.567 1.181 2.649zm-1.45-3.232c-.915-.858-2.082-1.275-3.463-1.275v.849c1.198 0 2.147.356 2.883 1.046zm-3.463-.851v-.424h-.542v.849h.542zm-.542-.424h-.541v.849h.541zm-.117.424v-.773h-.849v.773zm-.424-.349h6.732v-.849h-6.732zm6.316-.51-1.006 4.875.832.171 1.006-4.875zm57.826-.573q3.527 0 6.581.535l.147-.836q-3.137-.548-6.728-.548zm6.593.537q3.129.458 5.866 1.523l.308-.791q-2.834-1.102-6.051-1.572zm5.879 1.528a26 26 0 0 1 5.33 2.589l.455-.717a26.7 26.7 0 0 0-5.503-2.673zm5.138 2.296 1.703 10.911.838-.131-1.702-10.911zm2.122 10.421h-.696v.849h.696zm-.283.326c-.735-3.094-1.946-5.66-3.648-7.681l-.65.547c1.6 1.899 2.761 4.337 3.472 7.33zm-3.644-7.676c-1.652-2.025-3.808-3.512-6.453-4.464l-.288.798c2.513.905 4.537 2.307 6.083 4.203zm-6.446-4.462c-2.64-1.003-5.789-1.498-9.437-1.498v.849c3.575 0 6.616.485 9.135 1.443zm-9.437-1.498c-3.988 0-7.522.919-10.588 2.77l.438.726c2.918-1.761 6.297-2.647 10.15-2.647zm-10.586 2.769c-3.016 1.798-5.365 4.389-7.05 7.758l.76.379c1.617-3.235 3.859-5.699 6.724-7.408zm-7.048 7.755c-1.688 3.323-2.523 7.287-2.523 11.877h.85c0-4.489.815-8.315 2.43-11.492zm-2.523 11.877c0 4.54.835 8.503 2.521 11.875l.76-.38c-1.616-3.231-2.432-7.059-2.432-11.495zm2.521 11.875c1.685 3.369 4.06 5.985 7.125 7.834l.439-.727c-2.92-1.761-5.187-4.253-6.804-7.487zm7.13 7.837c3.065 1.797 6.597 2.689 10.584 2.689v-.849c-3.856 0-7.236-.861-10.155-2.573zm10.584 2.689q3.295 0 6.288-.708l-.196-.826q-2.889.685-6.092.685zm6.288-.708a23.3 23.3 0 0 0 5.754-2.206l-.405-.747a22.4 22.4 0 0 1-5.545 2.127zm5.757-2.208a25 25 0 0 0 5.274-3.936l-.591-.61a24.2 24.2 0 0 1-5.095 3.803zm5.403-4.237.077-10.292-.848-.007-.078 10.292zm.077-10.273c.057-1.094-.293-1.987-1.094-2.603l-.517.673c.541.416.809 1.019.763 1.885zm-1.081-2.593c-.721-.601-1.708-.872-2.903-.872v.849c1.076 0 1.843.245 2.36.676zm-2.903-.872h-1.083v.849h1.083zm-.658.425v-.774h-.849v.774zm-.425-.35h14.161v-.849h-14.161zm13.737-.424v.774h.848v-.774zm.424.349h-1.083v.849h1.083zm-1.083 0c-1.215 0-2.205.269-2.894.881-.698.621-1.013 1.528-1.013 2.639h.849c0-.953.265-1.593.728-2.004.472-.42 1.223-.667 2.33-.667zm-3.907 3.52v9.286h.849v-9.286zm.092 9.022c-1.158 1.46-2.753 2.957-4.797 4.49l.509.679c2.083-1.562 3.738-3.109 4.953-4.641zm-4.797 4.49q-3.034 2.278-7.317 3.809l.285.799q4.385-1.564 7.541-3.929zm-7.319 3.81c-2.782 1.011-5.982 1.522-9.605 1.522v.849c3.702 0 7.002-.522 9.895-1.574zm-9.601 1.522c-5.054-.051-9.449-1.046-13.198-2.971l-.387.755c3.886 1.995 8.416 3.012 13.576 3.065zm-13.196-2.97q-5.542-2.885-8.65-8.196l-.733.429q3.236 5.524 8.992 8.52zm-8.65-8.196c-2.071-3.534-3.115-7.764-3.115-12.708h-.85c0 5.065 1.072 9.45 3.232 13.137zm-3.115-12.708c0-4.996 1.044-9.252 3.114-12.786l-.732-.429c-2.16 3.689-3.231 8.1-3.231 13.215zm3.114-12.786q3.108-5.308 8.727-8.194l-.388-.755c-3.887 1.996-6.914 4.838-9.071 8.52zm8.727-8.194c3.747-1.924 8.115-2.893 13.116-2.893v-.849c-5.112 0-9.617.991-13.504 2.987zm63.815-3.143 21.281 47.048.773-.349-21.28-47.049zm21.667 46.449h-6.113v.849h6.113zm-5.72.263-16.483-40.161-.785.322 16.482 40.162zm-16.458-39.92 1.315-6.887-.834-.159-1.315 6.887zm-14.435 34.751c-.594 1.619-.554 3.011.303 4.053l.655-.54c-.587-.713-.702-1.745-.161-3.221zm.311 4.062c.787.899 1.722 1.383 2.796 1.383v-.849c-.784 0-1.499-.341-2.157-1.093zm2.796 1.383h.619v-.849h-.619zm.194-.424v.774h.849v-.774zm.425.349h-14.78v.849h14.78zm-14.356.425v-.774h-.848v.774zm-.424-.774v.424h.309v-.849h-.309zm.309.424h.31v-.849h-.31zm.31 0c1.182 0 2.369-.394 3.555-1.149l-.455-.717c-1.084.69-2.115 1.017-3.1 1.017zm3.567-1.157c1.218-.83 2.24-2.166 3.085-3.961l-.768-.362c-.806 1.712-1.744 2.905-2.796 3.622zm2.701-3.718h4.565v-.849h-4.565zm19.078-42.245.542 5.339.844-.085-.542-5.34zm.573 5.131-17.721 41.941.782.331 17.721-41.941zm-17.33 41.682h-4.875v.849h4.875zm-4.49.604 18.34-39.31-.77-.359-18.339 39.31zm17.955-39.489.392.163v-.001l.001-.003.005-.011.018-.043.072-.174.291-.697-.784-.326-.29.696-.073.174-.018.044-.004.011-.002.002v.001zm.766-.739a35 35 0 0 0 1.019-2.273l-.785-.323a33 33 0 0 1-.993 2.216zm1.015-2.262q.625-1.407 1.095-2.739l-.8-.283a37 37 0 0 1-1.071 2.678zm1.095-2.739c.314-.888.507-1.622.564-2.189l-.845-.084c-.046.465-.214 1.124-.519 1.99zm.142-1.806h.696v-.849h-.696zm9.403 29.058v2.321h.849v-2.321zm.424 1.897h-20.506v.849h20.506zm-20.082.424v-2.321h-.848v2.321zm-.424-1.897h20.506v-.849h-20.506zm24.453 12.381h5.881v-.849h-5.881zm5.492-.253c.794 1.799 1.791 3.138 3.013 3.971l.478-.701c-1.048-.715-1.96-1.904-2.714-3.612zm3.024 3.979c1.183.752 2.344 1.149 3.478 1.149v-.849c-.93 0-1.935-.325-3.022-1.017zm3.478.725v.424h.309v-.849h-.309zm.309.424h.31v-.849h-.31zm-.114-.424v.774h.848v-.774zm.424.349h-15.863v.849h15.863zm-15.439.425v-.774h-.849v.774zm-.424-.35h.619v-.849h-.619zm.619 0c1.029 0 1.937-.49 2.718-1.383l-.639-.559c-.663.759-1.354 1.093-2.079 1.093zm2.726-1.392c.858-1.042.897-2.434.303-4.053l-.797.292c.542 1.476.426 2.508-.161 3.221zm59.022-17.792-.851 10.601.846.068.851-10.602zm-.784 10.404q-1.962 3.02-5.147 5.221l.482.698q3.315-2.287 5.377-5.457zm-5.147 5.221q-3.19 2.204-7.233 3.425l.246.813q4.159-1.255 7.469-3.54zm-7.226 3.423q-4.04 1.144-8.551 1.145v.849q4.62 0 8.782-1.177zm-8.547 1.145c-5.158-.051-9.631-1.047-13.431-2.972l-.384.757c3.938 1.995 8.544 3.011 13.807 3.064zm-13.429-2.971c-3.747-1.924-6.626-4.653-8.647-8.191l-.737.422c2.105 3.684 5.108 6.527 8.996 8.524zm-8.647-8.191c-2.02-3.535-3.04-7.767-3.04-12.712h-.848c0 5.063 1.044 9.446 3.151 13.134zm-3.04-12.712c0-4.997 1.02-9.255 3.04-12.789l-.737-.422c-2.107 3.688-3.151 8.098-3.151 13.211zm3.04-12.789c2.021-3.538 4.9-6.267 8.647-8.191l-.388-.755c-3.888 1.997-6.891 4.839-8.996 8.524zm8.645-8.19c3.799-1.924 8.27-2.894 13.427-2.894v-.849c-5.264 0-9.872.99-13.811 2.986zm13.427-2.894q4.743 0 9.568 1.225l.209-.823q-4.924-1.251-9.777-1.251zm9.568 1.225q4.821 1.225 8.313 3.43l.453-.719c-2.417-1.523-5.272-2.7-8.557-3.534zm8.12 3.136 1.703 10.911.838-.131-1.702-10.911zm2.122 10.421h-.697v.849h.697zm-.284.326c-1.155-4.832-3.507-8.346-7.082-10.48l-.435.728c3.338 1.993 5.577 5.289 6.692 9.949zm-7.08-10.479c-3.483-2.111-7.664-3.157-12.523-3.157v.849c4.736 0 8.757 1.018 12.083 3.034zm-12.523-3.157c-4.14 0-7.752.918-10.821 2.77l.439.726c2.915-1.759 6.371-2.647 10.382-2.647zm-10.819 2.769c-3.016 1.798-5.365 4.389-7.049 7.758l.759.379c1.618-3.235 3.859-5.699 6.725-7.408zm-7.05 7.76c-1.635 3.321-2.443 7.283-2.443 11.872h.849c0-4.491.791-8.318 2.355-11.497zm-2.443 11.872c0 4.488.809 8.422 2.441 11.792l.764-.37c-1.566-3.233-2.356-7.036-2.356-11.422zm2.445 11.8c1.685 3.317 4.06 5.906 7.123 7.754l.439-.727c-2.921-1.762-5.189-4.229-6.805-7.412zm7.128 7.757c3.066 1.797 6.675 2.714 10.811 2.767l.01-.849c-4.014-.051-7.473-.94-10.392-2.65zm10.816 2.767q5.874.002 10.604-1.888l-.315-.788c-3.038 1.215-6.465 1.827-10.289 1.827zm10.608-1.889c3.217-1.319 5.834-3.353 7.842-6.101l-.685-.501c-1.913 2.618-4.403 4.556-7.479 5.816zm7.842-6.101c2.02-2.764 3.147-6.305 3.409-10.594l-.848-.051c-.254 4.171-1.345 7.543-3.246 10.144zm2.985-10.195h.696v-.849h-.696zm11.785-27.068 14.316 25.459.74-.416-14.316-25.459zm14.41 24.928-3.173 2.708.552.646 3.172-2.709zm-2.539 2.804-17.875-28.167-.717.454 17.876 28.167zm-18.233-27.516h6.732v-.849h-6.732zm21.784 25.963v19.965h.849v-19.965zm.424 19.54h-5.029v.849h5.029zm-4.605.425v-19.965h-.849v19.965zm-.424-19.54h5.029v-.849h-5.029zm18.03-26.388h4.875v-.849h-4.875zm4.52-.657-18.417 28.012.709.466 18.417-28.012zm-17.941 27.838-2.864-.851-.241.814 2.863.851zm-2.621-.225 16.405-27.161-.727-.439-16.405 27.162zm13.473-22.3c.626-1.139.676-2.255.071-3.283l-.731.43c.426.726.425 1.518-.084 2.443zm.071-3.283c-.602-1.024-1.577-1.525-2.842-1.525v.849c1.006 0 1.681.376 2.111 1.106zm-2.842-1.101v-.424h-.464v.849h.464zm-.464-.424h-.464v.849h.464zm-.04.424v-.773h-.849v.773zm-.424-.349h16.172v-.849h-16.172zm15.748-.424v.773h.849v-.773zm.424.349h-.928v.849h.928zm-.928 0c-1.531 0-2.977.439-4.33 1.305l.457.715c1.226-.784 2.514-1.171 3.873-1.171zm-4.326 1.303c-1.279.799-2.304 1.739-3.064 2.824l.696.487c.685-.978 1.62-1.843 2.818-2.592zm-2.736 2.644-4.875.232.04.848 4.875-.232zm-27.668.154-6.577-.232-.03.849 6.577.232zm-6.244-.05a9.3 9.3 0 0 0-3.241-2.916l-.405.746a8.45 8.45 0 0 1 2.949 2.655zm-3.223-2.906c-1.258-.766-2.677-1.145-4.244-1.145v.849c1.424 0 2.688.343 3.803 1.021zm-4.244-1.145h-.929v.849h.929zm-.504.424v-.773h-.849v.773zm-.425-.349h17.953v-.849H236.32zm17.528-.424v.773h.849v-.773zm.425.773v-.424h-.465v.849h.465zm-.465-.424h-.464v.849h.464zm-.464 0c-.626 0-1.19.128-1.678.403-.489.275-.878.684-1.169 1.208l.742.412c.225-.404.507-.691.843-.88.338-.19.753-.294 1.262-.294zm-2.851 1.619c-.537 1.014-.498 2.069.081 3.113l.742-.413c-.452-.813-.465-1.563-.073-2.303zm7.998 39.508v4.953h.849v-4.953zm.425 4.528h-5.649v.849h5.649zm-5.225.425v-.774h-.849v.774zm-.424-.35h.464v-.849h-.464zm.464 0h.464v-.849h-.464zm.464 0c1.343 0 2.486-.452 3.396-1.362l-.601-.6c-.74.74-1.662 1.113-2.795 1.113zm3.387-1.353c.952-.896 1.469-1.978 1.525-3.23l-.847-.039c-.047 1.018-.458 1.896-1.26 2.651zm1.102-2.825h.232v-.849h-.232zm4.797 0h.232v-.849h-.232zm-.192-.405c.057 1.243.542 2.323 1.44 3.221l.6-.6c-.753-.753-1.145-1.634-1.192-2.66zm1.449 3.23c.958.902 2.121 1.353 3.463 1.353v-.849c-1.133 0-2.085-.373-2.881-1.122zm3.463.929v.424h.465v-.849h-.465zm.465.424h.464v-.849h-.464zm.04-.424v.774h.849v-.774zm.424.349h-5.649v.849h5.649zm-5.224.425v-4.953h-.849v4.953zm44.41-54.168v54.168h.849v-54.168zm.424 53.743h-5.03v.849h5.03zm-4.605.425v-54.168h-.849v54.168zm-.425-53.743h5.03v-.849h-5.03zm-.192 48.094v5.649h.849v-5.649zm.424 5.224h-6.19v.849h6.19zm-5.766.425v-.774h-.849v.774zm-.424-.774v.424h.464v-.849h-.464zm.464.424h.542v-.849h-.542zm.542 0c1.451 0 2.695-.507 3.705-1.517l-.6-.6c-.848.847-1.874 1.268-3.105 1.268zm3.705-1.517c1.053-1.053 1.616-2.314 1.671-3.766l-.848-.032c-.047 1.23-.516 2.291-1.423 3.198zm1.247-3.358h.232v-.849h-.232zm.232-43.718h-.232v.849h.232zm.192.408c-.055-1.453-.619-2.692-1.679-3.697l-.584.617c.9.852 1.368 1.883 1.415 3.113zm-1.663-3.68c-1.008-1.065-2.254-1.603-3.713-1.603v.849c1.224 0 2.248.441 3.097 1.337zm-3.713-1.179v-.424h-.542v.849h.542zm-.542-.424h-.464v.849h.464zm-.04.424v-.774h-.849v.774zm-.424-.349h6.19v-.849h-6.19zm5.766-.425v5.649h.849v-5.649zm4.99 48.943h.232v-.849h-.232zm-.192-.408c.056 1.445.587 2.704 1.586 3.758l.617-.584c-.859-.906-1.307-1.969-1.355-3.206zm1.603 3.774c1.058 1.003 2.323 1.509 3.774 1.509v-.849c-1.232 0-2.289-.422-3.191-1.276zm3.774 1.085v.424h.464v-.849h-.464zm.464.424h.542v-.849h-.542zm.117-.424v.774h.849v-.774zm.425.349h-6.191v.849h6.191zm-5.767.425v-5.649h-.848v5.649zm0-48.519v-5.649h-.848v5.649zm-.424-5.224h6.191v-.849h-6.191zm5.766-.425v.774h.849v-.774zm.425.35h-.542v.849h.542zm-.542 0h-.464v.849h.464zm-.464 0c-1.458 0-2.726.538-3.783 1.594l.601.601c.903-.904 1.957-1.346 3.182-1.346zm-3.783 1.594c-1.006 1.006-1.538 2.243-1.594 3.689l.848.033c.048-1.238.495-2.27 1.347-3.121zm-1.17 3.281h-.232v.849h.232zm15.487 1.662 42.869 40.393.582-.618-42.869-40.393zm42.738 40.124.773 8.28.846-.079-.774-8.28zm1.488 7.932-42.87-40.626-.583.617 42.869 40.625zm-42.739-40.358-.774-8.048-.845.081.774 8.048zm-1.466 34.785v4.798h.849v-4.798zm.424 4.373h-5.803v.849h5.803zm-5.379.425v-.774h-.849v.774zm-.424-.774v.424h.619v-.849h-.619zm.619.424h.696v-.849h-.696zm.696 0c1.289 0 2.4-.424 3.308-1.275l-.58-.619c-.743.696-1.643 1.045-2.728 1.045zm3.308-1.275c.912-.854 1.373-1.921 1.373-3.173h-.849c0 1.018-.365 1.86-1.104 2.554zm.948-2.748h.232v-.849h-.232zm3.058-.425c0 1.252.461 2.319 1.372 3.173l.581-.619c-.74-.694-1.104-1.536-1.104-2.554zm1.382 3.181c.952.84 2.057 1.267 3.298 1.267v-.849c-1.028 0-1.935-.346-2.737-1.054zm3.298.843v.424h.62v-.849h-.62zm.62.424h.696v-.849h-.696zm.272-.424v.774h.848v-.774zm.424.349h-5.804v.849h5.804zm-5.379.425v-4.798h-.849v4.798zm-.425-4.373h.232v-.849h-.232zm-3.509-42.959 3.327 4.334.674-.517-3.328-4.334zm3.24 4.076.077 43.257.849-.002-.077-43.257zm.501 42.831h-3.482v.849h3.482zm-3.057.425v-37.917h-.849v37.917zm0-37.917q0-3.967-.391-6.867l-.841.114q.382 2.825.383 6.753zm-.39-6.856-.232-2.147-.058-.537-.014-.134-.004-.034-.001-.008v-.003l-.422.046-.422.045v.003l.001.009.004.033.014.134.058.537.232 2.148zm-.731-2.393h.774v-.849h-.774zm43.993.737v37.607h.849v-37.607zm0 37.607q0 2.49.155 4.826l.847-.056a72 72 0 0 1-.153-4.77zm.155 4.827q.155 2.249.311 3.73l.845-.089q-.155-1.46-.309-3.699zm.315 3.755.174 1.045.043.261.011.065.003.016.001.005v.001l.419-.07.418-.07v-.001l-.001-.004-.002-.016-.011-.066-.044-.261-.174-1.045zm.651.899h-.697v.849h.697zm-.37.153-3.405-4.101-.653.542 3.405 4.101zm-3.307-3.83v-43.411h-.849v43.411zm-.425-42.987h3.405v-.849h-3.405zm3.597 4.373v-4.797h-.848v4.797zm-.424-4.373h5.804v-.849h-5.804zm5.379-.424v.773h.849v-.773zm.425.773v-.424h-.697v.849h.697zm-.697-.424h-.619v.849h.619zm-.619 0c-1.242 0-2.347.427-3.299 1.267l.562.636c.802-.707 1.709-1.054 2.737-1.054zm-3.308 1.275c-.911.855-1.372 1.921-1.372 3.173h.849c0-1.018.364-1.86 1.103-2.553zm-.948 2.749h-.232v.849h.232zm-2.981.405c-.056-1.245-.542-2.304-1.449-3.154l-.58.62c.744.698 1.135 1.548 1.181 2.573zm-1.449-3.154c-.908-.851-2.02-1.275-3.308-1.275v.849c1.084 0 1.985.35 2.728 1.046zm-3.308-.851v-.424h-.697v.849h.697zm-.697-.424h-.619v.849h.619zm-.194.424v-.773h-.849v.773zm-.425-.349h5.804v-.849h-5.804zm5.38-.424v4.797h.848v-4.797zm.424 4.373h-.155v.849h.155zm41.655-12.771c5.457 0 10.232 1.173 14.338 3.505l.419-.739c-4.252-2.414-9.175-3.614-14.757-3.614zm14.341 3.507q6.16 3.422 9.584 9.66l.745-.408q-3.541-6.452-9.917-9.994zm9.586 9.664c2.332 4.157 3.506 9.01 3.506 14.572h.848c0-5.684-1.199-10.684-3.613-14.988zm3.506 14.572c0 5.562-1.174 10.415-3.506 14.572l.741.416c2.414-4.303 3.613-9.304 3.613-14.988zm-3.508 14.576q-3.423 6.24-9.587 9.74l.419.738q6.372-3.62 9.913-10.07zm-9.584 9.738c-4.106 2.281-8.882 3.429-14.341 3.429v.849c5.58 0 10.503-1.174 14.753-3.536zm-14.341 3.429c-5.407 0-10.158-1.147-14.265-3.429l-.412.742c4.25 2.361 9.147 3.536 14.677 3.536zm-14.261-3.427c-4.111-2.335-7.332-5.58-9.667-9.744l-.741.416q3.618 6.447 9.988 10.066zm-9.665-9.74c-2.282-4.158-3.43-9.012-3.43-14.576h-.849c0 5.683 1.173 10.682 3.534 14.984zm-3.43-14.576c0-5.564 1.148-10.418 3.43-14.576l-.745-.408c-2.361 4.302-3.534 9.301-3.534 14.984zm3.428-14.572q3.501-6.243 9.663-9.664l-.412-.742c-4.249 2.36-7.581 5.693-9.992 9.99zm9.667-9.666c4.106-2.332 8.855-3.505 14.261-3.505v-.848c-5.532 0-10.43 1.2-14.681 3.614zm14.261 50.508c4.458 0 8.359-1.103 11.687-3.321l-.47-.707c-3.172 2.115-6.906 3.179-11.217 3.179zm11.685-3.32c3.373-2.213 5.976-5.294 7.812-9.229l-.769-.359c-1.775 3.804-4.278 6.759-7.509 8.879zm7.81-9.224c1.89-3.937 2.828-8.516 2.828-13.726h-.849c0 5.108-.919 9.557-2.744 13.358zm2.828-13.726c0-5.21-.938-9.789-2.828-13.725l-.765.367c1.825 3.801 2.744 8.25 2.744 13.358zm-2.826-13.721c-1.836-3.935-4.439-7.016-7.812-9.229l-.466.709c3.231 2.12 5.734 5.075 7.509 8.879zm-7.81-9.228c-3.328-2.218-7.229-3.321-11.687-3.321v.849c4.311 0 8.045 1.064 11.217 3.179zm-11.687-3.321c-4.408 0-8.308 1.103-11.686 3.32l.466.709c3.226-2.117 6.96-3.18 11.22-3.18zm-11.688 3.321c-3.32 2.213-5.922 5.293-7.808 9.224l.765.367c1.827-3.808 4.333-6.764 7.513-8.884zm-7.81 9.228c-1.837 3.935-2.749 8.513-2.749 13.721h.849c0-5.109.894-9.56 2.669-13.362zm-2.749 13.721c0 5.208.912 9.786 2.749 13.721l.769-.359c-1.775-3.802-2.669-8.252-2.669-13.362zm2.751 13.726c1.886 3.93 4.488 7.01 7.808 9.223l.47-.707c-3.18-2.12-5.686-5.076-7.513-8.884zm7.81 9.224c3.378 2.217 7.278 3.32 11.686 3.32v-.849c-4.26 0-7.994-1.063-11.22-3.18zm52.416-41.871h9.983v-.849h-9.983zm9.983 0q3.587.002 6.379.834l.242-.814q-2.935-.87-6.621-.869zm6.382.834c1.916.555 3.513 1.357 4.803 2.399l.534-.66c-1.393-1.125-3.097-1.974-5.101-2.554zm4.809 2.404q2.011 1.564 3.049 3.791l.769-.359q-1.128-2.417-3.296-4.102zm3.049 3.791c.693 1.484 1.044 3.175 1.044 5.082h.849c0-2.013-.372-3.829-1.124-5.441zm1.044 5.082q0 3.142-1.495 5.83l.742.412q1.602-2.883 1.602-6.242zm-1.495 5.83c-.996 1.793-2.39 3.264-4.19 4.414l.457.715q2.873-1.835 4.475-4.717zm-4.195 4.417q-2.616 1.721-6.004 2.1l.093.843q3.576-.395 6.377-2.234zm-6.119 2.914c.791.326 1.746 1.071 2.867 2.293l.625-.573c-1.149-1.254-2.206-2.108-3.169-2.505zm2.873 2.3q1.76 1.837 2.976 3.586l.697-.485q-1.26-1.812-3.06-3.688zm3.324 3.343-.344.249.001.001.003.004.012.017.047.065.189.261.754 1.045.688-.497-.754-1.045-.189-.261-.047-.065-.012-.017-.003-.004v-.001h-.001zm.669 1.651q1.007 1.316 2.554 3.328l.673-.517a1852 1852 0 0 1-2.553-3.327zm2.566 3.343a291 291 0 0 0 3.177 3.719l.641-.557a283 283 0 0 1-3.168-3.708zm3.184 3.727a95 95 0 0 0 2.954 3.109l.6-.6a95 95 0 0 1-2.927-3.081zm2.963 3.118q1.432 1.354 3.042 2.16l.379-.759q-1.486-.743-2.839-2.018zm3.064 2.171c1.145.49 2.442.73 3.882.73v-.849c-1.346 0-2.525-.224-3.547-.662zm3.457.306v.774h.849v-.774zm.425.349h-2.399v.849h2.399zm-2.399 0c-2.805 0-5.096-.357-6.888-1.054l-.308.791c1.923.748 4.327 1.112 7.196 1.112zm-6.884-1.053c-1.771-.708-3.194-1.561-4.283-2.551l-.571.628c1.181 1.074 2.698 1.975 4.539 2.711zm-4.275-2.544a39 39 0 0 1-2.909-3.061l-.65.547a40 40 0 0 0 2.972 3.128zm-2.903-3.053c-.201-.252-.686-.89-1.462-1.924l-.679.509c.773 1.03 1.267 1.681 1.479 1.945zm-1.448-1.905a152 152 0 0 0-2.406-3.492l-.692.491a149 149 0 0 1 2.392 3.472zm-2.406-3.492a222 222 0 0 0-2.403-3.334l-.684.504q1.081 1.466 2.395 3.321zm-2.397-3.325a106 106 0 0 0-1.324-1.869l-.679.509c.15.2.583.812 1.307 1.846zm-1.327-1.873a19.8 19.8 0 0 0-3.637-3.637l-.518.673a19 19 0 0 1 3.482 3.482zm-3.629-3.631c-1.405-1.135-2.915-1.719-4.523-1.719v.849c1.384 0 2.711.498 3.989 1.53zm-4.099-1.295v-.774h-.848v.774zm-.424-.774-.027.424h.005l.015.001.058.004.232.014.929.058.053-.847-.929-.058-.232-.014-.058-.004-.015-.001h-.005zm1.238.502q1.25 0 3.19-.078l-.034-.848a81 81 0 0 1-3.156.077zm3.188-.077a62 62 0 0 0 4.363-.312l-.09-.844a60 60 0 0 1-4.303.307zm4.378-.314q2.28-.328 4.219-1.783l-.51-.679c-1.184.888-2.459 1.426-3.829 1.622zm4.212-1.778c1.387-.999 2.434-2.638 3.173-4.853l-.806-.269c-.706 2.118-1.671 3.575-2.863 4.433zm3.169-4.842q.328-.907.486-2.101l-.842-.112q-.151 1.126-.442 1.922zm.486-2.101q.16-1.204.08-2.482l-.847.053q.075 1.2-.075 2.317zm.081-2.47c-.054-1.492-.347-2.837-.889-4.03l-.773.351q.736 1.614.813 3.709zm-.883-4.015a8.3 8.3 0 0 0-2.2-3.097l-.564.634a7.5 7.5 0 0 1 1.979 2.784zm-2.191-3.089q-1.385-1.301-3.315-2.023l-.298.795q1.785.67 3.031 1.846zm-3.315-2.023q-1.933-.723-4.313-.8l-.028.848q2.262.076 4.043.747zm-4.309-.8q-3.648-.156-6.376-.078l.025.849q2.688-.078 6.315.077zm-6.376-.078a77 77 0 0 1-2.019.039q-.334 0-.483-.009l-.058-.005-.022-.002.012.003a.2.2 0 0 1 .042.013c.016.007.062.026.111.068.05.042.146.148.146.317h-.849c0 .173.097.282.151.327.052.045.103.067.126.077a.6.6 0 0 0 .118.032c.052.009.114.014.174.017q.19.01.532.011.688 0 2.044-.039zm-2.271.424a.7.7 0 0 0-.033-.189 2 2 0 0 0-.053-.153 12 12 0 0 0-.181-.444l-.78.335q.114.267.167.407l.036.107-.002-.017q-.002-.013-.003-.046zm-.245-.722a8 8 0 0 0-.409-1.225l-.78.335q.218.507.365 1.096zm-.387-1.16-.116-.465-.029-.116-.008-.029-.001-.007-.001-.002-.412.103-.411.103v.002l.002.007.007.029.029.116.116.465zm-.063-.516v46.429h.849v-46.429zm.425 46.004h-4.953v.849h4.953zm-4.528.425v-46.429h-.849v46.429zm-.425-46.005h4.953v-.849h-4.953zm-.185 41.131.929 4.952.834-.156-.928-4.953zm1.346 4.449h-6.577v.849h6.577zm-6.153.425v-.774h-.849v.774zm-.424-.774v.424h.541v-.849h-.541zm.541.424h.542v-.849h-.542zm.542 0c1.343 0 2.485-.452 3.395-1.362l-.6-.6c-.74.74-1.662 1.113-2.795 1.113zm3.395-1.362c.898-.898 1.383-1.978 1.44-3.221l-.848-.039c-.047 1.026-.439 1.907-1.192 2.66zm1.016-2.816h.155v-.849h-.155zm.155-37.451h-.155v.849h.155zm.269.406c-.056-1.291-.539-2.378-1.449-3.232l-.581.62c.74.694 1.135 1.567 1.182 2.649zm-1.449-3.232c-.912-.854-2.051-1.275-3.386-1.275v.849c1.141 0 2.066.353 2.805 1.046zm-3.386-.851v-.424h-.542v.849h.542zm-.542-.424h-.541v.849h.541zm-.117.424v-.773h-.849v.773zm-.424-.349h6.577v-.849h-6.577zm6.16-.504-.928 4.875.833.159.929-4.875zm3.977 41.981h.232v-.849h-.232zm-.192-.405c.056 1.243.541 2.323 1.439 3.221l.6-.6c-.752-.753-1.145-1.634-1.191-2.66zm1.439 3.221c.91.91 2.053 1.362 3.396 1.362v-.849c-1.133 0-2.055-.373-2.796-1.113zm3.396.938v.424h.464v-.849h-.464zm.464.424h.542v-.849h-.542zm.119-.382.078.774.844-.084-.077-.774zm.5.307h-6.655v.849h6.655zm-6.238.503.929-4.952-.834-.157-.929 4.953zm61.64-46.083c5.056 0 9.399.919 13.042 2.741l.38-.759c-3.785-1.893-8.264-2.831-13.422-2.831zm13.042 2.741c3.642 1.821 6.442 4.446 8.411 7.879l.737-.422c-2.055-3.583-4.981-6.323-8.768-8.216zm8.413 7.882c1.967 3.379 2.96 7.429 2.96 12.167h.849c0-4.858-1.019-9.061-3.076-12.594zm2.96 12.167c0 4.738-.993 8.788-2.96 12.168l.733.427c2.057-3.533 3.076-7.737 3.076-12.595zm-2.96 12.168c-1.97 3.383-4.771 6.01-8.417 7.883l.388.756c3.783-1.945 6.708-4.683 8.762-8.212zm-8.413 7.881c-3.643 1.822-7.986 2.741-13.042 2.741v.849c5.158 0 9.637-.938 13.422-2.83zm-13.042 2.741h-16.483v.849h16.483zm-16.059.397-.155-2.322-.847.057.155 2.321zm-.578-1.869h9.053v-.849h-9.053zm9.053 0h5.649v-.849h-5.649zm5.649 0h1.935v-.849h-1.935zm1.935 0c6.079 0 10.896-1.891 14.396-5.709l-.626-.574c-3.309 3.61-7.881 5.434-13.77 5.434zm14.396-5.709c3.546-3.863 5.296-9.083 5.296-15.609h-.849c0 6.371-1.705 11.366-5.072 15.035zm5.296-15.609c0-6.525-1.75-11.721-5.298-15.533l-.621.578c3.365 3.616 5.07 8.584 5.07 14.955zm-5.294-15.529c-3.5-3.871-8.317-5.788-14.398-5.788v.848c5.887 0 10.459 1.849 13.769 5.51zm-14.398-5.364v-.424h-2.012v.848h2.012zm-2.012-.424h-5.881v.848h5.881zm-5.881 0h-9.518v.848h9.518zm-9.094.424v-2.321h-.849v2.321zm-.424-1.897h17.411v-.849H491.71zm1.587-.424v46.429h.849v-46.429zm.425 46.004h-5.03v.849h5.03zm-4.606.425v-46.429h-.848v46.429zm-.424-46.005h5.03v-.849h-5.03zm-.27 40.975v5.03h.849v-5.03zm.425 4.605h-5.572v.849h5.572zm-5.147.425v-.774h-.849v.774zm-.425-.774v.424h.465v-.849h-.465zm.465.424h.541v-.849h-.541zm.541 0c1.343 0 2.485-.452 3.396-1.362l-.601-.6c-.74.74-1.662 1.113-2.795 1.113zm3.405-1.371c.89-.946 1.374-2.047 1.43-3.29l-.848-.038c-.047 1.027-.44 1.938-1.201 2.746zm1.006-2.885h.155v-.849h-.155zm.155-37.218h-.155v.849h.155zm.269.407c-.056-1.346-.567-2.464-1.536-3.319l-.562.637c.785.692 1.203 1.587 1.25 2.717zm-1.517-3.301c-.91-.91-2.052-1.362-3.395-1.362v.849c1.133 0 2.054.373 2.795 1.114zm-3.395-.938v-.424h-.464v.849h.464zm-.464-.424h-.465v.849h.465zm-.04.424v-.773h-.849v.773zm-.425-.349h5.572v-.849h-5.572zm5.147-.424v5.029h.849v-5.029zm59.516 0v46.429h.849v-46.429zm.425 46.004h-4.953v.849h4.953zm-4.528.425v-46.429h-.849v46.429zm-.425-46.005h4.953v-.849h-4.953zm25.345 43.579-.155 2.398.847.055.155-2.399zm.269 2.001h-20.816v.849h20.816zm-20.392.425v-2.399h-.849v2.399zm-.424-1.975h20.97v-.849h-20.97zm16.909-22.401v2.322h.849v-2.322zm.424 1.897h-17.333v.849h17.333zm-16.909.425v-2.322h-.849v2.322zm-.424-1.897h17.333v-.849h-17.333zm20.469-22.478v2.398h.848v-2.398zm.424 1.974h-20.893v.849h20.893zm-20.469.424v-2.398h-.849v2.398zm-.424-1.974h20.893v-.849h-20.893zm24.908 34.787-4.256 11.065.792.305 4.256-11.066zm-3.86 10.793h-11.762v.849h11.762zm-11.476.738 2.631-2.398-.572-.628-2.631 2.399zm2.345-2.288c2.612 0 4.745-.364 6.37-1.123l-.359-.769c-1.47.686-3.465 1.043-6.011 1.043zm6.375-1.125c1.654-.8 2.998-1.873 4.022-3.221l-.676-.514c-.936 1.232-2.171 2.223-3.716 2.97zm4.027-3.227q1.5-2.054 2.6-4.569l-.778-.34a23.2 23.2 0 0 1-2.507 4.408zm2.211-4.314h.774v-.849h-.774zm-7.621-11.568v4.411h.849v-4.411zm.424 3.986h-.851v.849h.851zm-.426.425v-1.006h-.849v1.006zm0-1.006c0-.967-.287-1.814-.873-2.516l-.652.544c.447.535.676 1.185.676 1.972zm-.862-2.503c-.618-.803-1.561-1.172-2.735-1.172v.849c.992 0 1.648.303 2.062.841zm-2.311-.747v-.155h-.849v.155zm-.424.27h4.023v-.849h-4.023zm3.599-6.848v4.411h.849v-4.411zm.424 3.987h-4.023v.849h4.023zm-3.599.424v-.155h-.849v.155zm-.424.27c1.163 0 2.102-.335 2.724-1.081l-.652-.544c-.409.492-1.069.776-2.072.776zm2.735-1.094c.575-.748.862-1.614.862-2.581h-.849c0 .787-.229 1.469-.686 2.063zm.862-2.581v-1.006h-.849v1.006zm-.425-.581h.851v-.849h-.851zm3.987-16.056v5.34h.848v-5.34zm.424 4.915h-.851v.849h.851zm-.427.425v-1.161h-.849v1.161zm0-1.161c0-1.188-.4-2.221-1.197-3.075l-.621.579c.647.693.969 1.517.969 2.496zm-1.187-3.064c-.764-.882-1.818-1.307-3.106-1.307v.849c1.085 0 1.888.348 2.465 1.014zm-2.682-.883v-.232h-.849v.232zm-.424.193h4.72v-.849h-4.72zm4.296-3.83v2.012h.848v-2.012zm.461 1.59-8.821-.774-.075.845 8.822.774zm-8.859.073a37 37 0 0 0 5.168-.391l-.12-.841a36 36 0 0 1-5.048.383zm5.179-.393c1.804-.309 3.081-.599 3.795-.873l-.304-.793c-.627.241-1.827.519-3.634.829zm-22.309 41.53 1.006 4.952.832-.169-1.006-4.952zm1.422 4.443h-6.732v.849h6.732zm-6.308.425v-.774h-.849v.774zm-.424-.774v.424h.541v-.849h-.541zm.541.424h.542v-.849h-.542zm.542 0c1.389 0 2.559-.448 3.473-1.362l-.601-.6c-.737.737-1.682 1.113-2.872 1.113zm3.473-1.362c.898-.898 1.383-1.978 1.439-3.221l-.848-.039c-.046 1.026-.439 1.907-1.192 2.66zm1.015-2.816h.155v-.849h-.155zm.155-37.451h-.155v.849h.155zm.269.406c-.056-1.291-.538-2.378-1.449-3.232l-.581.62c.74.694 1.135 1.567 1.182 2.649zm-1.449-3.232c-.915-.858-2.082-1.275-3.463-1.275v.849c1.198 0 2.147.356 2.882 1.046zm-3.463-.851v-.424h-.542v.849h.542zm-.542-.424h-.541v.849h.541zm-.117.424v-.773h-.849v.773zm-.424-.349h6.732v-.849h-6.732zm6.316-.51-1.006 4.875.832.171 1.006-4.875zm41.516.51h9.982v-.849h-9.982zm9.982 0q3.588.002 6.379.834l.242-.814q-2.934-.87-6.621-.869zm6.382.834c1.916.555 3.514 1.357 4.804 2.399l.533-.66c-1.392-1.125-3.096-1.974-5.101-2.554zm4.81 2.404q2.011 1.564 3.049 3.791l.769-.359q-1.13-2.417-3.297-4.102zm3.049 3.791c.692 1.484 1.043 3.175 1.043 5.082h.849c0-2.013-.371-3.829-1.123-5.441zm1.043 5.082q0 3.142-1.494 5.83l.742.412q1.601-2.883 1.601-6.242zm-1.494 5.83q-1.493 2.69-4.191 4.414l.457.715c1.914-1.223 3.409-2.796 4.476-4.717zm-4.195 4.417c-1.746 1.147-3.744 1.848-6.005 2.1l.094.843q3.576-.395 6.377-2.234zm-6.119 2.914c.79.326 1.746 1.071 2.866 2.293l.626-.573c-1.149-1.254-2.206-2.108-3.169-2.505zm2.873 2.3q1.76 1.837 2.976 3.586l.696-.485q-1.26-1.812-3.059-3.688zm3.324 3.343-.344.249.001.001.003.004.012.017.047.065.188.261.755 1.045.688-.497-.754-1.045-.189-.261-.047-.065-.012-.017-.003-.004-.001-.001zm.669 1.651q1.006 1.316 2.554 3.328l.673-.517q-1.548-2.012-2.553-3.327zm2.566 3.343a276 276 0 0 0 3.177 3.719l.641-.557a268 268 0 0 1-3.168-3.708zm3.184 3.727a94 94 0 0 0 2.954 3.109l.6-.6a95 95 0 0 1-2.927-3.081zm2.962 3.118q1.434 1.354 3.042 2.16l.38-.759q-1.486-.743-2.839-2.018zm3.065 2.171c1.145.49 2.442.73 3.882.73v-.849c-1.346 0-2.526-.224-3.548-.662zm3.457.306v.774h.849v-.774zm.425.349h-2.399v.849h2.399zm-2.399 0c-2.805 0-5.096-.357-6.888-1.054l-.308.791c1.922.748 4.326 1.112 7.196 1.112zm-6.884-1.053c-1.771-.708-3.194-1.561-4.283-2.551l-.571.628c1.181 1.074 2.698 1.975 4.538 2.711zm-4.276-2.544a39 39 0 0 1-2.909-3.061l-.649.547a40 40 0 0 0 2.972 3.128zm-2.902-3.053c-.201-.252-.687-.89-1.462-1.924l-.679.509c.772 1.03 1.267 1.681 1.478 1.945zm-1.448-1.905a152 152 0 0 0-2.406-3.492l-.693.491a146 146 0 0 1 2.392 3.472zm-2.406-3.492a214 214 0 0 0-2.404-3.334l-.683.504q1.08 1.466 2.394 3.321zm-2.398-3.325a109 109 0 0 0-1.323-1.869l-.679.509c.149.2.583.812 1.307 1.846zm-1.326-1.873a19.8 19.8 0 0 0-3.638-3.637l-.517.673a19 19 0 0 1 3.482 3.482zm-3.63-3.631c-1.404-1.135-2.915-1.719-4.522-1.719v.849c1.384 0 2.711.498 3.989 1.53zm-4.098-1.295v-.774h-.849v.774zm-.424-.774-.027.424h.005l.015.001.058.004.232.014.928.058.053-.847-.928-.058-.232-.014-.058-.004-.015-.001h-.005zm1.238.502q1.25 0 3.189-.078l-.033-.848a81 81 0 0 1-3.156.077zm3.188-.077a62 62 0 0 0 4.363-.312l-.09-.844a60 60 0 0 1-4.304.307zm4.378-.314q2.28-.328 4.218-1.783l-.509-.679c-1.184.888-2.46 1.426-3.829 1.622zm4.212-1.778c1.387-.999 2.434-2.638 3.172-4.853l-.805-.269c-.706 2.118-1.671 3.575-2.863 4.433zm3.168-4.842q.328-.907.487-2.101l-.842-.112q-.151 1.126-.442 1.922zm.487-2.101q.16-1.204.08-2.482l-.847.053q.074 1.2-.075 2.317zm.08-2.47c-.053-1.492-.346-2.837-.888-4.03l-.773.351c.489 1.077.763 2.311.813 3.709zm-.882-4.015a8.3 8.3 0 0 0-2.2-3.097l-.564.634a7.45 7.45 0 0 1 1.978 2.784zm-2.191-3.089q-1.385-1.301-3.315-2.023l-.298.795q1.785.67 3.031 1.846zm-3.315-2.023q-1.933-.723-4.313-.8l-.029.848q2.263.076 4.044.747zm-4.309-.8q-3.649-.156-6.376-.078l.024.849q2.69-.078 6.315.077zm-6.376-.078a77 77 0 0 1-2.019.039q-.334 0-.484-.009l-.058-.005-.021-.002.012.003a.2.2 0 0 1 .042.013c.016.007.062.026.111.068a.42.42 0 0 1 .145.317h-.849a.43.43 0 0 0 .151.327c.053.045.104.067.127.077a.7.7 0 0 0 .117.032c.053.009.115.014.175.017q.189.01.532.011.688 0 2.043-.039zm-2.272.424c0-.083-.024-.161-.032-.189a3 3 0 0 0-.053-.153 12 12 0 0 0-.181-.444l-.78.335a10 10 0 0 1 .201.506l.002.008-.003-.017q-.002-.013-.003-.046zm-.245-.722a8 8 0 0 0-.408-1.225l-.78.335q.218.507.365 1.096zm-.387-1.16-.116-.465-.029-.116-.007-.029-.002-.007v-.002l-.412.103-.412.103.001.002.002.007.007.029.029.116.116.465zm-.062-.516v46.429h.849v-46.429zm.425 46.004h-4.953v.849h4.953zm-4.528.425v-46.429h-.849v46.429zm-.425-46.005h4.953v-.849h-4.953zm-.185 41.131.929 4.952.834-.156-.929-4.953zm1.346 4.449h-6.578v.849h6.578zm-6.153.425v-.774h-.849v.774zm-.425-.774v.424h.542v-.849h-.542zm.542.424h.542v-.849h-.542zm.542 0c1.343 0 2.485-.452 3.395-1.362l-.6-.6c-.741.74-1.662 1.113-2.795 1.113zm3.395-1.362c.898-.898 1.383-1.978 1.439-3.221l-.848-.039c-.046 1.026-.438 1.907-1.191 2.66zm1.015-2.816h.155v-.849h-.155zm.155-37.451h-.155v.849h.155zm.269.406c-.056-1.291-.538-2.378-1.449-3.232l-.58.62c.74.694 1.134 1.567 1.181 2.649zm-1.449-3.232c-.912-.854-2.05-1.275-3.385-1.275v.849c1.141 0 2.066.353 2.805 1.046zm-3.385-.851v-.424h-.542v.849h.542zm-.542-.424h-.542v.849h.542zm-.117.424v-.773h-.849v.773zm-.425-.349h6.578v-.849h-6.578zm6.161-.504-.929 4.875.834.159.929-4.875zm3.976 41.981h.233v-.849h-.233zm-.191-.405c.056 1.243.541 2.323 1.439 3.221l.6-.6c-.753-.753-1.145-1.634-1.191-2.66zm1.439 3.221c.91.91 2.052 1.362 3.395 1.362v-.849c-1.133 0-2.054-.373-2.795-1.113zm3.395.938v.424h.465v-.849h-.465zm.465.424h.541v-.849h-.541zm.119-.382.077.774.845-.084-.077-.774zm.5.307h-6.655v.849h6.655zm-6.238.503.929-4.952-.835-.157-.928 4.953z" mask="url(#b)"/><path fill="#fff" stroke="#fff" stroke-width=".424" d="M304.911 103.872v1.198h-1.219c-1.202 0-2.251.409-3.153 1.236l-.179.172c-.889.89-1.358 1.974-1.408 3.263v42.853l.015.239q.142 1.777 1.393 3.1c.941.889 2.048 1.332 3.332 1.332h1.219v1.198H287.54v-1.198h1.218l.239-.006a4.4 4.4 0 0 0 3.016-1.325l.172-.179q1.245-1.354 1.313-3.161v-42.853l-.015-.24c-.098-1.181-.585-2.184-1.466-3.019l-.008-.008.154-.146-.154.145c-.833-.879-1.834-1.344-3.013-1.398l-.238-.005h-1.218v-1.198zM17.16 103.872v1.198h-1.22c-1.202 0-2.25.409-3.153 1.236l-.179.172c-.89.89-1.358 1.974-1.408 3.263l-.008.204h-.027l-.254 42.92c.322 1.667 1.058 2.657 1.824 3.384.39.368.783.668 1.15.963.362.291.701.58.945.914l.246.337H-.212v-1.198h1.218l.24-.006a4.4 4.4 0 0 0 3.015-1.325l.172-.179q1.245-1.354 1.313-3.161v-42.853l-.015-.24c-.098-1.181-.585-2.184-1.466-3.019l-.008-.008.154-.146-.154.145c-.833-.879-1.834-1.344-3.013-1.398l-.238-.005H-.212v-1.198z"/><path stroke="#fff" stroke-width="5" d="M396 107v49"/><path fill="#fff" d="M281.99 25.929h45.386l-2.872 3.11H281.99z"/><path fill="#fff" d="M345.757 6.01 351.254 0h-80.966v81.43h81.424V16.117l-5.955 6.1v53.45h-69.464V6.01z"/><path fill="#fff" fill-rule="evenodd" d="m351.712 12.211-41.81 45.684a16 16 0 0 0-2.105 2.893l-1.615 2.84-1.172-2.453a16 16 0 0 0-3.692-4.957l-18.399-16.677 4.215-6.844a12.7 12.7 0 0 0 4.386 8.26l14.662 12.483 45.53-50.194z" clip-rule="evenodd"/></g><defs><clipPath id="a"><path fill="#fff" d="M0 0h621.654v193H0z"/></clipPath></defs></svg>