<svg xmlns="http://www.w3.org/2000/svg" width="622" height="193" fill="none"><g clip-path="url(#a)"><path stroke="#907A1D" stroke-width="2.018" d="M0-1.009h65.55" transform="matrix(1 .0002 0 -1 8 183)"/><path stroke="#907A1D" stroke-width="2.018" d="M0-1.009h65.55" transform="matrix(1 .0002 0 -1 549.284 183)"/><path fill="#4F4F4F" d="M99.228 190v-13.292h3.943c2.44 0 4.656.864 4.656 3.642 0 2.91-2.478 3.68-4.356 3.68h-2.666V190zm1.577-11.828v4.394h2.666c1.577 0 2.666-.714 2.666-2.197s-1.089-2.197-2.666-2.197zM118.242 190v-13.292h1.577v11.828h6.083V190zm15.732 0 5.858-13.292h1.483L146.966 190h-1.84l-1.352-3.267h-6.646l-1.37 3.267zm9.2-4.731-2.629-6.533h-.037l-2.76 6.533zM156.618 190v-13.292h1.99l7.697 11.039h.038v-11.039h1.577V190h-1.991l-7.697-11.039h-.037V190zm23.454-2.14c.62 0 1.127.507 1.127 1.126 0 .62-.545 1.127-1.127 1.127s-1.126-.507-1.126-1.127a1.13 1.13 0 0 1 1.126-1.126m25.263 2.14v-13.292h3.943c2.44 0 4.656.864 4.656 3.642 0 2.91-2.479 3.68-4.356 3.68h-2.666V190zm1.577-11.828v4.394h2.666c1.577 0 2.666-.714 2.666-2.197s-1.089-2.197-2.666-2.197zM224.349 190v-13.292h3.398c2.572 0 5.294.376 5.294 3.661 0 1.934-1.258 3.192-3.323 3.511l3.774 6.12h-1.934l-3.605-5.97h-2.027V190zm1.577-11.828v4.394h1.408c1.746 0 4.017 0 4.017-2.197 0-1.915-1.67-2.197-3.21-2.197zm23.961 12.166c-4.036 0-6.946-2.966-6.946-6.984s2.91-6.984 6.946-6.984c4.037 0 6.947 2.966 6.947 6.984s-2.91 6.984-6.947 6.984m0-1.464c3.117 0 5.257-2.46 5.257-5.52s-2.14-5.519-5.257-5.519-5.256 2.459-5.256 5.519 2.14 5.52 5.256 5.52m26.284-12.166v1.464h-4.394V190H270.2v-11.828h-4.393v-1.464zM285.918 190v-13.292h8.355v1.464h-6.778v4.168h6.327v1.465h-6.327v4.731h7.116V190zm29.696-11.546-1.37.995c-.789-1.07-2.047-1.614-3.323-1.614-2.966 0-5.069 2.609-5.069 5.519 0 3.079 2.084 5.52 5.069 5.52 1.614 0 2.91-.658 3.849-1.859l1.182.995c-1.182 1.596-2.91 2.328-5.031 2.328-3.811 0-6.759-2.948-6.759-6.984 0-3.905 2.816-6.984 6.759-6.984 1.802 0 3.567.62 4.693 2.084m19.339-1.746v1.464h-4.393V190h-1.577v-11.828h-4.393v-1.464zm8.615 11.152c.62 0 1.127.507 1.127 1.126 0 .62-.545 1.127-1.127 1.127-.581 0-1.126-.507-1.126-1.127a1.13 1.13 0 0 1 1.126-1.126m25.263 2.14v-13.292h3.943c2.44 0 4.656.864 4.656 3.642 0 2.91-2.478 3.68-4.356 3.68h-2.666V190zm1.577-11.828v4.394h2.666c1.577 0 2.666-.714 2.666-2.197s-1.089-2.197-2.666-2.197zM387.845 190v-13.292h3.398c2.572 0 5.294.376 5.294 3.661 0 1.934-1.257 3.192-3.323 3.511l3.774 6.12h-1.934l-3.604-5.97h-2.028V190zm1.577-11.828v4.394h1.408c1.746 0 4.018 0 4.018-2.197 0-1.915-1.671-2.197-3.211-2.197zM407.207 190v-13.292h8.354v1.464h-6.777v4.168h6.327v1.465h-6.327v4.731h7.115V190zm26.617-12.072-1.295 1.127c-.526-.845-1.465-1.22-2.422-1.22-1.389 0-2.835.657-2.835 2.234 0 1.22.676 1.764 2.797 2.44 2.066.657 3.98 1.333 3.98 3.943 0 2.647-2.271 3.886-4.674 3.886-1.54 0-3.192-.507-4.093-1.84l1.352-1.108c.563.977 1.689 1.484 2.835 1.484 1.351 0 2.891-.789 2.891-2.31 0-1.633-1.108-1.915-3.473-2.703-1.878-.62-3.305-1.446-3.305-3.661 0-2.553 2.197-3.83 4.525-3.83 1.483 0 2.741.413 3.717 1.558M444.538 190v-13.292h8.354v1.464h-6.777v4.168h6.327v1.465h-6.327v4.731h7.115V190zm19.013 0v-13.292h3.399c2.572 0 5.294.376 5.294 3.661 0 1.934-1.258 3.192-3.323 3.511l3.773 6.12h-1.933l-3.605-5.97h-2.028V190zm1.577-11.828v4.394h1.409c1.745 0 4.017 0 4.017-2.197 0-1.915-1.671-2.197-3.21-2.197zM485.85 190l-5.088-13.292h1.784l4.093 10.926h.037l4.224-10.926h1.671l-5.2 13.292zm16.095 0v-13.292h8.355v1.464h-6.777v4.168h6.326v1.465h-6.326v4.731h7.115V190zm19.972-2.14a1.13 1.13 0 0 1 1.126 1.126c0 .62-.544 1.127-1.126 1.127s-1.127-.507-1.127-1.127a1.13 1.13 0 0 1 1.127-1.126"/><mask id="b" width="615" height="58" x="7.962" y="102" fill="#000" maskUnits="userSpaceOnUse"><path fill="#fff" d="M7.962 102h615v58h-615z"/><path d="M19.95 104.083v54.168h-5.03v-54.168zm20.894 51.769v2.399H19.717v-2.399zm4.72-10.137-4.488 12.536H28.23l2.786-2.399q4.102 0 6.655-1.238 2.63-1.316 4.256-3.637 1.625-2.322 2.863-5.262zm-30.411 6.887v5.649h-6.19v-.774h1.0050000000000001q2.012 0 3.405-1.393 1.47-1.47 1.548-3.482zm0-42.87h-.232q-.078-2.011-1.548-3.405-1.394-1.47-3.405-1.47H8.962v-.774h6.19zm4.565 0v-5.649h6.19v.774h-1.0050000000000001q-2.012 0-3.482 1.47-1.393 1.394-1.47 3.405zM59.456 111.822v46.429h-4.953v-46.429zm20.816 44.03-.155 2.399H59.3v-2.399zm-3.638-21.977v2.322H59.302v-2.322zm3.56-22.053v2.398H59.301v-2.398zm4.41 35.363-4.255 11.066H68.587l2.63-2.399q3.87 0 6.191-1.083 2.4-1.161 3.87-3.096a23.6 23.6 0 0 0 2.553-4.488zm-7.97-11.143v4.411h-.85v-1.006q0-1.315-.775-2.244-.773-1.006-2.398-1.006v-.155zm0-6.423v4.411h-4.023v-.155q1.625 0 2.398-.928.774-1.006.774-2.322v-1.006zm3.56-15.631v5.34h-.851v-1.161q0-1.625-1.084-2.786-1.006-1.161-2.785-1.161v-.232zm0-3.405v2.012l-8.821-.773q2.398 0 5.107-.387 2.707-.465 3.714-.852m-25.536 42.715 1.006 4.953h-6.732v-.774h1.0830000000000002q1.935 0 3.173-1.238 1.238-1.239 1.315-2.941zm0-36.601h-.155q-.077-1.78-1.315-2.941-1.239-1.161-3.173-1.161h-1.0830000000000002v-.773h6.732zM113.074 110.738q3.56 0 6.654.542 3.174.463 5.959 1.548a26.2 26.2 0 0 1 5.417 2.631l1.702 10.91h-.696q-1.084-4.565-3.56-7.506-2.399-2.94-6.268-4.333-3.869-1.47-9.286-1.47-5.88 0-10.369 2.708-4.41 2.631-6.887 7.583-2.476 4.876-2.476 11.685 0 6.732 2.476 11.685 2.475 4.952 6.964 7.661 4.488 2.631 10.37 2.631 3.25 0 6.19-.697a22.8 22.8 0 0 0 5.649-2.166 24.7 24.7 0 0 0 5.185-3.87l.077-10.291q.078-1.472-.929-2.244-.929-.774-2.631-.774h-1.083v-.774h14.161v.774h-1.083q-3.483 0-3.483 3.095v9.286q-1.779 2.244-4.875 4.565-3.094 2.322-7.428 3.869-4.257 1.548-9.75 1.548-7.662-.077-13.388-3.018-5.648-2.94-8.821-8.357t-3.173-12.923q0-7.583 3.173-13t8.899-8.357q5.726-2.941 13.31-2.941M164.16 110.738l21.28 47.048h-6.113l-16.482-40.161zm-14.935 41.864q-.851 2.322.233 3.637 1.083 1.238 2.476 1.238h.619v.774h-14.78v-.774h.619q1.625 0 3.327-1.083 1.703-1.161 2.941-3.792zm14.935-41.864.542 5.34-17.721 41.941h-4.875l18.34-39.31.387-.929a35 35 0 0 0 1.006-2.244q.619-1.393 1.083-2.708.465-1.316.542-2.09zm9.131 29.483v2.321h-20.506v-2.321zm3.947 12.381h5.881q1.16 2.631 2.863 3.792 1.702 1.083 3.25 1.083h.619v.774h-15.863v-.774h.619q1.315 0 2.399-1.238 1.083-1.315.232-3.637M236.778 138.75l-.851 10.602q-2.012 3.095-5.262 5.339t-7.351 3.482q-4.101 1.161-8.667 1.161-7.815-.077-13.619-3.018-5.727-2.94-8.822-8.357t-3.095-12.923q0-7.583 3.095-13t8.822-8.357q5.804-2.941 13.619-2.941 4.798 0 9.673 1.238t8.435 3.483l1.702 10.91h-.697q-1.701-7.12-6.887-10.214-5.107-3.095-12.303-3.095-6.114 0-10.602 2.708-4.41 2.631-6.887 7.583-2.398 4.876-2.398 11.685 0 6.656 2.398 11.607 2.477 4.875 6.965 7.584 4.488 2.631 10.601 2.708 5.803 0 10.447-1.857 4.72-1.935 7.661-5.958 2.94-4.024 3.327-10.37zM248.237 111.899l14.316 25.459-3.173 2.708-17.875-28.167zm15.476 26.387v19.965h-5.029v-19.965zm13.001-26.387h4.875l-18.417 28.012-2.863-.851zm-2.941 4.875q.85-1.548.077-2.863-.773-1.316-2.476-1.316h-.928v-.773h16.172v.773h-.928q-2.167 0-4.101 1.238-1.858 1.161-2.941 2.709zm-22.828-.077-6.577-.233a8.9 8.9 0 0 0-3.095-2.785q-1.78-1.084-4.024-1.084h-.929v-.773h17.953v.773h-.929q-1.702 0-2.476 1.393-.696 1.315.077 2.709m7.971 36.601v4.953h-5.649v-.774h.928q1.857 0 3.096-1.238 1.315-1.239 1.393-2.941zm4.565 0h.232q.078 1.702 1.316 2.941 1.315 1.238 3.172 1.238h.929v.774h-5.649zM308.74 104.083v54.168h-5.03v-54.168zm-4.798 48.519v5.649h-6.19v-.774h1.006q2.012 0 3.405-1.393 1.47-1.47 1.547-3.482zm0-42.87h-.232q-.077-2.011-1.547-3.405-1.394-1.47-3.405-1.47h-1.006v-.774h6.19zm4.566 42.87h.232q.078 2.012 1.47 3.482 1.47 1.393 3.483 1.393h1.006v.774h-6.191zm0-42.87v-5.649h6.191v.774h-1.006q-2.012 0-3.483 1.47-1.392 1.394-1.47 3.405zM324.518 110.661l42.869 40.393.774 8.28-42.87-40.625zm.154 42.792v4.798h-5.803v-.774h1.315q1.78 0 3.018-1.161 1.238-1.16 1.238-2.863zm3.25 0q0 1.702 1.239 2.863 1.315 1.161 3.017 1.161h1.3159999999999998v.774h-5.804v-4.798zm-3.404-42.792 3.327 4.333.077 43.257h-3.482v-37.917q0-3.946-.387-6.81l-.309-2.863zm43.643 1.161v37.607q0 2.476.155 4.798.155 2.244.309 3.714l.233 1.393h-.697l-3.405-4.101v-43.411zm-.232 4.797v-4.797h5.804v.773h-1.3159999999999998q-1.702 0-3.018 1.161-1.238 1.16-1.238 2.863zm-3.173 0q-.077-1.702-1.315-2.863-1.239-1.161-3.018-1.161h-1.3159999999999998v-.773h5.804v4.797zM406.566 103q8.28 0 14.547 3.56 6.268 3.482 9.75 9.827 3.56 6.345 3.56 14.78t-3.56 14.78q-3.482 6.345-9.75 9.905-6.268 3.482-14.547 3.482-8.203 0-14.471-3.482-6.268-3.56-9.827-9.905-3.483-6.345-3.483-14.78t3.483-14.78q3.559-6.345 9.827-9.827 6.268-3.56 14.471-3.56m0 54.013q6.577 0 11.452-3.25 4.953-3.25 7.661-9.054 2.786-5.804 2.786-13.542 0-7.739-2.786-13.542-2.708-5.804-7.661-9.053-4.875-3.25-11.452-3.251-6.5 0-11.453 3.251-4.875 3.25-7.661 9.053-2.708 5.803-2.708 13.542t2.708 13.542q2.786 5.803 7.661 9.054 4.952 3.25 11.453 3.25M447.296 111.822h9.983q3.636 0 6.5.851 2.94.851 4.952 2.476 2.09 1.625 3.173 3.946t1.083 5.262q0 3.25-1.548 6.036-1.547 2.785-4.333 4.566-2.709 1.78-6.191 2.166 1.316.543 3.018 2.399 1.78 1.857 3.018 3.637l1.006 1.393q1.006 1.315 2.554 3.328a289 289 0 0 0 3.173 3.714 95 95 0 0 0 2.94 3.095q1.393 1.316 2.941 2.089 1.625.697 3.714.697v.774h-2.399q-4.256 0-7.042-1.084-2.708-1.083-4.411-2.631a40 40 0 0 1-2.94-3.095q-.309-.387-1.47-1.934a153 153 0 0 0-2.399-3.483 222 222 0 0 0-2.399-3.327 111 111 0 0 0-1.315-1.857 19.4 19.4 0 0 0-3.56-3.56q-2.012-1.625-4.256-1.625v-.774l1.238.078a82 82 0 0 0 3.173-.078 61 61 0 0 0 4.333-.309q2.167-.31 4.024-1.703 1.935-1.393 3.018-4.642.31-.852.464-2.012a12.4 12.4 0 0 0 .078-2.399q-.078-2.167-.852-3.869a7.9 7.9 0 0 0-2.089-2.941q-1.316-1.238-3.173-1.934-1.857-.697-4.178-.774-3.637-.154-6.346-.078-2.708.078-2.708 0 0-.077-.232-.619a7.6 7.6 0 0 0-.387-1.16zm.929 0v46.429h-4.953v-46.429zm-4.72 41.476.928 4.953h-6.577v-.774h1.0830000000000002q1.857 0 3.095-1.238 1.239-1.239 1.316-2.941zm0-36.601h-.155q-.078-1.78-1.316-2.941t-3.095-1.161h-1.0830000000000002v-.773h6.577zm4.488 36.601h.232q.077 1.702 1.315 2.941 1.239 1.238 3.096 1.238h1.006l.077.774h-6.655z"/><path d="M509.121 111.822q7.66 0 13.232 2.785t8.59 8.048q3.017 5.184 3.017 12.381t-3.017 12.381q-3.018 5.185-8.59 8.048-5.571 2.786-13.232 2.786h-16.483l-.154-2.322h16.637q8.976 0 14.083-5.571 5.185-5.649 5.185-15.322t-5.185-15.244q-5.107-5.649-14.083-5.649H491.71v-2.321zm-15.399 0v46.429h-5.03v-46.429zm-4.875 41.399v5.03h-5.572v-.774h1.006q1.857 0 3.095-1.238 1.239-1.316 1.316-3.018zm0-36.37h-.155q-.078-1.857-1.393-3.018-1.238-1.238-3.095-1.238h-.929v-.773h5.572zM548.363 111.822v46.429h-4.953v-46.429zm20.815 44.03-.154 2.399h-20.816v-2.399zm-3.637-21.977v2.322h-17.333v-2.322zm3.56-22.053v2.398h-20.893v-2.398zm4.411 35.363-4.256 11.066h-11.762l2.631-2.399q3.869 0 6.19-1.083 2.399-1.161 3.869-3.096a23.6 23.6 0 0 0 2.554-4.488zm-7.971-11.143v4.411h-.851v-1.006q0-1.315-.774-2.244-.773-1.006-2.398-1.006v-.155zm0-6.423v4.411h-4.023v-.155q1.625 0 2.398-.928.774-1.006.774-2.322v-1.006zm3.56-15.631v5.34h-.851v-1.161q0-1.625-1.084-2.786-1.006-1.161-2.785-1.161v-.232zm0-3.405v2.012l-8.822-.773q2.4 0 5.108-.387 2.707-.465 3.714-.852m-25.536 42.715 1.006 4.953h-6.732v-.774h1.0830000000000002q1.934 0 3.173-1.238 1.238-1.239 1.315-2.941zm0-36.601h-.155q-.077-1.78-1.315-2.941-1.239-1.161-3.173-1.161h-1.0830000000000002v-.773h6.732zM585.671 111.822h9.982q3.638 0 6.5.851 2.94.851 4.953 2.476 2.09 1.625 3.172 3.946 1.084 2.322 1.084 5.262 0 3.25-1.548 6.036t-4.333 4.566q-2.709 1.78-6.191 2.166 1.315.543 3.018 2.399 1.78 1.857 3.018 3.637l1.006 1.393q1.006 1.315 2.554 3.328a290 290 0 0 0 3.172 3.714 96 96 0 0 0 2.941 3.095q1.393 1.316 2.94 2.089 1.626.697 3.715.697v.774h-2.399q-4.257 0-7.042-1.084-2.709-1.083-4.411-2.631a39 39 0 0 1-2.94-3.095q-.31-.387-1.471-1.934a150 150 0 0 0-2.398-3.483 222 222 0 0 0-2.399-3.327 103 103 0 0 0-1.316-1.857 19.4 19.4 0 0 0-3.559-3.56q-2.012-1.625-4.256-1.625v-.774l1.238.078q1.238 0 3.172-.078a61 61 0 0 0 4.334-.309q2.166-.31 4.024-1.703 1.933-1.393 3.018-4.642.31-.852.464-2.012t.077-2.399q-.077-2.167-.851-3.869a7.9 7.9 0 0 0-2.089-2.941q-1.316-1.238-3.173-1.934-1.857-.697-4.179-.774-3.636-.154-6.345-.078-2.708.078-2.708 0 0-.077-.232-.619a8 8 0 0 0-.387-1.16zm.929 0v46.429h-4.953v-46.429zm-4.721 41.476.929 4.953h-6.578v-.774h1.084q1.857 0 3.095-1.238 1.238-1.239 1.315-2.941zm0-36.601h-.155q-.077-1.78-1.315-2.941t-3.095-1.161h-1.084v-.773h6.578zm4.488 36.601h.233q.077 1.702 1.315 2.941t3.095 1.238h1.006l.078.774h-6.655z"/></mask><path fill="#173C37" d="M19.95 104.083v54.168h-5.03v-54.168zm20.894 51.769v2.399H19.717v-2.399zm4.72-10.137-4.488 12.536H28.23l2.786-2.399q4.102 0 6.655-1.238 2.63-1.316 4.256-3.637 1.625-2.322 2.863-5.262zm-30.411 6.887v5.649h-6.19v-.774h1.0050000000000001q2.012 0 3.405-1.393 1.47-1.47 1.548-3.482zm0-42.87h-.232q-.078-2.011-1.548-3.405-1.394-1.47-3.405-1.47H8.962v-.774h6.19zm4.565 0v-5.649h6.19v.774h-1.0050000000000001q-2.012 0-3.482 1.47-1.393 1.394-1.47 3.405zM59.456 111.822v46.429h-4.953v-46.429zm20.816 44.03-.155 2.399H59.3v-2.399zm-3.638-21.977v2.322H59.302v-2.322zm3.56-22.053v2.398H59.301v-2.398zm4.41 35.363-4.255 11.066H68.587l2.63-2.399q3.87 0 6.191-1.083 2.4-1.161 3.87-3.096a23.6 23.6 0 0 0 2.553-4.488zm-7.97-11.143v4.411h-.85v-1.006q0-1.315-.775-2.244-.773-1.006-2.398-1.006v-.155zm0-6.423v4.411h-4.023v-.155q1.625 0 2.398-.928.774-1.006.774-2.322v-1.006zm3.56-15.631v5.34h-.851v-1.161q0-1.625-1.084-2.786-1.006-1.161-2.785-1.161v-.232zm0-3.405v2.012l-8.821-.773q2.398 0 5.107-.387 2.707-.465 3.714-.852m-25.536 42.715 1.006 4.953h-6.732v-.774h1.0830000000000002q1.935 0 3.173-1.238 1.238-1.239 1.315-2.941zm0-36.601h-.155q-.077-1.78-1.315-2.941-1.239-1.161-3.173-1.161h-1.0830000000000002v-.773h6.732zM113.074 110.738q3.56 0 6.654.542 3.174.463 5.959 1.548a26.2 26.2 0 0 1 5.417 2.631l1.702 10.91h-.696q-1.084-4.565-3.56-7.506-2.399-2.94-6.268-4.333-3.869-1.47-9.286-1.47-5.88 0-10.369 2.708-4.41 2.631-6.887 7.583-2.476 4.876-2.476 11.685 0 6.732 2.476 11.685 2.475 4.952 6.964 7.661 4.488 2.631 10.37 2.631 3.25 0 6.19-.697a22.8 22.8 0 0 0 5.649-2.166 24.7 24.7 0 0 0 5.185-3.87l.077-10.291q.078-1.472-.929-2.244-.929-.774-2.631-.774h-1.083v-.774h14.161v.774h-1.083q-3.483 0-3.483 3.095v9.286q-1.779 2.244-4.875 4.565-3.094 2.322-7.428 3.869-4.257 1.548-9.75 1.548-7.662-.077-13.388-3.018-5.648-2.94-8.821-8.357t-3.173-12.923q0-7.583 3.173-13t8.899-8.357q5.726-2.941 13.31-2.941M164.16 110.738l21.28 47.048h-6.113l-16.482-40.161zm-14.935 41.864q-.851 2.322.233 3.637 1.083 1.238 2.476 1.238h.619v.774h-14.78v-.774h.619q1.625 0 3.327-1.083 1.703-1.161 2.941-3.792zm14.935-41.864.542 5.34-17.721 41.941h-4.875l18.34-39.31.387-.929a35 35 0 0 0 1.006-2.244q.619-1.393 1.083-2.708.465-1.316.542-2.09zm9.131 29.483v2.321h-20.506v-2.321zm3.947 12.381h5.881q1.16 2.631 2.863 3.792 1.702 1.083 3.25 1.083h.619v.774h-15.863v-.774h.619q1.315 0 2.399-1.238 1.083-1.315.232-3.637M236.778 138.75l-.851 10.602q-2.012 3.095-5.262 5.339t-7.351 3.482q-4.101 1.161-8.667 1.161-7.815-.077-13.619-3.018-5.727-2.94-8.822-8.357t-3.095-12.923q0-7.583 3.095-13t8.822-8.357q5.804-2.941 13.619-2.941 4.798 0 9.673 1.238t8.435 3.483l1.702 10.91h-.697q-1.701-7.12-6.887-10.214-5.107-3.095-12.303-3.095-6.114 0-10.602 2.708-4.41 2.631-6.887 7.583-2.398 4.876-2.398 11.685 0 6.656 2.398 11.607 2.477 4.875 6.965 7.584 4.488 2.631 10.601 2.708 5.803 0 10.447-1.857 4.72-1.935 7.661-5.958 2.94-4.024 3.327-10.37zM248.237 111.899l14.316 25.459-3.173 2.708-17.875-28.167zm15.476 26.387v19.965h-5.029v-19.965zm13.001-26.387h4.875l-18.417 28.012-2.863-.851zm-2.941 4.875q.85-1.548.077-2.863-.773-1.316-2.476-1.316h-.928v-.773h16.172v.773h-.928q-2.167 0-4.101 1.238-1.858 1.161-2.941 2.709zm-22.828-.077-6.577-.233a8.9 8.9 0 0 0-3.095-2.785q-1.78-1.084-4.024-1.084h-.929v-.773h17.953v.773h-.929q-1.702 0-2.476 1.393-.696 1.315.077 2.709m7.971 36.601v4.953h-5.649v-.774h.928q1.857 0 3.096-1.238 1.315-1.239 1.393-2.941zm4.565 0h.232q.078 1.702 1.316 2.941 1.315 1.238 3.172 1.238h.929v.774h-5.649zM308.74 104.083v54.168h-5.03v-54.168zm-4.798 48.519v5.649h-6.19v-.774h1.006q2.012 0 3.405-1.393 1.47-1.47 1.547-3.482zm0-42.87h-.232q-.077-2.011-1.547-3.405-1.394-1.47-3.405-1.47h-1.006v-.774h6.19zm4.566 42.87h.232q.078 2.012 1.47 3.482 1.47 1.393 3.483 1.393h1.006v.774h-6.191zm0-42.87v-5.649h6.191v.774h-1.006q-2.012 0-3.483 1.47-1.392 1.394-1.47 3.405zM324.518 110.661l42.869 40.393.774 8.28-42.87-40.625zm.154 42.792v4.798h-5.803v-.774h1.315q1.78 0 3.018-1.161 1.238-1.16 1.238-2.863zm3.25 0q0 1.702 1.239 2.863 1.315 1.161 3.017 1.161h1.3159999999999998v.774h-5.804v-4.798zm-3.404-42.792 3.327 4.333.077 43.257h-3.482v-37.917q0-3.946-.387-6.81l-.309-2.863zm43.643 1.161v37.607q0 2.476.155 4.798.155 2.244.309 3.714l.233 1.393h-.697l-3.405-4.101v-43.411zm-.232 4.797v-4.797h5.804v.773h-1.3159999999999998q-1.702 0-3.018 1.161-1.238 1.16-1.238 2.863zm-3.173 0q-.077-1.702-1.315-2.863-1.239-1.161-3.018-1.161h-1.3159999999999998v-.773h5.804v4.797zM406.566 103q8.28 0 14.547 3.56 6.268 3.482 9.75 9.827 3.56 6.345 3.56 14.78t-3.56 14.78q-3.482 6.345-9.75 9.905-6.268 3.482-14.547 3.482-8.203 0-14.471-3.482-6.268-3.56-9.827-9.905-3.483-6.345-3.483-14.78t3.483-14.78q3.559-6.345 9.827-9.827 6.268-3.56 14.471-3.56m0 54.013q6.577 0 11.452-3.25 4.953-3.25 7.661-9.054 2.786-5.804 2.786-13.542 0-7.739-2.786-13.542-2.708-5.804-7.661-9.053-4.875-3.25-11.452-3.251-6.5 0-11.453 3.251-4.875 3.25-7.661 9.053-2.708 5.803-2.708 13.542t2.708 13.542q2.786 5.803 7.661 9.054 4.952 3.25 11.453 3.25M447.296 111.822h9.983q3.636 0 6.5.851 2.94.851 4.952 2.476 2.09 1.625 3.173 3.946t1.083 5.262q0 3.25-1.548 6.036-1.547 2.785-4.333 4.566-2.709 1.78-6.191 2.166 1.316.543 3.018 2.399 1.78 1.857 3.018 3.637l1.006 1.393q1.006 1.315 2.554 3.328a289 289 0 0 0 3.173 3.714 95 95 0 0 0 2.94 3.095q1.393 1.316 2.941 2.089 1.625.697 3.714.697v.774h-2.399q-4.256 0-7.042-1.084-2.708-1.083-4.411-2.631a40 40 0 0 1-2.94-3.095q-.309-.387-1.47-1.934a153 153 0 0 0-2.399-3.483 222 222 0 0 0-2.399-3.327 111 111 0 0 0-1.315-1.857 19.4 19.4 0 0 0-3.56-3.56q-2.012-1.625-4.256-1.625v-.774l1.238.078a82 82 0 0 0 3.173-.078 61 61 0 0 0 4.333-.309q2.167-.31 4.024-1.703 1.935-1.393 3.018-4.642.31-.852.464-2.012a12.4 12.4 0 0 0 .078-2.399q-.078-2.167-.852-3.869a7.9 7.9 0 0 0-2.089-2.941q-1.316-1.238-3.173-1.934-1.857-.697-4.178-.774-3.637-.154-6.346-.078-2.708.078-2.708 0 0-.077-.232-.619a7.6 7.6 0 0 0-.387-1.16zm.929 0v46.429h-4.953v-46.429zm-4.72 41.476.928 4.953h-6.577v-.774h1.0830000000000002q1.857 0 3.095-1.238 1.239-1.239 1.316-2.941zm0-36.601h-.155q-.078-1.78-1.316-2.941t-3.095-1.161h-1.0830000000000002v-.773h6.577zm4.488 36.601h.232q.077 1.702 1.315 2.941 1.239 1.238 3.096 1.238h1.006l.077.774h-6.655z"/><path fill="#173C37" d="M509.121 111.822q7.66 0 13.232 2.785t8.59 8.048q3.017 5.184 3.017 12.381t-3.017 12.381q-3.018 5.185-8.59 8.048-5.571 2.786-13.232 2.786h-16.483l-.154-2.322h16.637q8.976 0 14.083-5.571 5.185-5.649 5.185-15.322t-5.185-15.244q-5.107-5.649-14.083-5.649H491.71v-2.321zm-15.399 0v46.429h-5.03v-46.429zm-4.875 41.399v5.03h-5.572v-.774h1.006q1.857 0 3.095-1.238 1.239-1.316 1.316-3.018zm0-36.37h-.155q-.078-1.857-1.393-3.018-1.238-1.238-3.095-1.238h-.929v-.773h5.572zM548.363 111.822v46.429h-4.953v-46.429zm20.815 44.03-.154 2.399h-20.816v-2.399zm-3.637-21.977v2.322h-17.333v-2.322zm3.56-22.053v2.398h-20.893v-2.398zm4.411 35.363-4.256 11.066h-11.762l2.631-2.399q3.869 0 6.19-1.083 2.399-1.161 3.869-3.096a23.6 23.6 0 0 0 2.554-4.488zm-7.971-11.143v4.411h-.851v-1.006q0-1.315-.774-2.244-.773-1.006-2.398-1.006v-.155zm0-6.423v4.411h-4.023v-.155q1.625 0 2.398-.928.774-1.006.774-2.322v-1.006zm3.56-15.631v5.34h-.851v-1.161q0-1.625-1.084-2.786-1.006-1.161-2.785-1.161v-.232zm0-3.405v2.012l-8.822-.773q2.4 0 5.108-.387 2.707-.465 3.714-.852m-25.536 42.715 1.006 4.953h-6.732v-.774h1.0830000000000002q1.934 0 3.173-1.238 1.238-1.239 1.315-2.941zm0-36.601h-.155q-.077-1.78-1.315-2.941-1.239-1.161-3.173-1.161h-1.0830000000000002v-.773h6.732zM585.671 111.822h9.982q3.638 0 6.5.851 2.94.851 4.953 2.476 2.09 1.625 3.172 3.946 1.084 2.322 1.084 5.262 0 3.25-1.548 6.036t-4.333 4.566q-2.709 1.78-6.191 2.166 1.315.543 3.018 2.399 1.78 1.857 3.018 3.637l1.006 1.393q1.006 1.315 2.554 3.328a290 290 0 0 0 3.172 3.714 96 96 0 0 0 2.941 3.095q1.393 1.316 2.94 2.089 1.626.697 3.715.697v.774h-2.399q-4.257 0-7.042-1.084-2.709-1.083-4.411-2.631a39 39 0 0 1-2.94-3.095q-.31-.387-1.471-1.934a150 150 0 0 0-2.398-3.483 222 222 0 0 0-2.399-3.327 103 103 0 0 0-1.316-1.857 19.4 19.4 0 0 0-3.559-3.56q-2.012-1.625-4.256-1.625v-.774l1.238.078q1.238 0 3.172-.078a61 61 0 0 0 4.334-.309q2.166-.31 4.024-1.703 1.933-1.393 3.018-4.642.31-.852.464-2.012t.077-2.399q-.077-2.167-.851-3.869a7.9 7.9 0 0 0-2.089-2.941q-1.316-1.238-3.173-1.934-1.857-.697-4.179-.774-3.636-.154-6.345-.078-2.708.078-2.708 0 0-.077-.232-.619a8 8 0 0 0-.387-1.16zm.929 0v46.429h-4.953v-46.429zm-4.721 41.476.929 4.953h-6.578v-.774h1.084q1.857 0 3.095-1.238 1.238-1.239 1.315-2.941zm0-36.601h-.155q-.077-1.78-1.315-2.941t-3.095-1.161h-1.084v-.773h6.578zm4.488 36.601h.233q.077 1.702 1.315 2.941t3.095 1.238h1.006l.078.774h-6.655z"/><path fill="#173C37" d="M19.95 104.083h.5v-.5h-.5zm0 54.168v.5h.5v-.5zm-5.03 0h-.5v.5h.5zm0-54.168v-.5h-.5v.5zm25.923 51.769h.5v-.5h-.5zm0 2.399v.5h.5v-.5zm-21.125 0h-.5v.5h.5zm0-2.399v-.5h-.5v.5zm25.846-10.137.47.168.24-.668h-.71zm-4.488 12.536v.5h.352l.118-.332zm-12.846 0-.326-.379-1.02.879h1.346zm2.786-2.399v-.5h-.186l-.14.121zm6.655-1.238.218.45.005-.003zm7.119-8.899v-.5h-.332l-.129.306zm-29.637 6.887h.5v-.5h-.5zm0 5.649v.5h.5v-.5zm-6.19 0h-.5v.5h.5zm0-.774v-.5h-.5v.5zm4.41-1.393.354.354zm1.548-3.482v-.5h-.482l-.018.481zm.232-42.87v.5h.5v-.5zm-.232 0-.5.019.018.481h.482zm-1.548-3.405-.363.344.01.01.01.009zm-4.41-1.47h-.5v.5h.5zm0-.774v-.5h-.5v.5zm6.19 0h.5v-.5h-.5zm4.565 5.649h-.5v.5h.5zm0-5.649v-.5h-.5v.5zm6.19 0h.5v-.5h-.5zm0 .774v.5h.5v-.5zm-4.487 1.47.353.354zm-1.47 3.405v.5h.48l.019-.481zm39.505 2.09h.5v-.5h-.5zm0 46.429v.5h.5v-.5zm-4.953 0h-.5v.5h.5zm0-46.429v-.5h-.5v.5zm25.769 44.03.498.032.035-.532h-.534zm-.155 2.399v.5h.468l.03-.468zm-20.816 0h-.5v.5h.5zm0-2.399v-.5h-.5v.5zm17.334-21.977h.5v-.5h-.5zm0 2.322v.5h.5v-.5zm-17.334 0h-.5v.5h.5zm0-2.322v-.5h-.5v.5zm20.893-22.053h.5v-.5h-.5zm0 2.398v.5h.5v-.5zm-20.893 0h-.5v.5h.5zm0-2.398v-.5h-.5v.5zm25.304 35.363.466.18.262-.68h-.728zm-4.256 11.066v.5h.343l.124-.321zm-11.762 0-.337-.37-.954.87h1.29zm2.63-2.399v-.5h-.193l-.143.13zm6.191-1.083.212.453.006-.003zm3.87-3.096.398.303.005-.008zm2.553-4.488v-.5h-.327l-.131.3zm-7.196-11.143h.5v-.5h-.5zm0 4.411v.5h.5v-.5zm-.852 0h-.5v.5h.5zm-.773-3.25-.397.305.006.007.006.008zm-2.4-1.006h-.5v.5h.5zm0-.155v-.5h-.5v.5zm4.025-6.423h.5v-.5h-.5zm0 4.411v.5h.5v-.5zm-4.024 0h-.5v.5h.5zm0-.155v-.5h-.5v.5zm2.398-.928.385.32.006-.008.006-.007zm.774-3.328v-.5h-.5v.5zm4.411-15.631h.5v-.5h-.5zm0 5.34v.5h.5v-.5zm-.851 0h-.5v.5h.5zm-1.084-3.947-.377.328.006.007.006.006zm-2.785-1.161h-.5v.5h.5zm0-.232v-.5h-.5v.5zm4.72-3.405h.5v-.728l-.68.262zm0 2.012-.044.498.544.048v-.546zm-8.821-.773v-.5l-.044.998zm5.107-.387.07.495.014-.003zm-21.822 41.863.49-.099-.081-.401h-.409zm1.006 4.953v.5h.612l-.122-.6zm-6.732 0h-.5v.5h.5zm0-.774v-.5h-.5v.5zm4.256-1.238.353.353zm1.315-2.941v-.5h-.477l-.022.478zm.155-36.601v.5h.407l.083-.399zm-.155 0-.5.021.022.479h.478zm-1.315-2.941.342-.365zm-4.256-1.161h-.5v.5h.5zm0-.773v-.5h-.5v.5zm6.732 0 .49.101.124-.601h-.614zm64.064-.542-.086.493.014.002zm5.959 1.548-.181.466.007.003.008.002zm5.417 2.631.494-.078-.035-.223-.191-.121zm1.702 10.91v.5h.584l-.09-.577zm-.696 0-.487.116.091.384h.396zm-3.56-7.506-.388.316.006.006zm-6.268-4.333-.178.467.009.003zm-19.655 1.238.256.429.002-.001zm-6.887 7.583.446.227.001-.003zm0 23.37.447-.224zm6.964 7.661-.258.428.006.003zm16.56 1.934.115.487zm5.649-2.166.239.439.004-.002zm5.185-3.87.347.36.151-.146.002-.21zm.077-10.291-.499-.027-.001.012v.011zm-.929-2.244-.32.384.008.006.008.006zm-3.714-.774h-.5v.5h.5zm0-.774v-.5h-.5v.5zm14.161 0h.5v-.5h-.5zm0 .774v.5h.5v-.5zm-4.566 12.381.392.311.108-.137v-.174zm-12.303 8.434-.168-.47-.003.001zm-9.75 1.548-.005.5h.005zm-13.388-3.018-.23.444.002.001zm-8.821-8.357.431-.253zm0-25.923.431.253zm8.899-8.357.228.444zm64.396-2.941.456-.206-.133-.294h-.323zm21.28 47.048v.5h.775l-.319-.706zm-6.113 0-.462.19.127.31h.335zm-16.482-40.161-.491-.094-.028.146.056.138zm-13.62 34.977.47.172.246-.672h-.716zm.233 3.637-.386.318.004.005.005.006zm3.095 1.238h.5v-.5h-.5zm0 .774v.5h.5v-.5zm-14.78 0h-.5v.5h.5zm0-.774v-.5h-.5v.5zm3.946-1.083.269.421.007-.004.006-.004zm2.941-3.792v-.5h-.317l-.135.287zm20.042-36.524.46.194.05-.118-.013-.127zm-17.721 41.941v.5h.332l.129-.306zm-4.875 0-.453-.212-.332.712h.785zm18.34-39.31.453.211.004-.01.004-.009zm.387-.929-.447-.224-.008.016-.007.016zm1.006-2.244-.457-.203-.006.013zm1.083-2.708.472.166zm.542-2.09v-.5h-.453l-.045.45zm9.827 29.483h.5v-.5h-.5zm0 2.321v.5h.5v-.5zm-20.506 0h-.5v.5h.5zm0-2.321v-.5h-.5v.5zm24.453 12.381v-.5h-.716l.246.672zm5.881 0 .457-.202-.131-.298h-.326zm2.863 3.792-.282.413.007.004.007.004zm3.869 1.083h.5v-.5h-.5zm0 .774v.5h.5v-.5zm-15.863 0h-.5v.5h.5zm0-.774v-.5h-.5v.5zm3.018-1.238.376.329.005-.006.005-.005zm59.772-17.489.499.041.043-.541h-.542zm-.851 10.602.419.272.069-.106.011-.126zm-5.262 5.339-.284-.411zm-7.351 3.482.136.482.008-.003zm-8.667 1.161-.005.5h.005zm-13.619-3.018-.229.445.003.001zm-8.822-8.357-.434.248zm0-25.923.434.248zm8.822-8.357-.226-.446-.003.001zm23.292-1.703.123-.484zm8.435 3.483.494-.078-.036-.224-.192-.121zm1.702 10.91v.5h.584l-.09-.577zm-.697 0-.486.117.092.383h.394zm-6.887-10.214-.259.428.003.001zm-22.905-.387.257.429.002-.001zm-6.887 7.583-.447-.223-.001.003zm0 23.292-.45.218.005.009zm6.965 7.584-.259.428.006.003zm10.601 2.708-.006.5h.006zm10.447-1.857.185.464.004-.001zm7.661-5.958-.404-.295zm3.327-10.37v-.5h-.471l-.028.47zm12.155-26.851.436-.245-.144-.255h-.292zm14.316 25.459.324.38.313-.267-.202-.358zm-3.173 2.708-.422.268.308.486.439-.374zm-17.875-28.167v-.5h-.91l.488.768zm22.208 26.387h.5v-.5h-.5zm0 19.965v.5h.5v-.5zm-5.029 0h-.5v.5h.5zm0-19.965v-.5h-.5v.5zm18.03-26.387v-.5h-.283l-.145.241zm4.875 0 .417.275.51-.775h-.927zm-18.417 28.012-.143.479.356.106.204-.31zm-2.863-.851-.428-.258-.335.553.62.184zm13.464-22.286-.438-.241-.431.783.893-.043zm.077-2.863-.431.253zm-3.404-1.316h-.5v.5h.5zm0-.773v-.5h-.5v.5zm16.172 0h.5v-.5h-.5zm0 .773v.5h.5v-.5zm-5.029 1.238.265.425.004-.003zm-2.941 2.709.024.499.245-.011.141-.201zm-27.703.155-.017.499.884.032-.43-.774zm-6.577-.233-.411.286.143.205.25.009zm-3.095-2.785-.26.427.01.006.011.006zm-4.953-1.084h-.5v.5h.5zm0-.773v-.5h-.5v.5zm17.953 0h.5v-.5h-.5zm0 .773v.5h.5v-.5zm-3.405 1.393-.437-.243-.005.009zm8.048 39.31h.5v-.5h-.5zm0 4.953v.5h.5v-.5zm-5.649 0h-.5v.5h.5zm0-.774v-.5h-.5v.5zm4.024-1.238-.343-.364-.006.005-.005.005zm1.393-2.941v-.5h-.478l-.022.478zm4.797 0v-.5h-.5v.5zm.232 0 .5-.022-.022-.478h-.478zm1.316 2.941-.354.353.006.006.005.005zm4.101 1.238h.5v-.5h-.5zm0 .774v.5h.5v-.5zm-5.649 0h-.5v.5h.5zm45.259-54.168h.5v-.5h-.5zm0 54.168v.5h.5v-.5zm-5.03 0h-.5v.5h.5zm0-54.168v-.5h-.5v.5zm.232 48.519h.5v-.5h-.5zm0 5.649v.5h.5v-.5zm-6.19 0h-.5v.5h.5zm0-.774v-.5h-.5v.5zm4.411-1.393.353.354zm1.547-3.482v-.5h-.481l-.018.481zm.232-42.87v.5h.5v-.5zm-.232 0-.499.019.018.481h.481zm-1.547-3.405-.363.344.009.01.01.009zm-4.411-1.47h-.5v.5h.5zm0-.774v-.5h-.5v.5zm6.19 0h.5v-.5h-.5zm4.566 48.519v-.5h-.5v.5zm.232 0 .5-.019-.019-.481h-.481zm1.47 3.482-.363.344.01.01.01.009zm4.489 1.393h.5v-.5h-.5zm0 .774v.5h.5v-.5zm-6.191 0h-.5v.5h.5zm0-48.519h-.5v.5h.5zm0-5.649v-.5h-.5v.5zm6.191 0h.5v-.5h-.5zm0 .774v.5h.5v-.5zm-4.489 1.47.354.354zm-1.47 3.405v.5h.481l.019-.481zm15.778.929.343-.364-.145-.136h-.198zm42.869 40.393.498-.046-.017-.188-.138-.13zm.774 8.28-.344.363.145.137h.199zm-42.87-40.625-.497.047.018.187.136.128zm-.619 34.744h.5v-.5h-.5zm0 4.798v.5h.5v-.5zm-5.803 0h-.5v.5h.5zm0-.774v-.5h-.5v.5zm4.333-1.161.342.365zm1.238-2.863v-.5h-.5v.5zm3.482 0h.5v-.5h-.5zm1.239 2.863-.342.365.005.005.006.005zm4.333 1.161h.5v-.5h-.5zm0 .774v.5h.5v-.5zm-5.804 0h-.5v.5h.5zm0-4.798v-.5h-.5v.5zm.155-38.459.5-.001v-.169l-.103-.134zm.077 43.257v.5h.501l-.001-.501zm-3.482 0h-.5v.5h.5zm-.387-44.727-.497.054.002.013zm-.309-2.863v-.5h-.557l.06.554zm44.417 1.161h.5v-.5h-.5zm.155 42.405-.499.033v.001zm.309 3.714-.497.053.002.015.002.014zm.233 1.393v.5h.59l-.097-.582zm-4.102-4.101h-.5v.18l.116.139zm0-43.411v-.5h-.5v.5zm3.173 4.797h-.5v.5h.5zm0-4.797v-.5h-.5v.5zm5.804 0h.5v-.5h-.5zm0 .773v.5h.5v-.5zm-4.334 1.161-.331-.375-.005.005-.006.005zm-1.238 2.863v.5h.5v-.5zm-3.405 0-.499.023.022.477h.477zm-1.315-2.863.342-.365zm-4.334-1.161h-.5v.5h.5zm0-.773v-.5h-.5v.5zm5.804 0h.5v-.5h-.5zm0 4.797v.5h.5v-.5zm56.202-10.059-.247.434.004.003zm9.75 9.827-.438.241.002.004zm0 29.56-.436-.245-.002.004zm-9.75 9.905.243.437.004-.002zm-29.018 0-.247.435.004.002zm-9.827-9.905-.439.241.002.004zm0-29.56-.437-.245-.002.005zm9.827-9.827.243.437.004-.003zm25.923 47.203-.274-.418-.003.002zm7.661-9.054-.451-.216-.002.004zm0-27.084-.453.212.002.005zm-7.661-9.053-.277.416.003.002zm-22.905 0-.274-.419-.003.002zm-7.661 9.053-.451-.216-.002.005zm0 27.084-.453.211.002.005zm7.661 9.054-.277.416.003.002zm52.183-41.941v-.5h-.64l.155.621zm16.483.851-.143.479.004.001zm4.952 2.476-.314.389.007.006zm3.173 3.946.453-.211zm-.465 11.298.438.243zm-4.333 4.566-.269-.422-.006.004zm-6.191 2.166-.055-.496-.135.959zm3.018 2.399-.368.338.007.008zm3.018 3.637-.41.286.005.007zm1.006 1.393-.405.293.008.011zm2.554 3.328-.396.304.006.009.007.008zm3.173 3.714-.378.328.008.009zm2.94 3.095-.353.354.005.005.005.005zm2.941 2.089-.224.448.013.006.014.006zm3.714.697h.5v-.5h-.5zm0 .774v.5h.5v-.5zm-9.441-1.084-.185.465.004.001zm-4.411-2.631-.345.362.009.008zm-2.94-3.095-.391.313.009.009zm-1.47-1.934-.416.277.007.011.009.012zm-2.399-3.483.408-.289zm-2.399-3.327-.41.287.008.01zm-1.315-1.857.4-.3-.004-.005zm-3.56-3.56-.314.389.009.008zm-4.256-1.625h-.5v.5h.5zm0-.774.031-.499-.531-.033v.532zm1.238.078-.031.499.015.001h.016zm3.173-.078-.018-.499h-.002zm4.333-.309.053.497.009-.001.009-.001zm4.024-1.703-.292-.405-.008.005zm3.018-4.642-.47-.171-.004.012zm.464-2.012-.495-.066zm.078-2.399-.5.018.001.013zm-.852-3.869-.462.189.003.009.004.009zm-2.089-2.941-.343.364.006.005.005.005zm-3.173-1.934-.175.468zm-4.178-.774-.021.499h.004zm-6.346-.078.015.5zm-2.94-.619-.485.122.01.038.015.037zm-.387-1.16-.485.121.01.039.015.037zm.774-.619h.5v-.5h-.5zm0 46.429v.5h.5v-.5zm-4.953 0h-.5v.5h.5zm0-46.429v-.5h-.5v.5zm.233 41.476.491-.092-.076-.408h-.415zm.928 4.953v.5h.603l-.111-.592zm-6.577 0h-.5v.5h.5zm0-.774v-.5h-.5v.5zm4.178-1.238.354.353zm1.316-2.941v-.5h-.478l-.022.478zm.155-36.601v.5h.413l.078-.407zm-.155 0-.5.021.021.479h.479zm-1.316-2.941.342-.365zm-4.178-1.161h-.5v.5h.5zm0-.773v-.5h-.5v.5zm6.577 0 .491.093.113-.593h-.604zm3.56 41.476v-.5h-.415l-.077.408zm.232 0 .499-.022-.021-.478h-.478zm1.315 2.941-.353.353zm4.102 1.238.497-.05-.045-.45h-.452zm.077.774v.5h.552l-.055-.55zm-6.655 0-.491-.092-.111.592h.602zm75.289-43.644-.223.448zm8.59 8.048-.434.249.001.003zm0 24.762-.433-.251zm-8.59 8.048.224.447.005-.002zm-29.715 2.786-.498.033.031.467h.467zm-.154-2.322v-.5h-.535l.036.534zm30.72-5.571-.368-.338zm0-30.566-.371.335.005.006zm-31.494-5.649h-.5v.5h.5zm0-2.321v-.5h-.5v.5zm2.012 0h.5v-.5h-.5zm0 46.429v.5h.5v-.5zm-5.03 0h-.5v.5h.5zm0-46.429v-.5h-.5v.5zm.155 41.399h.5v-.5h-.5zm0 5.03v.5h.5v-.5zm-5.572 0h-.5v.5h.5zm0-.774v-.5h-.5v.5zm4.101-1.238.354.353.005-.005.006-.005zm1.316-3.018v-.5h-.478l-.021.477zm.155-36.37v.5h.5v-.5zm-.155 0-.5.021.02.479h.48zm-1.393-3.018-.353.354.011.011.011.01zm-4.024-1.238h-.5v.5h.5zm0-.773v-.5h-.5v.5zm5.572 0h.5v-.5h-.5zm59.516 0h.5v-.5h-.5zm0 46.429v.5h.5v-.5zm-4.953 0h-.5v.5h.5zm0-46.429v-.5h-.5v.5zm25.768 44.03.499.032.035-.532h-.534zm-.154 2.399v.5h.468l.031-.468zm-20.816 0h-.5v.5h.5zm0-2.399v-.5h-.5v.5zm17.333-21.977h.5v-.5h-.5zm0 2.322v.5h.5v-.5zm-17.333 0h-.5v.5h.5zm0-2.322v-.5h-.5v.5zm20.893-22.053h.5v-.5h-.5zm0 2.398v.5h.5v-.5zm-20.893 0h-.5v.5h.5zm0-2.398v-.5h-.5v.5zm25.304 35.363.466.18.262-.68h-.728zm-4.256 11.066v.5h.343l.123-.321zm-11.762 0-.337-.37-.954.87h1.291zm2.631-2.399v-.5h-.194l-.143.13zm6.19-1.083.212.453.006-.003zm3.869-3.096.398.303.006-.008zm2.554-4.488v-.5h-.327l-.131.3zm-7.197-11.143h.5v-.5h-.5zm0 4.411v.5h.5v-.5zm-.851 0h-.5v.5h.5zm-.774-3.25-.396.305.006.007.006.008zm-2.398-1.006h-.5v.5h.5zm0-.155v-.5h-.5v.5zm4.023-6.423h.5v-.5h-.5zm0 4.411v.5h.5v-.5zm-4.023 0h-.5v.5h.5zm0-.155v-.5h-.5v.5zm2.398-.928.384.32.007-.008.006-.007zm.774-3.328v-.5h-.5v.5zm4.411-15.631h.5v-.5h-.5zm0 5.34v.5h.5v-.5zm-.851 0h-.5v.5h.5zm-1.084-3.947-.377.328.006.007.006.006zm-2.785-1.161h-.5v.5h.5zm0-.232v-.5h-.5v.5zm4.72-3.405h.5v-.728l-.68.262zm0 2.012-.044.498.544.048v-.546zm-8.822-.773v-.5l-.043.998zm5.108-.387.07.495.014-.003zm-21.822 41.863.49-.099-.081-.401h-.409zm1.006 4.953v.5h.612l-.122-.6zm-6.732 0h-.5v.5h.5zm0-.774v-.5h-.5v.5zm4.256-1.238.353.353zm1.315-2.941v-.5h-.478l-.021.478zm.155-36.601v.5h.407l.083-.399zm-.155 0-.499.021.02.479h.479zm-1.315-2.941.342-.365zm-4.256-1.161h-.5v.5h.5zm0-.773v-.5h-.5v.5zm6.732 0 .49.101.124-.601h-.614zm41.1 0v-.5h-.64l.155.621zm16.482.851-.142.479.003.001zm4.953 2.476-.314.389.007.006zm3.172 3.946.454-.211zm-.464 11.298.437.243zm-4.333 4.566-.269-.422-.006.004zm-6.191 2.166-.055-.496-.135.959zm3.018 2.399-.369.338.008.008zm3.018 3.637-.411.286.006.007zm1.006 1.393-.406.293.009.011zm2.554 3.328-.397.304.007.009.007.008zm3.172 3.714-.377.328.008.009zm2.941 3.095-.354.354.005.005.005.005zm2.94 2.089-.223.448.013.006.013.006zm3.715.697h.5v-.5h-.5zm0 .774v.5h.5v-.5zm-9.441-1.084-.186.465.005.001zm-4.411-2.631-.345.362.009.008zm-2.94-3.095-.391.313.008.009zm-1.471-1.934-.416.277.008.011.008.012zm-2.398-3.483.408-.289zm-2.399-3.327-.41.287.007.01zm-1.316-1.857.4-.3-.003-.005zm-3.559-3.56-.315.389.01.008zm-4.256-1.625h-.5v.5h.5zm0-.774.031-.499-.531-.033v.532zm1.238.078-.031.499.015.001h.016zm3.172-.078-.017-.499h-.002zm4.334-.309.053.497.009-.001.009-.001zm4.024-1.703-.292-.405-.008.005zm3.018-4.642-.47-.171-.005.012zm.464-2.012-.496-.066zm.077-2.399-.5.018.001.013zm-.851-3.869-.463.189.004.009.004.009zm-2.089-2.941-.343.364.005.005.006.005zm-3.173-1.934-.175.468zm-4.179-.774-.021.499h.005zm-6.345-.078.014.5zm-2.94-.619-.485.122.009.038.016.037zm-.387-1.16-.485.121.009.039.016.037zm.774-.619h.5v-.5h-.5zm0 46.429v.5h.5v-.5zm-4.953 0h-.5v.5h.5zm0-46.429v-.5h-.5v.5zm.232 41.476.492-.092-.077-.408h-.415zm.929 4.953v.5h.602l-.111-.592zm-6.578 0h-.5v.5h.5zm0-.774v-.5h-.5v.5zm4.179-1.238.354.353zm1.315-2.941v-.5h-.477l-.022.478zm.155-36.601v.5h.414l.077-.407zm-.155 0-.499.021.021.479h.478zm-1.315-2.941.342-.365zm-4.179-1.161h-.5v.5h.5zm0-.773v-.5h-.5v.5zm6.578 0 .491.093.113-.593h-.604zm3.559 41.476v-.5h-.415l-.076.408zm.233 0 .499-.022-.022-.478h-.477zm1.315 2.941-.354.353zm4.101 1.238.498-.05-.045-.45h-.453zm.078.774v.5h.552l-.055-.55zm-6.655 0-.492-.092-.111.592h.603zM19.95 104.083h-.5v54.168h1v-54.168zm0 54.168v-.5h-5.03v1h5.03zm-5.03 0h.5v-54.168h-1v54.168zm0-54.168v.5h5.03v-1h-5.03zm25.923 51.769h-.5v2.399h1v-2.399zm0 2.399v-.5H19.719v1h21.126zm-21.125 0h.5v-2.399h-1v2.399zm0-2.399v.5h21.126v-1H19.717zm25.846-10.137-.47-.169-4.49 12.536.472.169.47.168 4.489-12.536zm-4.488 12.536v-.5H28.23v1h12.846zm-12.846 0 .326.379 2.786-2.399-.326-.379-.326-.379-2.786 2.399zm2.786-2.399v.5c2.779 0 5.08-.419 6.873-1.288l-.218-.45-.218-.45c-1.611.781-3.747 1.188-6.437 1.188zm6.655-1.238.224.447c1.825-.913 3.309-2.179 4.441-3.797l-.41-.287-.409-.287c-1.034 1.477-2.387 2.635-4.07 3.477zm4.256-3.637.41.287q1.657-2.37 2.914-5.355l-.461-.194-.46-.194q-1.221 2.897-2.813 5.169zm2.863-5.262v.5h.774v-1h-.774zm-29.637 6.887h-.5v5.649h1v-5.649zm0 5.649v-.5h-6.19v1h6.19zm-6.19 0h.5v-.774h-1v.774zm0-.774v.5h.463v-1h-.463zm.463 0v.5h.542v-1h-.542zm.542 0v.5c1.47 0 2.734-.515 3.758-1.539l-.353-.354-.354-.353c-.832.832-1.839 1.246-3.05 1.246zm3.405-1.393.354.354c1.066-1.066 1.637-2.345 1.693-3.817l-.5-.019-.5-.019c-.046 1.211-.506 2.253-1.4 3.148zm1.548-3.482v.5h.232v-1h-.232zm.232-42.87v-.5h-.232v1h.232zm-.232 0 .5-.019c-.057-1.473-.63-2.731-1.704-3.749l-.344.363-.344.363c.886.84 1.345 1.852 1.392 3.061zm-1.548-3.405.363-.343c-1.022-1.08-2.288-1.627-3.768-1.627v1c1.203 0 2.207.433 3.042 1.314zm-3.405-1.47v-.5h-.542v1h.542zm-.542 0v-.5h-.463v1h.463zm-.464 0h.5v-.774h-1v.774zm0-.774v.5h6.19v-1h-6.19zm6.19 0h-.5v5.649h1v-5.649zm4.566 5.649h.5v-5.649h-1v5.649zm0-5.649v.5h6.19v-1h-6.19zm6.19 0h-.5v.774h1v-.774zm0 .774v-.5h-.541v1h.541zm-.54 0v-.5h-.465v1h.464zm-.465 0v-.5c-1.479 0-2.765.546-3.836 1.617l.354.353.353.354c.89-.89 1.925-1.324 3.129-1.324zm-3.482 1.47-.354-.353c-1.02 1.02-1.56 2.275-1.616 3.739l.5.019.499.019c.047-1.218.487-2.233 1.324-3.07zm-1.47 3.405v-.5h-.233v1h.232zm39.505 2.09h-.5v46.429h1v-46.429zm0 46.429v-.5h-4.953v1h4.953zm-4.953 0h.5v-46.429h-1v46.429zm0-46.429v.5h4.953v-1h-4.953zm25.769 44.03-.5-.032-.154 2.399.499.032.499.032.154-2.399zm-.155 2.399v-.5H59.3v1h20.816zm-20.816 0h.5v-2.399h-1v2.399zm0-2.399v.5h20.97v-1h-20.97zm17.334-21.977h-.5v2.322h1v-2.322zm0 2.322v-.5H59.3v1h17.334zm-17.334 0h.5v-2.322h-1v2.322zm0-2.322v.5h17.334v-1H59.3zm20.893-22.053h-.5v2.398h1v-2.398zm0 2.398v-.5H59.301v1h20.893zm-20.893 0h.5v-2.398h-1v2.398zm0-2.398v.5h20.893v-1H59.301zm25.304 35.363-.467-.179-4.256 11.065.467.18.466.179 4.257-11.065zm-4.256 11.066v-.5H68.587v1h11.762zm-11.762 0 .337.369 2.63-2.399-.336-.369-.337-.37-2.631 2.399zm2.63-2.399v.5c2.62 0 4.764-.366 6.403-1.13l-.212-.453-.211-.454c-1.457.68-3.439 1.037-5.98 1.037zm6.191-1.083.218.45c1.663-.805 3.017-1.885 4.05-3.243l-.399-.303-.398-.302c-.928 1.221-2.153 2.205-3.688 2.947zm3.87-3.096.403.295a24 24 0 0 0 2.608-4.582l-.458-.201-.458-.2a23 23 0 0 1-2.5 4.393zm2.553-4.488v.5h.774v-1h-.774zm-7.196-11.143h-.5v4.411h1v-4.411zm0 4.411v-.5h-.852v1h.852zm-.852 0h.5v-1.006h-1v1.006zm0-1.006h.5c0-.983-.292-1.847-.89-2.564l-.383.32-.385.32c.435.521.658 1.153.658 1.924zm-.773-2.244.396-.305c-.636-.827-1.604-1.201-2.795-1.201v1c.975 0 1.607.297 2.002.811zm-2.4-1.006h.5v-.155h-1v.155zm0-.155v.5h4.025v-1H72.61zm4.025-6.423h-.5v4.411h1v-4.411zm0 4.411v-.5H72.61v1h4.023zm-4.024 0h.5v-.155h-1v.155zm0-.155v.5c1.177 0 2.142-.339 2.783-1.108l-.385-.32-.384-.32c-.39.469-1.025.748-2.014.748zm2.398-.928.397.305c.585-.762.877-1.644.877-2.627h-1c0 .771-.224 1.437-.67 2.017zm.774-2.322h.5v-1.006h-1v1.006zm0-1.006v.5h.852v-1h-.852zm4.411-15.631h-.5v5.34h1v-5.34zm0 5.34v-.5h-.851v1h.851zm-.851 0h.5v-1.161h-1v1.161zm0-1.161h.5c0-1.207-.407-2.258-1.218-3.127l-.365.341-.366.341c.634.679.949 1.485.949 2.445zm-1.084-2.786.378-.327c-.78-.902-1.857-1.334-3.163-1.334v1c1.067 0 1.847.342 2.408.989zm-2.785-1.161h.5v-.232h-1v.232zm0-.232v.5h4.72v-1h-4.72zm4.72-3.405h-.5v2.012h1v-2.012zm0 2.012.044-.498-8.822-.774-.043.499-.044.498 8.821.773zm-8.821-.773v.5a37 37 0 0 0 5.177-.392l-.07-.495-.071-.495a36 36 0 0 1-5.037.382zm5.107-.387.084.492c1.804-.309 3.087-.599 3.81-.877l-.18-.467-.18-.466c-.618.238-1.81.515-3.619.825zm-21.822 41.863-.49.1 1.006 4.952.49-.099.49-.1-1.006-4.952zm1.006 4.953v-.5h-6.732v1h6.732zm-6.732 0h.5v-.774h-1v.774zm0-.774v.5h.541v-1h-.541zm.541 0v.5h.542v-1h-.542zm.542 0v.5c1.407 0 2.597-.455 3.526-1.385l-.353-.353-.354-.354c-.721.722-1.647 1.092-2.819 1.092zm3.173-1.238.353.353c.911-.911 1.404-2.008 1.462-3.271l-.5-.023-.5-.022c-.045 1.006-.429 1.869-1.169 2.609zm1.315-2.941v.5h.155v-1h-.155zm.155-36.601v-.5h-.155v1h.155zm-.155 0 .5-.022c-.057-1.31-.547-2.416-1.473-3.284l-.342.365-.342.365c.725.68 1.112 1.534 1.158 2.597zm-1.315-2.941.342-.365c-.931-.873-2.117-1.296-3.515-1.296v1c1.182 0 2.111.351 2.83 1.026zm-3.173-1.161v-.5h-.542v1h.542zm-.542 0v-.5h-.541v1h.541zm-.541 0h.5v-.773h-1v.773zm0-.773v.5h6.732v-1h-6.732zm6.732 0-.49-.101-1.006 4.875.49.101.49.101 1.006-4.875zm57.41-1.084v.5q3.521 0 6.568.534l.086-.492.087-.493q-3.144-.549-6.741-.549zm6.654.542-.072.495q3.12.457 5.85 1.519l.181-.466.181-.466a27.8 27.8 0 0 0-6.067-1.577zm5.959 1.548-.166.471a25.8 25.8 0 0 1 5.314 2.581l.269-.421.268-.422a26.8 26.8 0 0 0-5.519-2.681zm5.417 2.631-.494.077 1.702 10.91.494-.077.494-.077-1.702-10.911zm1.702 10.91v-.5h-.696v1h.696zm-.696 0 .486-.115c-.736-3.103-1.952-5.681-3.664-7.713l-.382.322-.382.322c1.59 1.889 2.747 4.316 3.455 7.3zm-3.56-7.506.387-.316c-1.661-2.036-3.828-3.531-6.486-4.488l-.169.471-.169.47c2.501.901 4.512 2.295 6.05 4.179zm-6.268-4.333.178-.467c-2.651-1.008-5.81-1.503-9.464-1.503v1c3.568 0 6.6.484 9.108 1.437zm-9.286-1.47v-.5c-4 0-7.548.922-10.627 2.78l.258.428.258.428c2.905-1.753 6.27-2.636 10.111-2.636zm-10.369 2.708-.256-.429c-3.03 1.806-5.388 4.409-7.078 7.789l.447.223.447.224c1.612-3.223 3.844-5.676 6.696-7.378zm-6.887 7.583-.446-.226c-1.694 3.335-2.53 7.312-2.53 11.911h1c0-4.48.814-8.293 2.422-11.458zm-2.476 11.685h-.5c0 4.549.837 8.524 2.529 11.908l.447-.223.447-.224c-1.61-3.219-2.423-7.034-2.423-11.461zm2.476 11.685-.447.223c1.69 3.382 4.075 6.008 7.153 7.866l.258-.428.259-.428c-2.907-1.754-5.165-4.235-6.776-7.457zm6.964 7.661-.252.431c3.078 1.805 6.624 2.7 10.622 2.7v-1c-3.844 0-7.211-.859-10.117-2.563zm10.37 2.631v.5q3.304 0 6.305-.71l-.115-.487-.115-.486q-2.88.682-6.075.683zm6.19-.697.115.487a23.3 23.3 0 0 0 5.773-2.214l-.239-.439-.239-.44a22.3 22.3 0 0 1-5.525 2.12zm5.649-2.166.243.437a25.2 25.2 0 0 0 5.289-3.947l-.347-.36-.348-.359a24.1 24.1 0 0 1-5.08 3.791zm5.185-3.87.5.004.077-10.292-.5-.003-.5-.004-.077 10.292zm.077-10.291.499.026c.059-1.114-.299-2.033-1.123-2.667l-.305.397-.304.396c.517.398.778.975.734 1.821zm-.929-2.244.321-.385c-.74-.616-1.747-.889-2.952-.889v1c1.066 0 1.813.242 2.311.658zm-2.631-.774v-.5h-1.083v1h1.083zm-1.083 0h.5v-.774h-1v.774zm0-.774v.5h14.161v-1h-14.161zm14.161 0h-.5v.774h1v-.774zm0 .774v-.5h-1.083v1h1.083zm-1.083 0v-.5c-1.225 0-2.236.27-2.944.9-.719.639-1.039 1.57-1.039 2.695h1c0-.938.262-1.555.703-1.948.453-.402 1.182-.647 2.28-.647zm-3.483 3.095h-.5v9.286h1v-9.286zm0 9.286-.391-.311c-1.153 1.453-2.743 2.946-4.784 4.476l.3.4.3.4c2.087-1.565 3.747-3.115 4.967-4.654zm-4.875 4.565-.3-.4q-3.022 2.27-7.296 3.799l.168.47.168.471c2.927-1.045 5.45-2.357 7.56-3.94zm-7.428 3.869-.171-.469c-2.772 1.008-5.963 1.517-9.579 1.517v1c3.709 0 7.018-.522 9.921-1.578zm-9.75 1.548.005-.5c-5.045-.051-9.428-1.044-13.164-2.963l-.229.445-.228.445c3.899 2.002 8.44 3.021 13.611 3.073zm-13.388-3.018.231-.443q-5.523-2.875-8.62-8.167l-.432.253-.431.253c2.163 3.693 5.174 6.545 9.022 8.548zm-8.821-8.357.431-.253c-2.062-3.521-3.104-7.737-3.104-12.67h-1c0 5.076 1.073 9.474 3.242 13.176zm-3.173-12.923h.5c0-4.985 1.043-9.227 3.104-12.747l-.431-.253-.431-.253c-2.169 3.703-3.242 8.127-3.242 13.253zm3.173-13 .431.253c2.066-3.527 4.961-6.247 8.696-8.166l-.228-.444-.228-.445c-3.9 2.003-6.938 4.854-9.103 8.549zm8.899-8.357.228.444c3.736-1.918 8.091-2.885 13.082-2.885v-1c-5.121 0-9.639.993-13.538 2.996zm64.396-2.941-.455.206 21.28 47.049.455-.207.456-.206-21.28-47.048zm21.28 47.048v-.5h-6.113v1h6.113zm-6.113 0 .463-.189-16.483-40.162-.462.19-.463.19 16.483 40.161zm-16.482-40.161.491.094 1.315-6.887-.491-.094-.491-.094-1.315 6.887zm-13.62 34.977-.469-.172c-.598 1.631-.566 3.056.316 4.127l.386-.318.386-.318c-.563-.684-.686-1.683-.149-3.147zm.233 3.637-.377.329c.799.912 1.754 1.409 2.853 1.409v-1c-.758 0-1.454-.329-2.1-1.067zm2.476 1.238v.5h.619v-1h-.619zm.619 0h-.5v.774h1v-.774zm0 .774v-.5h-14.78v1h14.78zm-14.78 0h.5v-.774h-1v.774zm0-.774v.5h.309v-1h-.309zm.309 0v.5h.31v-1h-.31zm.31 0v.5c1.199 0 2.4-.401 3.596-1.162l-.269-.421-.268-.422c-1.074.683-2.091 1.005-3.059 1.005zm3.327-1.083.282.413c1.233-.841 2.263-2.189 3.111-3.992l-.452-.213-.452-.213c-.803 1.705-1.733 2.884-2.77 3.591zm2.941-3.792v.5h4.565v-1h-4.565zm19.5-41.864-.497.051.541 5.339.498-.05.497-.051-.541-5.339zm.542 5.34-.461-.195-17.72 41.941.46.195.461.194 17.72-41.941zm-17.721 41.941v-.5h-4.875v1h4.875zm-4.875 0 .453.211 18.34-39.31-.453-.211-.453-.212-18.34 39.31zm18.34-39.31.461.192.001-.001.001-.003.004-.011.019-.043.072-.174.29-.697-.461-.192-.462-.192-.29.696-.072.174-.019.044-.004.011-.001.002-.001.001zm.387-.929.447.224q.475-.95 1.021-2.278l-.462-.19-.463-.19a34 34 0 0 1-.99 2.21zm1.006-2.244.457.203q.625-1.41 1.098-2.745l-.472-.166-.471-.167a37 37 0 0 1-1.069 2.672zm1.083-2.708.472.166c.314-.89.51-1.631.567-2.206l-.497-.05-.498-.05c-.045.457-.21 1.109-.515 1.973zm.542-2.09v.5h.696v-1h-.696zm9.827 29.483h-.5v2.321h1v-2.321zm0 2.321v-.5h-20.506v1h20.506zm-20.506 0h.5v-2.321h-1v2.321zm0-2.321v.5h20.506v-1h-20.506zm24.453 12.381v.5h5.881v-1h-5.881zm5.881 0-.458.202c.798 1.807 1.802 3.159 3.039 4.003l.282-.413.282-.414c-1.033-.704-1.937-1.879-2.688-3.58zm2.863 3.792-.268.421c1.191.758 2.366 1.162 3.518 1.162v-1c-.912 0-1.903-.319-2.982-1.005zm3.25 1.083v.5h.309v-1h-.309zm.309 0v.5h.31v-1h-.31zm.31 0h-.5v.774h1v-.774zm0 .774v-.5h-15.863v1h15.863zm-15.863 0h.5v-.774h-1v.774zm0-.774v.5h.619v-1h-.619zm.619 0v.5c1.056 0 1.983-.504 2.775-1.409l-.376-.329-.377-.329c-.653.746-1.324 1.067-2.022 1.067zm2.399-1.238.386.318c.881-1.071.913-2.496.315-4.127l-.469.172-.47.172c.537 1.464.415 2.463-.148 3.147zm59.772-17.489-.498-.04-.851 10.602.498.04.499.04.851-10.601zm-.851 10.602-.419-.273q-1.953 3.008-5.127 5.201l.284.411.284.412q3.327-2.296 5.397-5.479zm-5.262 5.339-.284-.411q-3.18 2.196-7.212 3.415l.145.478.144.479q4.17-1.258 7.491-3.549zm-7.351 3.482-.136-.481q-4.03 1.142-8.531 1.142v1q4.631.001 8.803-1.18zm-8.667 1.161.005-.5c-5.149-.051-9.61-1.045-13.398-2.964l-.226.446-.226.446c3.95 2.002 8.568 3.02 13.84 3.072zm-13.619-3.018.228-.445c-3.734-1.917-6.602-4.636-8.616-8.16l-.434.248-.434.248c2.113 3.698 5.127 6.551 9.027 8.554zm-8.822-8.357.434-.248c-2.012-3.522-3.029-7.74-3.029-12.675h-1c0 5.074 1.047 9.47 3.161 13.171zm-3.095-12.923h.5c0-4.987 1.018-9.231 3.029-12.752l-.434-.248-.434-.248c-2.115 3.701-3.161 8.124-3.161 13.248zm3.095-13 .434.248c2.014-3.524 4.882-6.243 8.616-8.161l-.228-.444-.229-.445c-3.9 2.003-6.914 4.856-9.027 8.554zm8.822-8.357.226.446c3.786-1.919 8.246-2.887 13.393-2.887v-1c-5.273 0-9.893.992-13.845 2.995zm13.619-2.941v.5q4.732 0 9.55 1.223l.123-.485.123-.484q-4.933-1.253-9.796-1.254zm9.673 1.238-.123.485c3.209.815 5.97 1.957 8.291 3.42l.267-.422.266-.423q-3.64-2.292-8.578-3.544zm8.435 3.483-.495.077 1.703 10.91.494-.077.494-.077-1.702-10.911zm1.702 10.91v-.5h-.697v1h.697zm-.697 0 .487-.116c-1.159-4.847-3.521-8.38-7.117-10.527l-.257.429-.256.429c3.317 1.98 5.546 5.257 6.657 9.902zm-6.887-10.214.26-.428c-3.498-2.119-7.693-3.167-12.563-3.167v1c4.725 0 8.732 1.015 12.044 3.023zm-12.303-3.095v-.5c-4.151 0-7.778.92-10.86 2.78l.258.428.259.428c2.902-1.751 6.343-2.636 10.343-2.636zm-10.602 2.708-.256-.429c-3.029 1.806-5.388 4.409-7.078 7.789l.447.223.448.224c1.611-3.223 3.843-5.676 6.696-7.378zm-6.887 7.583-.448-.22c-1.641 3.334-2.45 7.308-2.45 11.905h1c0-4.482.789-8.298 2.347-11.464zm-2.398 11.685h-.5c0 4.497.81 8.443 2.448 11.825l.45-.218.45-.218c-1.56-3.22-2.348-7.012-2.348-11.389zm2.398 11.607-.445.227c1.691 3.33 4.076 5.929 7.151 7.785l.259-.428.258-.428c-2.908-1.755-5.166-4.212-6.777-7.382zm6.965 7.584-.253.431c3.079 1.805 6.701 2.725 10.848 2.777l.006-.5.006-.5c-4.004-.05-7.449-.936-10.354-2.639zm10.601 2.708v.5c3.923 0 7.469-.627 10.632-1.893l-.185-.464-.186-.464c-3.028 1.211-6.445 1.821-10.261 1.821zm10.447-1.857.189.463c3.231-1.324 5.859-3.367 7.875-6.126l-.403-.295-.404-.295c-1.905 2.606-4.383 4.535-7.447 5.79zm7.661-5.958.403.295c2.031-2.779 3.161-6.334 3.423-10.634l-.499-.031-.499-.03c-.254 4.161-1.342 7.518-3.232 10.105zm3.327-10.37v.5h.696v-1h-.696zm12.155-26.851-.436.245 14.316 25.459.436-.245.435-.245-14.315-25.459zm14.316 25.459-.325-.381-3.173 2.709.325.38.325.38 3.172-2.708zm-3.173 2.708.422-.268-17.875-28.167-.422.268-.422.268 17.875 28.167zm-17.875-28.167v.5h6.732v-1h-6.732zm22.208 26.387h-.5v19.965h1v-19.965zm0 19.965v-.5h-5.029v1h5.029zm-5.029 0h.5v-19.965h-1v19.965zm0-19.965v.5h5.029v-1h-5.029zm18.03-26.387v.5h4.875v-1h-4.875zm4.875 0-.418-.275-18.417 28.013.418.274.417.275 18.417-28.012zm-18.417 28.012.142-.479-2.863-.851-.142.479-.143.479 2.863.851zm-2.863-.851.428.259 16.404-27.162-.427-.258-.428-.259-16.405 27.162zm13.464-22.286.438.241c.637-1.157.691-2.302.07-3.358l-.431.254-.431.253c.411.699.414 1.463-.084 2.369zm.077-2.863.431-.254c-.617-1.049-1.619-1.562-2.907-1.562v1c.983 0 1.631.365 2.045 1.069zm-2.476-1.316v-.5h-.464v1h.464zm-.464 0v-.5h-.464v1h.464zm-.464 0h.5v-.773h-1v.773zm0-.773v.5h16.172v-1h-16.172zm16.172 0h-.5v.773h1v-.773zm0 .773v-.5h-.928v1h.928zm-.928 0v-.5c-1.546 0-3.006.444-4.371 1.317l.27.421.269.422c1.214-.778 2.489-1.16 3.832-1.16zm-4.101 1.238-.265-.424c-1.286.804-2.319 1.751-3.086 2.846l.41.287.41.287c.678-.969 1.605-1.828 2.796-2.572zm-2.941 2.709-.024-.5-4.875.233.024.499.024.499 4.875-.232zm-27.703.155.018-.5-6.578-.232-.017.499-.018.5 6.578.232zm-6.577-.233.41-.285a9.4 9.4 0 0 0-3.267-2.94l-.238.44-.239.439a8.4 8.4 0 0 1 2.923 2.632zm-3.095-2.785.26-.427c-1.271-.774-2.704-1.157-4.284-1.157v1c1.411 0 2.661.34 3.764 1.011zm-4.024-1.084v-.5h-.929v1h.929zm-.929 0h.5v-.773h-1v.773zm0-.773v.5h17.953v-1H236.32zm17.953 0h-.5v.773h1v-.773zm0 .773v-.5h-.465v1h.465zm-.465 0v-.5h-.464v1h.464zm-.464 0v-.5c-.636 0-1.214.131-1.715.413-.503.283-.901.702-1.198 1.237l.437.243.437.243c.219-.393.491-.67.814-.852.324-.182.727-.284 1.225-.284zm-2.476 1.393-.442-.234c-.55 1.039-.509 2.121.082 3.185l.437-.242.437-.243c-.44-.793-.451-1.516-.072-2.232zm8.048 39.31h-.5v4.953h1v-4.953zm0 4.953v-.5h-5.649v1h5.649zm-5.649 0h.5v-.774h-1v.774zm0-.774v.5h.464v-1h-.464zm.464 0v.5h.464v-1h-.464zm.464 0v.5c1.362 0 2.524-.459 3.449-1.385l-.353-.353-.354-.354c-.725.726-1.627 1.092-2.742 1.092zm3.096-1.238.342.364c.966-.909 1.492-2.009 1.55-3.282l-.499-.023-.5-.022c-.045.996-.447 1.856-1.236 2.599zm1.393-2.941v.5h.232v-1h-.232zm4.797 0v.5h.232v-1h-.232zm.232 0-.499.023c.057 1.263.55 2.36 1.461 3.271l.354-.353.353-.354c-.739-.74-1.123-1.603-1.169-2.609zm1.316 2.941-.343.364c.973.915 2.154 1.374 3.515 1.374v-1c-1.114 0-2.048-.367-2.829-1.102zm3.172 1.238v.5h.465v-1h-.465zm.465 0v.5h.464v-1h-.464zm.464 0h-.5v.774h1v-.774zm0 .774v-.5h-5.649v1h5.649zm-5.649 0h.5v-4.953h-1v4.953zm45.259-54.168h-.5v54.168h1v-54.168zm0 54.168v-.5h-5.03v1h5.03zm-5.03 0h.5v-54.168h-1v54.168zm0-54.168v.5h5.03v-1h-5.03zm.232 48.519h-.5v5.649h1v-5.649zm0 5.649v-.5h-6.19v1h6.19zm-6.19 0h.5v-.774h-1v.774zm0-.774v.5h.464v-1h-.464zm.464 0v.5h.542v-1h-.542zm.542 0v.5c1.471 0 2.734-.515 3.758-1.539l-.353-.354-.354-.353c-.832.832-1.839 1.246-3.051 1.246zm3.405-1.393.353.354c1.066-1.066 1.637-2.345 1.694-3.817l-.5-.019-.499-.019c-.047 1.211-.508 2.253-1.402 3.148zm1.547-3.482v.5h.232v-1h-.232zm.232-42.87v-.5h-.232v1h.232zm-.232 0 .5-.019c-.057-1.473-.629-2.731-1.703-3.749l-.344.363-.344.363c.886.84 1.345 1.852 1.392 3.061zm-1.547-3.405.363-.343c-1.023-1.08-2.289-1.627-3.768-1.627v1c1.203 0 2.207.433 3.042 1.314zm-3.405-1.47v-.5h-.542v1h.542zm-.542 0v-.5h-.464v1h.464zm-.464 0h.5v-.774h-1v.774zm0-.774v.5h6.19v-1h-6.19zm6.19 0h-.5v5.649h1v-5.649zm4.566 48.519v.5h.232v-1h-.232zm.232 0-.499.019c.056 1.463.595 2.739 1.606 3.807l.363-.344.363-.344c-.845-.892-1.286-1.938-1.333-3.157zm1.47 3.482-.343.363c1.072 1.016 2.355 1.53 3.826 1.53v-1c-1.213 0-2.251-.415-3.139-1.256zm3.483 1.393v.5h.464v-1h-.464zm.464 0v.5h.542v-1h-.542zm.542 0h-.5v.774h1v-.774zm0 .774v-.5h-6.191v1h6.191zm-6.191 0h.5v-5.649h-1v5.649zm0-48.519h.5v-5.649h-1v5.649zm0-5.649v.5h6.191v-1h-6.191zm6.191 0h-.5v.774h1v-.774zm0 .774v-.5h-.542v1h.542zm-.542 0v-.5h-.464v1h.464zm-.464 0v-.5c-1.479 0-2.766.546-3.836 1.617l.353.353.354.354c.89-.89 1.925-1.324 3.129-1.324zm-3.483 1.47-.353-.353c-1.02 1.02-1.56 2.275-1.616 3.739l.499.019.5.019c.047-1.218.487-2.233 1.324-3.07zm-1.47 3.405v-.5h-.232v1h.232zm15.778.929-.343.364 42.869 40.393.343-.364.343-.364-42.869-40.393zm42.869 40.393-.498.047.774 8.28.498-.047.498-.046-.774-8.28zm.774 8.28.344-.363-42.87-40.625-.344.363-.343.362 42.869 40.626zm-42.87-40.625.498-.048-.774-8.048-.497.048-.498.048.774 8.047zm-.619 34.744h-.5v4.798h1v-4.798zm0 4.798v-.5h-5.803v1h5.803zm-5.803 0h.5v-.774h-1v.774zm0-.774v.5h.619v-1h-.619zm.619 0v.5h.696v-1h-.696zm.696 0v.5c1.307 0 2.437-.431 3.36-1.296l-.342-.365-.342-.365c-.728.683-1.609 1.026-2.676 1.026zm3.018-1.161.342.365c.927-.869 1.396-1.955 1.396-3.228h-1c0 .997-.356 1.819-1.08 2.498zm1.238-2.863v.5h.232v-1h-.232zm3.482 0h-.5c0 1.273.47 2.359 1.397 3.228l.342-.365.342-.365c-.725-.679-1.081-1.501-1.081-2.498zm1.239 2.863-.331.375c.965.852 2.088 1.286 3.348 1.286v-1c-1.009 0-1.898-.34-2.687-1.036zm3.017 1.161v.5h.62v-1h-.62zm.62 0v.5h.696v-1h-.696zm.696 0h-.5v.774h1v-.774zm0 .774v-.5h-5.804v1h5.804zm-5.804 0h.5v-4.798h-1v4.798zm0-4.798v.5h.232v-1h-.232zm-3.172-42.792-.397.304 3.327 4.334.397-.305.397-.304-3.328-4.334zm3.327 4.333-.5.001.077 43.257.5-.001.5-.001-.077-43.257zm.077 43.257v-.5h-3.482v1h3.482zm-3.482 0h.5v-37.917h-1v37.917zm0-37.917h.5q.001-3.97-.391-6.877l-.496.067-.495.067q.381 2.819.382 6.743zm-.387-6.81.497-.054-.232-2.147-.058-.537-.014-.134-.004-.034-.001-.008v-.003l-.497.054-.497.054v.002l.001.009.004.033.014.135.058.536.232 2.148zm-.309-2.863v.5h.774v-1h-.774zm44.417 1.161h-.5v37.607h1v-37.607zm0 37.607h-.5q0 2.492.156 4.831l.499-.033.499-.033a71 71 0 0 1-.154-4.765zm.155 4.798-.499.034q.155 2.25.311 3.733l.497-.053.498-.052q-.154-1.458-.308-3.697zm.309 3.714-.493.082.174 1.045.044.261.011.066.002.016.001.004v.001l.494-.082.493-.082v-.001l-.001-.005-.003-.016-.011-.065-.043-.261-.174-1.045zm.233 1.393v-.5h-.697v1h.697zm-.697 0 .385-.319-3.405-4.102-.385.32-.384.319 3.404 4.101zm-3.405-4.101h.5v-43.411h-1v43.411zm0-43.411v.5h3.405v-1h-3.405zm3.173 4.797h.5v-4.797h-1v4.797zm0-4.797v.5h5.804v-1h-5.804zm5.804 0h-.5v.773h1v-.773zm0 .773v-.5h-.697v1h.697zm-.697 0v-.5h-.619v1h.619zm-.619 0v-.5c-1.261 0-2.383.434-3.349 1.286l.331.375.331.375c.789-.696 1.678-1.036 2.687-1.036zm-3.018 1.161-.342-.365c-.926.869-1.396 1.956-1.396 3.228h1c0-.997.356-1.819 1.08-2.498zm-1.238 2.863v-.5h-.232v1h.232zm-3.405 0 .5-.022c-.058-1.265-.552-2.342-1.473-3.206l-.342.365-.342.365c.73.684 1.112 1.516 1.158 2.521zm-1.315-2.863.342-.365c-.923-.865-2.053-1.296-3.36-1.296v1c1.066 0 1.948.343 2.676 1.026zm-3.018-1.161v-.5h-.697v1h.697zm-.697 0v-.5h-.619v1h.619zm-.619 0h.5v-.773h-1v.773zm0-.773v.5h5.804v-1h-5.804zm5.804 0h-.5v4.797h1v-4.797zm0 4.797v-.5h-.155v1h.155zM406.566 103v.5c5.446 0 10.208 1.17 14.3 3.494l.247-.434.247-.435c-4.264-2.422-9.201-3.625-14.794-3.625zm14.547 3.56-.243.437c4.096 2.275 7.279 5.482 9.555 9.631l.438-.241.439-.24c-2.367-4.312-5.684-7.657-9.946-10.025zm9.75 9.827-.436.245c2.325 4.144 3.496 8.984 3.496 14.535h1c0-5.695-1.202-10.708-3.623-15.025zm3.56 14.78h-.5c0 5.551-1.171 10.391-3.496 14.535l.436.245.437.245c2.421-4.316 3.623-9.33 3.623-15.025zm-3.56 14.78-.438-.241c-2.277 4.15-5.461 7.384-9.559 9.711l.247.435.247.435c4.26-2.419 7.576-5.788 9.942-10.099zm-9.75 9.905-.243-.437c-4.093 2.274-8.856 3.419-14.304 3.419v1c5.591 0 10.526-1.176 14.79-3.545zm-14.547 3.482v-.5c-5.396 0-10.134-1.145-14.228-3.419l-.243.437-.243.437c4.263 2.368 9.173 3.545 14.714 3.545zm-14.471-3.482.247-.435c-4.099-2.328-7.309-5.563-9.638-9.715l-.436.245-.437.245c2.418 4.308 5.759 7.676 10.017 10.095zm-9.827-9.905.438-.241c-2.275-4.145-3.421-8.986-3.421-14.539h-1c0 5.693 1.176 10.705 3.544 15.021zm-3.483-14.78h.5c0-5.553 1.146-10.394 3.421-14.539l-.438-.241-.439-.24c-2.368 4.315-3.544 9.327-3.544 15.02zm3.483-14.78.436.245q3.491-6.224 9.634-9.635l-.243-.437-.243-.438c-4.261 2.368-7.603 5.711-10.021 10.02zm9.827-9.827.247.434c4.093-2.324 8.83-3.494 14.224-3.494v-1c-5.543 0-10.454 1.203-14.718 3.625zm14.471 50.453v.5c4.471 0 8.387-1.106 11.729-3.334l-.277-.416-.277-.416c-3.158 2.105-6.877 3.166-11.175 3.166zm11.452-3.25.274.418c3.386-2.222 5.998-5.315 7.84-9.261l-.453-.211-.453-.212c-1.77 3.793-4.265 6.736-7.482 8.848zm7.661-9.054.451.216c1.895-3.949 2.835-8.539 2.835-13.758h-1c0 5.099-.918 9.536-2.737 13.326zm2.786-13.542h.5c0-5.219-.94-9.809-2.835-13.758l-.451.216-.451.217c1.819 3.789 2.737 8.226 2.737 13.325zm-2.786-13.542.453-.211c-1.842-3.946-4.454-7.039-7.84-9.261l-.274.419-.274.418c3.217 2.111 5.712 5.055 7.482 8.847zm-7.661-9.053.277-.417c-3.342-2.228-7.258-3.334-11.729-3.334v1c4.298 0 8.017 1.061 11.175 3.167zm-11.452-3.251v-.5c-4.421 0-8.336 1.107-11.727 3.332l.274.419.274.418c3.213-2.109 6.933-3.169 11.179-3.169zm-11.453 3.251-.277-.417c-3.332 2.222-5.943 5.312-7.835 9.254l.451.216.451.217c1.822-3.797 4.319-6.742 7.487-8.854zm-7.661 9.053-.453-.211c-1.842 3.947-2.755 8.536-2.755 13.753h1c0-5.101.892-9.54 2.661-13.33zm-2.708 13.542h-.5c0 5.217.913 9.806 2.755 13.753l.453-.211.453-.212c-1.769-3.79-2.661-8.229-2.661-13.33zm2.708 13.542-.451.216c1.892 3.942 4.503 7.032 7.835 9.254l.277-.416.277-.416c-3.168-2.113-5.665-5.058-7.487-8.854zm7.661 9.054-.274.418c3.391 2.225 7.306 3.332 11.727 3.332v-1c-4.246 0-7.966-1.06-11.179-3.168zm52.183-41.941v.5h9.983v-1h-9.983zm9.983 0v.5q3.578.002 6.357.83l.143-.479.142-.48q-2.947-.873-6.642-.871zm6.5.851-.139.48c1.908.552 3.496 1.35 4.777 2.385l.314-.389.314-.389c-1.401-1.132-3.115-1.985-5.127-2.568zm4.952 2.476-.307.395c1.333 1.036 2.339 2.289 3.027 3.763l.453-.212.453-.211c-.757-1.622-1.866-2.999-3.319-4.13zm3.173 3.946-.453.212c.687 1.472 1.036 3.152 1.036 5.05h1c0-2.022-.373-3.85-1.13-5.473zm1.083 5.262h-.5c0 2.084-.495 4.012-1.485 5.793l.437.243.438.243c1.073-1.933 1.61-4.029 1.61-6.279zm-1.548 6.036-.437-.243c-.99 1.782-2.375 3.244-4.165 4.387l.269.422.269.421q2.89-1.845 4.502-4.744zm-4.333 4.566-.275-.418c-1.734 1.14-3.721 1.838-5.971 2.088l.055.496.056.497c2.393-.266 4.533-1.012 6.41-2.245zm-6.191 2.166-.19.463c.776.319 1.722 1.055 2.84 2.274l.368-.338.369-.338c-1.152-1.256-2.218-2.12-3.196-2.523zm3.018 2.399-.361.346q1.758 1.834 2.969 3.577l.41-.286.411-.285q-1.265-1.817-3.068-3.698zm3.018 3.637-.405.293.001.001.003.004.012.017.047.065.188.261.755 1.045.405-.293.406-.293-.755-1.044-.236-.327-.011-.016-.003-.004-.001-.001zm1.006 1.393-.397.304q1.007 1.316 2.555 3.328l.396-.304.396-.305a1852 1852 0 0 1-2.553-3.327zm2.554 3.328-.383.321a284 284 0 0 0 3.178 3.721l.378-.328.377-.328a276 276 0 0 1-3.167-3.708zm3.173 3.714-.37.337a95 95 0 0 0 2.957 3.112l.353-.354.354-.353a94 94 0 0 1-2.925-3.079zm2.94 3.095-.343.364q1.44 1.362 3.06 2.173l.224-.448.223-.447q-1.475-.736-2.821-2.005zm2.941 2.089-.197.46c1.155.495 2.462.737 3.911.737v-1c-1.337 0-2.507-.223-3.517-.656zm3.714.697h-.5v.774h1v-.774zm0 .774v-.5h-2.399v1h2.399zm-2.399 0v-.5c-2.799 0-5.08-.357-6.86-1.05l-.182.466-.181.466c1.934.752 4.348 1.118 7.223 1.118zm-7.042-1.084.186-.464c-1.764-.706-3.179-1.554-4.26-2.537l-.337.37-.336.37c1.189 1.081 2.715 1.987 4.562 2.726zm-4.411-2.631.346-.361a39 39 0 0 1-2.904-3.056l-.382.322-.382.322a40 40 0 0 0 2.977 3.135zm-2.94-3.095.39-.312c-.2-.251-.685-.888-1.46-1.922l-.4.3-.4.3a104 104 0 0 0 1.48 1.946zm-1.47-1.934.416-.278a152 152 0 0 0-2.407-3.494l-.408.289-.408.289a151 151 0 0 1 2.391 3.471zm-2.399-3.483.408-.289q-1.318-1.86-2.404-3.335l-.403.297-.402.297q1.08 1.465 2.393 3.319zm-2.399-3.327.41-.287a108 108 0 0 0-1.325-1.87l-.4.3-.4.3c.148.198.581.809 1.305 1.844zm-1.315-1.857.396-.305a19.9 19.9 0 0 0-3.651-3.651l-.305.396-.305.397a18.9 18.9 0 0 1 3.468 3.468zm-3.56-3.56.314-.389c-1.416-1.143-2.943-1.736-4.57-1.736v1c1.365 0 2.675.491 3.942 1.514zm-4.256-1.625h.5v-.774h-1v.774zm0-.774-.031.499h.001l.004.001.014.001.058.003.232.015.929.058.031-.499.031-.499-.928-.058-.232-.015-.059-.003-.014-.001-.004-.001h-.001zm1.238.078v.5q1.253 0 3.193-.078l-.02-.5-.02-.499a83 83 0 0 1-3.153.077zm3.173-.078.018.5a62 62 0 0 0 4.368-.312l-.053-.497-.053-.497a61 61 0 0 1-4.298.307zm4.333-.309.071.495c1.533-.219 2.952-.822 4.253-1.798l-.3-.4-.3-.4c-1.175.882-2.438 1.414-3.795 1.608zm4.024-1.703.292.406c1.405-1.011 2.459-2.666 3.2-4.89l-.474-.158-.474-.159c-.703 2.109-1.662 3.55-2.836 4.396zm3.018-4.642.47.17q.33-.915.49-2.116l-.496-.066-.495-.066q-.151 1.12-.439 1.907zm.464-2.012.496.066q.161-1.212.081-2.496l-.499.031-.499.031q.073 1.192-.074 2.302zm.078-2.399.499-.018q-.078-2.252-.895-4.058l-.456.207-.455.207c.485 1.066.757 2.29.807 3.68zm-.852-3.869.463-.19a8.4 8.4 0 0 0-2.22-3.125l-.332.374-.332.374a7.4 7.4 0 0 1 1.959 2.756zm-2.089-2.941.343-.364c-.93-.875-2.046-1.553-3.34-2.039l-.176.469-.175.468c1.182.443 2.181 1.055 3.005 1.83zm-3.173-1.934.176-.469q-1.947-.727-4.338-.805l-.016.5-.017.499q2.252.078 4.02.743zm-4.178-.774.021-.5q-3.65-.155-6.381-.077l.014.499.015.5q2.685-.077 6.31.077zm-6.346-.078-.014-.499q-1.352.038-2.017.038-.333 0-.479-.009l-.071-.005.017.003a.485.485 0 0 1 .356.472h-1a.51.51 0 0 0 .325.474.7.7 0 0 0 .133.036c.057.01.122.015.183.019q.192.01.536.01.69 0 2.046-.039zm-2.708 0h.5a.7.7 0 0 0-.036-.211 3 3 0 0 0-.054-.158 10 10 0 0 0-.183-.447l-.459.197-.46.197a9 9 0 0 1 .199.498l.001.003a.3.3 0 0 1-.008-.079zm-.232-.619.485-.121a8 8 0 0 0-.412-1.236l-.46.197-.46.197q.216.501.362 1.085zm-.387-1.16.485-.122-.116-.464-.029-.116-.007-.029-.002-.007-.001-.002v-.001l-.485.122-.485.121.001.002.002.008.007.029.029.116.116.464zm.774-.619h-.5v46.429h1v-46.429zm0 46.429v-.5h-4.953v1h4.953zm-4.953 0h.5v-46.429h-1v46.429zm0-46.429v.5h4.953v-1h-4.953zm.233 41.476-.492.092.929 4.953.491-.092.492-.092-.929-4.953zm.928 4.953v-.5h-6.577v1h6.577zm-6.577 0h.5v-.774h-1v.774zm0-.774v.5h.541v-1h-.541zm.541 0v.5h.542v-1h-.542zm.542 0v.5c1.362 0 2.524-.459 3.449-1.385l-.354-.353-.353-.354c-.726.726-1.628 1.092-2.742 1.092zm3.095-1.238.354.353c.911-.911 1.404-2.008 1.461-3.271l-.499-.023-.5-.022c-.045 1.006-.429 1.869-1.169 2.609zm1.316-2.941v.5h.155v-1h-.155zm.155-36.601v-.5h-.155v1h.155zm-.155 0 .499-.022c-.057-1.31-.547-2.416-1.473-3.284l-.342.365-.342.365c.725.68 1.112 1.534 1.158 2.597zm-1.316-2.941.342-.365c-.927-.869-2.085-1.296-3.437-1.296v1c1.124 0 2.03.347 2.753 1.026zm-3.095-1.161v-.5h-.542v1h.542zm-.542 0v-.5h-.541v1h.541zm-.541 0h.5v-.773h-1v.773zm0-.773v.5h6.577v-1h-6.577zm6.577 0-.491-.094-.929 4.875.492.094.491.093.928-4.875zm3.56 41.476v.5h.232v-1h-.232zm.232 0-.5.023c.058 1.263.551 2.36 1.462 3.271l.353-.353.354-.354c-.74-.74-1.124-1.603-1.17-2.609zm1.315 2.941-.353.353c.925.926 2.087 1.385 3.449 1.385v-1c-1.115 0-2.017-.366-2.742-1.092zm3.096 1.238v.5h.464v-1h-.464zm.464 0v.5h.542v-1h-.542zm.542 0-.498.05.077.773.498-.049.497-.05-.077-.774zm.077.774v-.5h-6.655v1h6.655zm-6.655 0 .492.092.928-4.953-.491-.092-.492-.092-.928 4.953zm62.057-46.429v.5c5.047 0 9.378.917 13.009 2.733l.223-.448.224-.447c-3.798-1.899-8.289-2.838-13.456-2.838zm13.232 2.785-.223.448c3.628 1.814 6.417 4.429 8.379 7.849l.434-.249.433-.249c-2.062-3.596-4.999-6.346-8.799-8.246zm8.59 8.048-.433.252c1.96 3.366 2.95 7.402 2.95 12.129h1c0-4.868-1.021-9.086-3.085-12.633zm3.017 12.381h-.5c0 4.727-.99 8.764-2.95 12.13l.433.251.432.252c2.064-3.547 3.085-7.764 3.085-12.633zm-3.017 12.381-.433-.251c-1.961 3.37-4.752 5.987-8.385 7.854l.228.445.229.445c3.795-1.951 6.731-4.699 8.793-8.241zm-8.59 8.048-.223-.447c-3.631 1.815-7.962 2.733-13.009 2.733v1c5.167 0 9.658-.94 13.456-2.839zm-13.232 2.786v-.5h-16.483v1h16.483zm-16.483 0 .499-.034-.154-2.321-.499.033-.499.034.155 2.321zm-.154-2.322v.5h9.053v-1h-9.053zm9.053 0v.5h5.649v-1h-5.649zm5.649 0v.5h1.935v-1h-1.935zm1.935 0v.5c6.096 0 10.935-1.896 14.452-5.733l-.369-.338-.368-.338c-3.293 3.592-7.843 5.409-13.715 5.409zm14.083-5.571.369.338c3.561-3.881 5.316-9.12 5.316-15.66h-1c0 6.357-1.702 11.332-5.053 14.984zm5.185-15.322h.5c0-6.539-1.755-11.755-5.319-15.585l-.366.341-.366.341c3.349 3.598 5.051 8.545 5.051 14.903zm-5.185-15.244.371-.335c-3.516-3.89-8.356-5.814-14.454-5.814v1c5.87 0 10.42 1.842 13.712 5.484zm-14.083-5.649v-.5h-2.012v1h2.012zm-2.012 0v-.5h-5.881v1h5.881zm-5.881 0v-.5h-9.518v1h9.518zm-9.518 0h.5v-2.321h-1v2.321zm0-2.321v.5h17.411v-1H491.71zm2.012 0h-.5v46.429h1v-46.429zm0 46.429v-.5h-5.03v1h5.03zm-5.03 0h.5v-46.429h-1v46.429zm0-46.429v.5h5.03v-1h-5.03zm.155 41.399h-.5v5.03h1v-5.03zm0 5.03v-.5h-5.572v1h5.572zm-5.572 0h.5v-.774h-1v.774zm0-.774v.5h.465v-1h-.465zm.465 0v.5h.541v-1h-.541zm.541 0v.5c1.362 0 2.524-.459 3.449-1.385l-.354-.353-.353-.354c-.726.726-1.627 1.092-2.742 1.092zm3.095-1.238.365.343c.902-.959 1.393-2.076 1.45-3.338l-.499-.023-.499-.023c-.046 1.008-.432 1.903-1.181 2.698zm1.316-3.018v.5h.155v-1h-.155zm.155-36.37v-.5h-.155v1h.155zm-.155 0 .5-.02c-.057-1.366-.576-2.503-1.562-3.372l-.331.374-.331.375c.769.678 1.178 1.553 1.224 2.664zm-1.393-3.018.354-.353c-.926-.925-2.087-1.385-3.449-1.385v1c1.114 0 2.016.367 2.742 1.092zm-3.095-1.238v-.5h-.464v1h.464zm-.464 0v-.5h-.465v1h.465zm-.465 0h.5v-.773h-1v.773zm0-.773v.5h5.572v-1h-5.572zm5.572 0h-.5v5.029h1v-5.029zm59.516 0h-.5v46.429h1v-46.429zm0 46.429v-.5h-4.953v1h4.953zm-4.953 0h.5v-46.429h-1v46.429zm0-46.429v.5h4.953v-1h-4.953zm25.768 44.03-.499-.032-.154 2.399.499.032.499.032.154-2.399zm-.154 2.399v-.5h-20.816v1h20.816zm-20.816 0h.5v-2.399h-1v2.399zm0-2.399v.5h20.97v-1h-20.97zm17.333-21.977h-.5v2.322h1v-2.322zm0 2.322v-.5h-17.333v1h17.333zm-17.333 0h.5v-2.322h-1v2.322zm0-2.322v.5h17.333v-1h-17.333zm20.893-22.053h-.5v2.398h1v-2.398zm0 2.398v-.5h-20.893v1h20.893zm-20.893 0h.5v-2.398h-1v2.398zm0-2.398v.5h20.893v-1h-20.893zm25.304 35.363-.467-.179-4.256 11.065.467.18.466.179 4.256-11.065zm-4.256 11.066v-.5h-11.762v1h11.762zm-11.762 0 .337.369 2.63-2.399-.336-.369-.337-.37-2.631 2.399zm2.631-2.399v.5c2.618 0 4.763-.366 6.402-1.13l-.212-.453-.211-.454c-1.457.68-3.439 1.037-5.979 1.037zm6.19-1.083.218.45c1.663-.805 3.017-1.885 4.049-3.243l-.398-.303-.398-.302c-.928 1.221-2.153 2.205-3.689 2.947zm3.869-3.096.404.295a24.2 24.2 0 0 0 2.608-4.582l-.458-.201-.458-.2a23 23 0 0 1-2.499 4.393zm2.554-4.488v.5h.774v-1h-.774zm-7.197-11.143h-.5v4.411h1v-4.411zm0 4.411v-.5h-.851v1h.851zm-.851 0h.5v-1.006h-1v1.006zm0-1.006h.5c0-.983-.292-1.847-.89-2.564l-.384.32-.384.32c.434.521.658 1.153.658 1.924zm-.774-2.244.397-.305c-.637-.827-1.605-1.201-2.795-1.201v1c.975 0 1.607.297 2.002.811zm-2.398-1.006h.5v-.155h-1v.155zm0-.155v.5h4.023v-1h-4.023zm4.023-6.423h-.5v4.411h1v-4.411zm0 4.411v-.5h-4.023v1h4.023zm-4.023 0h.5v-.155h-1v.155zm0-.155v.5c1.177 0 2.142-.339 2.782-1.108l-.384-.32-.384-.32c-.391.469-1.025.748-2.014.748zm2.398-.928.397.305c.585-.762.877-1.644.877-2.627h-1c0 .771-.224 1.437-.67 2.017zm.774-2.322h.5v-1.006h-1v1.006zm0-1.006v.5h.851v-1h-.851zm4.411-15.631h-.5v5.34h1v-5.34zm0 5.34v-.5h-.851v1h.851zm-.851 0h.5v-1.161h-1v1.161zm0-1.161h.5c0-1.207-.407-2.258-1.218-3.127l-.366.341-.365.341c.634.679.949 1.485.949 2.445zm-1.084-2.786.378-.327c-.781-.902-1.857-1.334-3.163-1.334v1c1.067 0 1.847.342 2.408.989zm-2.785-1.161h.5v-.232h-1v.232zm0-.232v.5h4.72v-1h-4.72zm4.72-3.405h-.5v2.012h1v-2.012zm0 2.012.044-.498-8.822-.774-.044.499-.043.498 8.821.773zm-8.822-.773v.5q2.439-.001 5.178-.392l-.07-.495-.071-.495a36 36 0 0 1-5.037.382zm5.108-.387.084.492c1.803-.309 3.087-.599 3.809-.877l-.179-.467-.18-.466c-.618.238-1.811.515-3.619.825zm-21.822 41.863-.49.1 1.006 4.952.49-.099.49-.1-1.006-4.952zm1.006 4.953v-.5h-6.732v1h6.732zm-6.732 0h.5v-.774h-1v.774zm0-.774v.5h.541v-1h-.541zm.541 0v.5h.542v-1h-.542zm.542 0v.5c1.407 0 2.597-.455 3.526-1.385l-.353-.353-.354-.354c-.721.722-1.647 1.092-2.819 1.092zm3.173-1.238.353.353c.911-.911 1.404-2.008 1.462-3.271l-.5-.023-.499-.022c-.046 1.006-.43 1.869-1.17 2.609zm1.315-2.941v.5h.155v-1h-.155zm.155-36.601v-.5h-.155v1h.155zm-.155 0 .5-.022c-.057-1.31-.548-2.416-1.473-3.284l-.342.365-.342.365c.725.68 1.111 1.534 1.158 2.597zm-1.315-2.941.342-.365c-.932-.873-2.117-1.296-3.515-1.296v1c1.182 0 2.111.351 2.831 1.026zm-3.173-1.161v-.5h-.542v1h.542zm-.542 0v-.5h-.541v1h.541zm-.541 0h.5v-.773h-1v.773zm0-.773v.5h6.732v-1h-6.732zm6.732 0-.49-.101-1.006 4.875.49.101.49.101 1.006-4.875zm41.1 0v.5h9.982v-1h-9.982zm9.982 0v.5q3.579.002 6.358.83l.142-.479.143-.48q-2.947-.873-6.643-.871zm6.5.851-.139.48c1.908.552 3.497 1.35 4.778 2.385l.314-.389.314-.389c-1.402-1.132-3.115-1.985-5.128-2.568zm4.953 2.476-.307.395q1.997 1.553 3.026 3.763l.453-.212.454-.211c-.757-1.622-1.866-2.999-3.319-4.13zm3.172 3.946-.453.212c.687 1.472 1.037 3.152 1.037 5.05h1c0-2.022-.373-3.85-1.13-5.473zm1.084 5.262h-.5c0 2.084-.495 4.012-1.485 5.793l.437.243.437.243c1.074-1.933 1.611-4.029 1.611-6.279zm-1.548 6.036-.437-.243c-.99 1.782-2.375 3.244-4.165 4.387l.269.422.269.421c1.924-1.229 3.428-2.812 4.501-4.744zm-4.333 4.566-.275-.418c-1.734 1.14-3.721 1.838-5.971 2.088l.055.496.055.497c2.394-.266 4.534-1.012 6.41-2.245zm-6.191 2.166-.19.463c.775.319 1.722 1.055 2.84 2.274l.368-.338.369-.338c-1.152-1.256-2.218-2.12-3.196-2.523zm3.018 2.399-.361.346q1.757 1.834 2.969 3.577l.41-.286.41-.285q-1.264-1.817-3.067-3.698zm3.018 3.637-.405.293.001.001.003.004.011.017.048.065.188.261.755 1.045.405-.293.405-.293-.754-1.044-.189-.261-.047-.066-.012-.016-.003-.004v-.001h-.001zm1.006 1.393-.397.304q1.006 1.316 2.554 3.328l.397-.304.396-.305q-1.548-2.012-2.553-3.327zm2.554 3.328-.383.321a284 284 0 0 0 3.178 3.721l.377-.328.378-.328a283 283 0 0 1-3.168-3.708zm3.172 3.714-.369.337a96 96 0 0 0 2.956 3.112l.354-.354.353-.353a97 97 0 0 1-2.925-3.079zm2.941 3.095-.344.364q1.441 1.362 3.061 2.173l.223-.448.224-.447q-1.476-.736-2.821-2.005zm2.94 2.089-.197.46c1.156.495 2.463.737 3.912.737v-1c-1.338 0-2.507-.223-3.518-.656zm3.715.697h-.5v.774h1v-.774zm0 .774v-.5h-2.399v1h2.399zm-2.399 0v-.5c-2.8 0-5.08-.357-6.861-1.05l-.181.466-.181.466c1.934.752 4.348 1.118 7.223 1.118zm-7.042-1.084.186-.464c-1.765-.706-3.18-1.554-4.26-2.537l-.337.37-.336.37c1.189 1.081 2.714 1.987 4.561 2.726zm-4.411-2.631.345-.361a39 39 0 0 1-2.903-3.056l-.382.322-.383.322q1.26 1.496 2.978 3.135zm-2.94-3.095.39-.312c-.2-.251-.685-.888-1.46-1.922l-.401.3-.4.3a114 114 0 0 0 1.48 1.946zm-1.471-1.934.416-.278a152 152 0 0 0-2.406-3.494l-.408.289-.408.289a151 151 0 0 1 2.39 3.471zm-2.398-3.483.408-.289q-1.318-1.86-2.405-3.335l-.402.297-.403.297q1.08 1.465 2.394 3.319zm-2.399-3.327.409-.287a102 102 0 0 0-1.325-1.87l-.4.3-.4.3c.149.198.582.809 1.306 1.844zm-1.316-1.857.397-.305a20 20 0 0 0-3.651-3.651l-.305.396-.305.397a18.9 18.9 0 0 1 3.468 3.468zm-3.559-3.56.314-.389c-1.416-1.143-2.943-1.736-4.57-1.736v1c1.364 0 2.675.491 3.942 1.514zm-4.256-1.625h.5v-.774h-1v.774zm0-.774-.031.499h.001l.003.001.015.001.058.003.232.015.929.058.031-.499.031-.499-.929-.058-.232-.015-.058-.003-.014-.001-.004-.001h-.001zm1.238.078v.5q1.252 0 3.192-.078l-.02-.5-.019-.499a83 83 0 0 1-3.153.077zm3.172-.078.018.5a62 62 0 0 0 4.369-.312l-.053-.497-.053-.497a61 61 0 0 1-4.298.307zm4.334-.309.071.495c1.532-.219 2.952-.822 4.253-1.798l-.3-.4-.3-.4c-1.175.882-2.439 1.414-3.795 1.608zm4.024-1.703.292.406c1.405-1.011 2.458-2.666 3.2-4.89l-.474-.158-.475-.159c-.703 2.109-1.661 3.55-2.835 4.396zm3.018-4.642.47.17q.33-.915.489-2.116l-.495-.066-.496-.066q-.15 1.12-.438 1.907zm.464-2.012.495.066q.162-1.212.081-2.496l-.499.031-.499.031q.075 1.192-.074 2.302zm.077-2.399.5-.018c-.054-1.5-.349-2.855-.896-4.058l-.455.207-.455.207c.485 1.066.757 2.29.807 3.68zm-.851-3.869.463-.19a8.4 8.4 0 0 0-2.22-3.125l-.332.374-.332.374a7.4 7.4 0 0 1 1.958 2.756zm-2.089-2.941.343-.364c-.93-.875-2.046-1.553-3.34-2.039l-.176.469-.175.468c1.182.443 2.181 1.055 3.005 1.83zm-3.173-1.934.176-.469q-1.947-.727-4.338-.805l-.017.5-.016.499q2.251.078 4.02.743zm-4.179-.774.022-.5q-3.65-.155-6.381-.077l.014.499.014.5q2.686-.077 6.31.077zm-6.345-.078-.014-.499q-1.352.038-2.017.038c-.224 0-.381-.003-.479-.009l-.071-.005.017.003.052.017c.019.008.074.031.132.08a.5.5 0 0 1 .172.375h-1a.51.51 0 0 0 .325.474.7.7 0 0 0 .133.036c.057.01.122.015.183.019q.192.01.536.01.69 0 2.045-.039zm-2.708 0h.5c0-.095-.028-.184-.036-.211a3 3 0 0 0-.054-.158 11 11 0 0 0-.183-.447l-.459.197-.46.197q.114.266.166.405.025.068.032.093l.001.003c0-.001-.007-.033-.007-.079zm-.232-.619.485-.121a8 8 0 0 0-.413-1.236l-.459.197-.46.197q.216.501.362 1.085zm-.387-1.16.485-.122-.116-.464-.029-.116-.008-.029-.001-.007-.001-.002v-.001l-.485.122-.485.121.001.002.001.008.008.029.029.116.116.464zm.774-.619h-.5v46.429h1v-46.429zm0 46.429v-.5h-4.953v1h4.953zm-4.953 0h.5v-46.429h-1v46.429zm0-46.429v.5h4.953v-1h-4.953zm.232 41.476-.491.092.928 4.953.492-.092.491-.092-.928-4.953zm.929 4.953v-.5h-6.578v1h6.578zm-6.578 0h.5v-.774h-1v.774zm0-.774v.5h.542v-1h-.542zm.542 0v.5h.542v-1h-.542zm.542 0v.5c1.362 0 2.523-.459 3.449-1.385l-.354-.353-.354-.354c-.725.726-1.627 1.092-2.741 1.092zm3.095-1.238.354.353c.911-.911 1.404-2.008 1.461-3.271l-.5-.023-.499-.022c-.046 1.006-.43 1.869-1.17 2.609zm1.315-2.941v.5h.155v-1h-.155zm.155-36.601v-.5h-.155v1h.155zm-.155 0 .5-.022c-.057-1.31-.547-2.416-1.473-3.284l-.342.365-.342.365c.725.68 1.112 1.534 1.158 2.597zm-1.315-2.941.342-.365c-.927-.869-2.085-1.296-3.437-1.296v1c1.124 0 2.029.347 2.753 1.026zm-3.095-1.161v-.5h-.542v1h.542zm-.542 0v-.5h-.542v1h.542zm-.542 0h.5v-.773h-1v.773zm0-.773v.5h6.578v-1h-6.578zm6.578 0-.491-.094-.929 4.875.491.094.491.093.929-4.875zm3.559 41.476v.5h.233v-1h-.233zm.233 0-.5.023c.057 1.263.551 2.36 1.461 3.271l.354-.353.354-.354c-.74-.74-1.124-1.603-1.17-2.609zm1.315 2.941-.354.353c.926.926 2.088 1.385 3.449 1.385v-1c-1.114 0-2.016-.366-2.741-1.092zm3.095 1.238v.5h.465v-1h-.465zm.465 0v.5h.541v-1h-.541zm.541 0-.497.05.077.774.498-.05.497-.05-.077-.774zm.078.774v-.5h-6.655v1h6.655zm-6.655 0 .491.092.929-4.953-.492-.092-.491-.092-.929 4.953z" mask="url(#b)"/><path fill="#173C37" stroke="#173C37" stroke-width=".5" d="M304.948 103.833v1.274h-1.256c-1.272 0-2.369.463-3.304 1.397-.883.883-1.348 1.958-1.398 3.238v42.85l.014.239c.095 1.175.553 2.196 1.379 3.072l.177.16c.895.777 1.935 1.164 3.132 1.164h1.256v1.273h-17.446v-1.273h1.256c1.276 0 2.348-.439 3.228-1.319.935-.935 1.423-2.034 1.474-3.306v-42.879c-.053-1.267-.541-2.334-1.469-3.214l-.01-.009c-.826-.873-1.818-1.333-2.987-1.387l-.236-.006h-1.256v-1.274zM17.196 103.833v1.274H15.94c-1.272 0-2.37.463-3.304 1.397-.883.883-1.348 1.958-1.398 3.238l-.01.24h-.025l-.254 42.88c.32 1.656 1.05 2.637 1.812 3.359.387.368.78.665 1.15.961.36.29.704.583.95.922l.29.396H-.25v-1.273h1.256c1.276 0 2.348-.439 3.228-1.319.935-.935 1.423-2.034 1.474-3.306v-42.879c-.053-1.267-.54-2.334-1.469-3.214l-.01-.009c-.826-.873-1.818-1.333-2.987-1.387l-.236-.006H-.25v-1.274z"/><path stroke="#173C37" stroke-width="5" d="M396 107v49"/><path fill="#173C37" d="M281.99 19.226h50.625l-6.444 7.274H281.99z"/><path fill="#173C37" d="M341.718 9.081 349.958 0h-79.67v81.43h81.424V16.74l-8.699 9.541v46.733h-63.807V9.08z"/><path fill="#173C37" fill-rule="evenodd" d="M281.987 40.268v-11.93l6.214 6.249 17.981 16.394L351.712 1.5v11.71l-43.025 47.013-2.505 4.404-2.53-5.294z" clip-rule="evenodd"/></g><defs><clipPath id="a"><path fill="#fff" d="M0 0h621.654v193H0z"/></clipPath></defs></svg>