<svg width="65" height="64" viewBox="0 0 65 64" fill="none" xmlns="http://www.w3.org/2000/svg">
<circle cx="32.5" cy="32" r="32" fill="#E4F4ED"/>
<mask id="mask0_2597_10054" style="mask-type:alpha" maskUnits="userSpaceOnUse" x="14" y="14" width="38" height="37">
<rect x="14.5" y="14" width="36.5714" height="36.5714" fill="#D9D9D9"/>
</mask>
<g mask="url(#mask0_2597_10054)">
<path d="M32.8239 46.4569C29.7529 43.3702 27.2689 40.8315 25.372 38.8409C23.4749 36.8501 22.0043 35.1636 20.9602 33.7815C19.9159 32.3994 19.2131 31.2008 18.8517 30.1857C18.4903 29.1708 18.3096 28.093 18.3096 26.9521C18.3096 24.7218 19.0853 22.8309 20.6368 21.2794C22.1883 19.7279 24.0792 18.9521 26.3096 18.9521C27.3673 18.9521 28.3898 19.1397 29.377 19.5148C30.3639 19.8899 31.252 20.432 32.0414 21.1411L29.6063 29.6188H34.2216L32.9999 42.1464L37.5039 27.3331H32.9031L35.388 19.9015C35.9757 19.585 36.593 19.3477 37.2399 19.1895C37.8865 19.0313 38.5507 18.9521 39.2326 18.9521C41.463 18.9521 43.3539 19.7279 44.9054 21.2794C46.4569 22.8309 47.2326 24.7218 47.2326 26.9521C47.2326 28.1029 47.0406 29.2008 46.6566 30.2459C46.2729 31.2912 45.5501 32.5161 44.4882 33.9205C43.4264 35.3252 41.9583 37.0141 40.084 38.9872C38.2095 40.9603 35.7894 43.4502 32.8239 46.4569ZM30.8372 41.188L31.7252 31.9045H26.5793L29.3922 22.0611C28.9176 21.8191 28.4193 21.6214 27.8974 21.468C27.3757 21.3146 26.8465 21.2379 26.3096 21.2379C24.7314 21.2379 23.3845 21.7957 22.2688 22.9114C21.1531 24.0271 20.5953 25.374 20.5953 26.9521C20.5953 27.759 20.7559 28.5805 21.0772 29.4165C21.3987 30.2528 21.9531 31.2116 22.7404 32.2927C23.5277 33.3741 24.5812 34.6278 25.9008 36.0539C27.2204 37.4802 28.8659 39.1915 30.8372 41.188ZM36.0208 39.9312C39.3087 36.5631 41.6184 33.933 42.95 32.0409C44.2813 30.1488 44.9469 28.4526 44.9469 26.9521C44.9469 25.374 44.3891 24.0271 43.2734 22.9114C42.1577 21.7957 40.8108 21.2379 39.2326 21.2379C38.8946 21.2379 38.5615 21.2691 38.2334 21.3316C37.9053 21.3941 37.577 21.481 37.2486 21.5925L36.1145 25.0474H40.5484L36.0208 39.9312Z" fill="#239485"/>
</g>
</svg>
