<svg width="65" height="64" viewBox="0 0 65 64" fill="none" xmlns="http://www.w3.org/2000/svg">
<circle cx="32.5" cy="32" r="32" fill="#E4F4ED"/>
<mask id="mask0_2597_10047" style="mask-type:alpha" maskUnits="userSpaceOnUse" x="14" y="14" width="38" height="37">
<rect x="14.5" y="14" width="36.5714" height="36.5714" fill="#D9D9D9"/>
</mask>
<g mask="url(#mask0_2597_10047)">
<path d="M27.5256 32.0515C28.4947 32.0515 29.3103 31.7057 29.9724 31.0141C30.6348 30.3223 31.1056 29.4969 31.385 28.538L29.6296 28.1071C29.4734 28.6658 29.222 29.16 28.8753 29.5898C28.5284 30.0195 28.0785 30.2343 27.5256 30.2343C26.9727 30.2343 26.5229 30.0195 26.1762 29.5898C25.8296 29.16 25.578 28.6658 25.4216 28.1071L23.6665 28.538C23.9459 29.4969 24.4166 30.3223 25.0787 31.0141C25.7411 31.7057 26.5567 32.0515 27.5256 32.0515ZM32.79 40.4324C33.719 40.4324 34.6113 40.2296 35.4669 39.824C36.3228 39.4187 37.1199 38.8155 37.8581 38.0145L36.5336 36.7985C35.9652 37.3788 35.3635 37.8204 34.7286 38.1231C34.0937 38.4258 33.4461 38.5772 32.7858 38.5772C32.1254 38.5772 31.4778 38.4258 30.8429 38.1231C30.208 37.8204 29.6063 37.3788 29.038 36.7985L27.7134 38.0145C28.4771 38.8254 29.2818 39.4312 30.1275 39.8317C30.9732 40.2322 31.8607 40.4324 32.79 40.4324ZM38.046 32.0515C39.0148 32.0515 39.8305 31.7057 40.4928 31.0141C41.1549 30.3223 41.6256 29.4969 41.905 28.538L40.15 28.1071C39.9935 28.6658 39.742 29.16 39.3953 29.5898C39.0486 30.0195 38.5988 30.2343 38.046 30.2343C37.4931 30.2343 37.0432 30.0195 36.6962 29.5898C36.3496 29.16 36.0981 28.6658 35.942 28.1071L34.1865 28.538C34.4659 29.4969 34.9367 30.3223 35.5991 31.0141C36.2612 31.7057 37.0768 32.0515 38.046 32.0515ZM32.7884 46.762C30.7861 46.762 28.9041 46.382 27.1423 45.6221C25.3806 44.8623 23.8481 43.831 22.545 42.5284C21.2419 41.2258 20.2101 39.694 19.4498 37.933C18.6896 36.172 18.3096 34.2905 18.3096 32.2884C18.3096 30.2861 18.6895 28.4041 19.4494 26.6423C20.2093 24.8806 21.2405 23.3481 22.5431 22.045C23.8457 20.7419 25.3775 19.7101 27.1385 18.9498C28.8995 18.1896 30.7811 17.8096 32.7831 17.8096C34.7854 17.8096 36.6674 18.1895 38.4292 18.9494C40.191 19.7093 41.7234 20.7405 43.0265 22.0431C44.3296 23.3457 45.3614 24.8775 46.1218 26.6385C46.8819 28.3995 47.262 30.2811 47.262 32.2831C47.262 34.2854 46.882 36.1674 46.1221 37.9292C45.3623 39.691 44.331 41.2234 43.0284 42.5265C41.7258 43.8296 40.194 44.8614 38.433 45.6218C36.672 46.3819 34.7905 46.762 32.7884 46.762ZM32.7858 44.4762C36.1889 44.4762 39.0715 43.2953 41.4334 40.9334C43.7953 38.5715 44.9762 35.6889 44.9762 32.2858C44.9762 28.8826 43.7953 26 41.4334 23.6381C39.0715 21.2762 36.1889 20.0953 32.7858 20.0953C29.3826 20.0953 26.5 21.2762 24.1381 23.6381C21.7762 26 20.5953 28.8826 20.5953 32.2858C20.5953 35.6889 21.7762 38.5715 24.1381 40.9334C26.5 43.2953 29.3826 44.4762 32.7858 44.4762Z" fill="#239485"/>
</g>
</svg>
