<svg width="64" height="64" viewBox="0 0 64 64" fill="none" xmlns="http://www.w3.org/2000/svg">
<circle cx="32" cy="32" r="32" fill="#E4F4ED"/>
<mask id="mask0_2592_10021" style="mask-type:alpha" maskUnits="userSpaceOnUse" x="14" y="14" width="37" height="37">
<rect x="14" y="14" width="36.5714" height="36.5714" fill="#D9D9D9"/>
</mask>
<g mask="url(#mask0_2592_10021)">
<path d="M32.3002 46.762L19.3188 33.962L26.4834 25.253H38.1024L45.2674 33.962L32.3002 46.762ZM21.6453 24.8572L18.5245 21.7509L20.1539 20.1452L23.2746 23.2515L21.6453 24.8572ZM31.1577 22.2054V17.8096H33.443V22.2054H31.1577ZM42.8792 24.8572L41.2643 23.2279L44.3706 20.1216L46 21.7509L42.8792 24.8572ZM32.3002 43.565L41.0038 34.9818H23.5824L32.3002 43.565ZM27.5649 27.5383L23.2952 32.696H41.291L37.0213 27.5383H27.5649Z" fill="#239485"/>
</g>
</svg>
