<svg width="64" height="64" viewBox="0 0 64 64" fill="none" xmlns="http://www.w3.org/2000/svg">
<circle cx="32" cy="32" r="32" fill="#E4F4ED"/>
<mask id="mask0_2597_10040" style="mask-type:alpha" maskUnits="userSpaceOnUse" x="14" y="14" width="37" height="37">
<rect x="14" y="14" width="36.5714" height="36.5714" fill="#D9D9D9"/>
</mask>
<g mask="url(#mask0_2597_10040)">
<path d="M20.2713 46.7618V30.1755H17.8096V22.2346H25.6896C25.4747 21.9864 25.3287 21.7069 25.2515 21.3961C25.1743 21.0855 25.1357 20.7593 25.1357 20.4174C25.1357 19.2779 25.5345 18.3092 26.3322 17.5115C27.13 16.7138 28.0986 16.3149 29.2381 16.3149C29.8223 16.3149 30.3635 16.4375 30.8618 16.6826C31.3598 16.9279 31.8051 17.2556 32.1978 17.6658C32.5904 17.2399 33.0359 16.9083 33.5341 16.6711C34.0322 16.4337 34.5733 16.3149 35.1574 16.3149C36.2972 16.3149 37.266 16.7138 38.0637 17.5115C38.8614 18.3092 39.2602 19.2779 39.2602 20.4174C39.2602 20.7554 39.2177 21.0768 39.1326 21.3816C39.0475 21.6864 38.9054 21.9707 38.7063 22.2346H46.762V30.1755H44.3002V46.7618H20.2713ZM35.1574 18.6007C34.6426 18.6007 34.2111 18.7747 33.8629 19.1229C33.5147 19.4711 33.3406 19.9026 33.3406 20.4174C33.3406 20.9322 33.5147 21.3637 33.8629 21.7119C34.2111 22.0603 34.6426 22.2346 35.1574 22.2346C35.6722 22.2346 36.1038 22.0603 36.4522 21.7119C36.8004 21.3637 36.9745 20.9322 36.9745 20.4174C36.9745 19.9026 36.8004 19.4711 36.4522 19.1229C36.1038 18.7747 35.6722 18.6007 35.1574 18.6007ZM27.4214 20.4174C27.4214 20.9322 27.5955 21.3637 27.9437 21.7119C28.2919 22.0603 28.7233 22.2346 29.2381 22.2346C29.7529 22.2346 30.1844 22.0603 30.5326 21.7119C30.8808 21.3637 31.0549 20.9322 31.0549 20.4174C31.0549 19.9026 30.8808 19.4711 30.5326 19.1229C30.1844 18.7747 29.7529 18.6007 29.2381 18.6007C28.7233 18.6007 28.2919 18.7747 27.9437 19.1229C27.5955 19.4711 27.4214 19.9026 27.4214 20.4174ZM20.0953 24.5199V27.8902H31.1429V24.5199H20.0953ZM31.1429 44.4761V30.1755H22.5566V44.4761H31.1429ZM33.4286 44.4761H42.0149V30.1755H33.4286V44.4761ZM44.4762 27.8902V24.5199H33.4286V27.8902H44.4762Z" fill="#239485"/>
</g>
</svg>
