<svg width="64" height="64" viewBox="0 0 64 64" fill="none" xmlns="http://www.w3.org/2000/svg">
<circle cx="32" cy="32" r="32" fill="#E4F4ED"/>
<mask id="mask0_2597_10033" style="mask-type:alpha" maskUnits="userSpaceOnUse" x="14" y="14" width="37" height="37">
<rect x="14" y="14" width="36.5714" height="36.5714" fill="#D9D9D9"/>
</mask>
<g mask="url(#mask0_2597_10033)">
<path d="M32.2812 17.8096C34.2847 17.8096 36.1632 18.19 37.9166 18.9509C39.67 19.7118 41.2021 20.7477 42.5128 22.0587C43.8238 23.3694 44.8597 24.901 45.6206 26.6534C46.3815 28.4055 46.762 30.2845 46.762 32.2903C46.762 34.272 46.3815 36.1435 45.6206 37.9048C44.8597 39.6661 43.8238 41.2021 42.5128 42.5128C41.2021 43.8238 39.6705 44.8597 37.9181 45.6206C36.166 46.3815 34.287 46.762 32.2812 46.762C30.2995 46.762 28.4286 46.3823 26.6686 45.6229C24.9089 44.8635 23.3721 43.827 22.0583 42.5132C20.7446 41.1994 19.708 39.6627 18.9486 37.9029C18.1893 36.1429 17.8096 34.272 17.8096 32.2903C17.8096 30.2845 18.19 28.4055 18.9509 26.6534C19.7118 24.901 20.7477 23.3694 22.0587 22.0587C23.3694 20.7477 24.906 19.7118 26.6682 18.9509C28.4305 18.19 30.3015 17.8096 32.2812 17.8096ZM32.2858 44.4762C35.6635 44.4762 38.5397 43.2889 40.9143 40.9143C43.2889 38.5397 44.4762 35.6635 44.4762 32.2858C44.4762 28.908 43.2889 26.0318 40.9143 23.6572C38.5397 21.2826 35.6635 20.0953 32.2858 20.0953C28.908 20.0953 26.0318 21.2826 23.6572 23.6572C21.2826 26.0318 20.0953 28.908 20.0953 32.2858C20.0953 35.6635 21.2826 38.5397 23.6572 40.9143C26.0318 43.2889 28.908 44.4762 32.2858 44.4762ZM29.4724 25.253C29.4724 26.0324 29.7465 26.696 30.2945 27.2439C30.8426 27.7919 31.5063 28.066 32.2858 28.066C33.0652 28.066 33.7289 27.7919 34.277 27.2439C34.8251 26.696 35.0991 26.0324 35.0991 25.253C35.0991 24.4733 34.8251 23.8096 34.277 23.2618C33.7289 22.7137 33.0652 22.4397 32.2858 22.4397C31.5063 22.4397 30.8426 22.7137 30.2945 23.2618C29.7465 23.8096 29.4724 24.4733 29.4724 25.253ZM32.2858 29.4724C31.0433 29.4724 29.6778 29.7772 28.189 30.3867C26.7005 30.9962 25.9562 31.8637 25.9562 32.989V38.6153C25.9562 39.6543 26.6952 40.5279 28.173 41.2362C29.6508 41.9446 31.2562 42.2275 32.989 42.085V39.2667C32.1743 39.3137 31.406 39.255 30.6842 39.0907C29.9625 38.9261 29.3241 38.6759 28.7692 38.3399C28.8766 37.8047 29.2869 37.3653 30 37.0214C30.7132 36.6775 31.4751 36.5056 32.2858 36.5056C33.0964 36.5056 33.8851 36.6892 34.6519 37.0564C35.4188 37.4237 35.8023 37.8983 35.8023 38.4804V41.458C36.822 41.1004 37.5458 40.6578 37.9738 40.1303C38.4014 39.6028 38.6153 39.0978 38.6153 38.6153V32.989C38.6153 31.8637 37.871 30.9962 36.3825 30.3867C34.8938 29.7772 33.5282 29.4724 32.2858 29.4724ZM32.2839 35.8023C31.7909 35.8023 31.3749 35.6322 31.0359 35.2919C30.6971 34.9515 30.5277 34.5349 30.5277 34.042C30.5277 33.549 30.6978 33.1331 31.0381 32.7943C31.3785 32.4553 31.795 32.2858 32.2877 32.2858C32.7806 32.2858 33.1966 32.4559 33.5357 32.7962C33.8745 33.1366 34.0439 33.5532 34.0439 34.0461C34.0439 34.5388 33.8737 34.9547 33.5334 35.2938C33.1931 35.6328 32.7766 35.8023 32.2839 35.8023Z" fill="#239485"/>
</g>
</svg>
